<?xml version="1.0" encoding="UTF-8" standalone="no"?>
<svg
   width="1024"
   height="1024"
   version="1.1"
   id="svg102"
   xmlns="http://www.w3.org/2000/svg"
   xmlns:svg="http://www.w3.org/2000/svg">
  <defs
     id="defs102" />
  <path
     fill="#07161a"
     d="m 859.713,703.954 c 1.253,0.657 1.682,0.847 2.315,2.19 0.441,0.935 0.54,1.872 0.261,2.845 l -2.019,0.633 c -0.349,0.086 -0.99,-0.035 -1.315,-0.14 -1.2,-0.386 -1.182,-0.802 -1.621,-1.896 0.415,-2.171 0.78,-2.226 2.379,-3.632 z"
     id="path2" />
  <path
     fill="#07161a"
     d="m 96.2236,723.193 c 0.5543,0.127 1.4521,0.262 1.9761,0.539 1.2176,0.643 1.4308,1.001 1.9173,2.195 -0.206,1.467 -0.6055,1.887 -1.5642,2.936 -0.2069,-0.037 -0.4149,-0.068 -0.6207,-0.111 -1.5825,-0.327 -2.488,-0.564 -3.4141,-1.926 0.0966,-1.526 0.8608,-2.43 1.7056,-3.633 z"
     id="path3" />
  <path
     fill="#07161a"
     d="m 120.833,723.347 c 0.471,0.035 1.429,0.037 1.888,0.259 1.3,0.628 1.554,1.172 2.121,2.394 -0.132,1.879 -0.38,2.144 -1.42,3.627 -2.095,-0.766 -3.603,-1.361 -4.614,-3.456 0.373,-1.637 0.787,-1.758 2.025,-2.824 z"
     id="path4" />
  <path
     fill="#07161a"
     d="m 925.601,708.415 c 0.902,0.129 2.095,0.194 2.931,0.534 1.323,0.538 1.452,0.98 1.945,2.192 -0.264,1.62 -0.902,2.413 -1.89,3.648 -0.631,-0.195 -1.285,-0.376 -1.87,-0.692 -1.271,-0.687 -2.092,-1.497 -2.583,-2.867 0.175,-1.535 0.418,-1.645 1.467,-2.815 z"
     id="path5" />
  <path
     fill="#07161a"
     d="m 837.536,715.379 c 1.557,0.074 3.136,0.068 4.434,1.077 1.112,0.864 1.199,1.245 1.399,2.54 -0.473,1.05 -0.984,1.387 -1.926,2.021 -1.043,0.064 -2.167,0.183 -3.208,0.082 -1.312,-0.128 -1.934,-0.517 -2.713,-1.521 -0.028,-1.755 1.031,-2.851 2.014,-4.199 z"
     id="path6" />
  <path
     fill="#07161a"
     d="m 797.834,716.069 c 1.298,-0.23 2.659,-0.039 3.879,0.482 1.238,0.529 1.319,0.771 1.881,1.92 -0.241,1.444 -0.303,1.625 -1.268,2.72 -1.407,0.326 -1.411,0.491 -2.629,-0.24 l -0.276,-1.255 -0.17,-0.345 c -1.109,0.527 -1.111,1.205 -1.573,2.292 l -0.985,-0.027 c -1.236,-0.663 -2.001,-1.036 -2.679,-2.34 l 0.347,-0.853 c 1.077,-0.487 1.911,-0.889 2.785,-1.7 0.232,-0.216 0.459,-0.436 0.688,-0.654 z"
     id="path7" />
  <path
     fill="#07161a"
     d="m 858.326,693.766 c 1.643,0.095 3.366,0.238 4.915,0.838 1.283,0.496 1.729,0.771 2.217,2.047 -0.705,1.364 -1.375,1.564 -2.672,2.339 -0.084,0.105 -0.15,0.228 -0.252,0.315 -0.905,0.776 -1.616,0.954 -2.769,0.949 -0.987,-0.658 -1.341,-0.9 -1.867,-2.013 -0.757,-1.602 -0.163,-2.957 0.428,-4.475 z"
     id="path8" />
  <path
     fill="#07161a"
     d="m 234.996,832.235 c 0.888,0.161 1.97,0.337 2.773,0.76 1.082,0.571 1.817,1.516 1.982,2.744 0.2,1.491 -0.897,2.814 -1.703,3.95 -1.142,0.028 -2.5,0.084 -3.529,-0.516 -0.691,-0.402 -1.204,-0.958 -1.378,-1.732 -0.482,-2.133 0.71,-3.545 1.855,-5.206 z"
     id="path9" />
  <path
     fill="#07161a"
     d="m 152.19,725.581 1.444,-0.281 0.36,0.774 -0.736,1.249 c -1.468,0.717 -2.238,0.079 -3.754,-0.414 l -0.731,0.394 0.465,1.772 -0.399,0.619 -1.288,0.015 c -1.613,-0.869 -3.6,-1.538 -4.523,-3.128 l 0.339,-1.126 c 1.008,-1.007 2.125,-2.052 3.583,-2.34 1.391,-0.275 2.182,0.082 3.37,0.733 0.636,0.759 1.005,1.223 1.87,1.733 z"
     id="path10" />
  <path
     fill="#07161a"
     d="m 114.544,734.556 0.474,-0.075 0.807,1.813 c 0.892,-0.605 0.3,-0.108 1.017,-1.021 0.809,-1.028 1.743,-1.49 3.045,-1.6 0.81,-0.068 1.038,0.275 1.685,0.694 0.412,1.49 0.665,2.869 0.821,4.406 -0.365,0.516 -0.415,0.855 -1.083,0.995 -0.9,0.188 -1.546,0.032 -2.438,-0.088 -1.398,-0.187 -1.791,-0.205 -3.066,0.408 -0.524,0.252 -1.071,0.454 -1.605,0.683 l -0.66,-0.499 -0.089,-1.746 c 0.67,-1.232 0.816,-2.604 1.092,-3.97 z"
     id="path11" />
  <path
     fill="#07161a"
     d="m 828.515,694.882 0.723,0.691 c 1.228,-0.549 2.177,-0.665 3.496,-0.799 0.873,0.359 1.191,0.314 1.717,1.133 l -1.711,0.577 -0.076,0.339 0.766,-0.578 0.453,0.774 -0.16,-0.024 0.959,0.41 c 0.41,1.162 0.417,1.068 -0.108,2.183 -1.132,0.386 -1.076,0.361 -2.179,-0.117 l -1.73,-0.648 c -1.246,0.571 -2.42,1.021 -3.732,1.418 -1.236,-0.34 -1.557,-0.403 -2.463,-1.286 l 0.381,-1.419 c -0.898,-0.079 -0.944,0.002 -1.733,-0.548 l 0.358,-0.957 c 1.653,-0.92 3.178,-0.986 5.039,-1.149 z"
     id="path12" />
  <path
     fill="#07161a"
     d="m 893.031,693.49 c 1.567,0.231 3.29,0.403 4.515,1.525 1.066,0.976 1.118,1.538 1.254,2.871 -0.536,1.619 -1.222,2.293 -2.489,3.409 -1.748,-0.421 -3.883,-0.726 -5.018,-2.268 -0.726,-0.987 -1.087,-1.87 -0.653,-3.081 0.431,-1.202 1.33,-1.869 2.391,-2.456 z"
     id="path13" />
  <path
     fill="#07161a"
     d="m 869.891,705.194 c 0.056,0.006 0.112,0.017 0.169,0.017 3.231,-0.034 6.294,1.084 9.396,0.982 1.177,-0.038 0.89,-0.044 1.729,0.635 0.249,1.246 0.389,1.286 -0.253,2.358 l -0.814,-0.236 c -3.502,-0.688 -7.249,1.189 -10.992,0.189 -1.017,-0.272 -1.175,-0.33 -1.739,-1.24 0.432,-1.413 1.357,-1.905 2.504,-2.705 z"
     id="path14" />
  <path
     fill="#07161a"
     d="m 144.536,732.232 0.647,0.867 1.864,-0.257 c 0.269,1.055 0.327,1.473 -0.002,2.558 -0.501,1.651 -1.305,3.105 -2.799,3.924 l -1.328,-0.678 -0.078,1.378 -0.602,0.054 c -0.744,-0.592 -1.461,-1.086 -2.288,-1.555 -1.184,0.259 -1.845,0.392 -3.014,0.028 0.161,-1.164 1.135,-1.901 1.898,-2.779 l -0.561,-1.497 0.712,-0.615 1.763,1.182 c 1.106,-1.353 2.223,-1.874 3.788,-2.61 z"
     id="path15" />
  <path
     fill="#07161a"
     d="m 844.224,693.711 1.093,0.628 c 0.466,-0.01 0.932,-0.029 1.397,-0.01 1.857,0.077 3.288,1.003 4.499,2.344 l -0.163,1.344 c -0.934,1.179 -1.964,1.801 -3.222,2.571 -0.271,-0.304 -0.732,-0.848 -1.043,-1.085 -1.43,-1.092 -4.608,-0.474 -6.366,-0.414 l -0.487,-0.747 c -0.083,-1.279 -0.129,-1.755 0.688,-2.857 0.959,-1.294 2.13,-1.499 3.604,-1.774 z"
     id="path16" />
  <path
     fill="#07161a"
     d="m 878.559,692.965 c 3.272,0.41 4.905,0.535 7.161,3.144 0.305,1.314 0.35,1.408 -0.161,2.645 -1.27,0.503 -1.651,0.746 -2.981,0.555 l -0.561,1.091 c -1.685,0.078 -2.989,-0.331 -4.508,-1.018 -0.52,-0.639 -1.059,-1.021 -1.133,-1.879 -0.16,-1.841 1.066,-3.231 2.183,-4.538 z"
     id="path17" />
  <path
     fill="#07161a"
     d="m 69.1814,723.478 c 2.1144,-0.08 4.5063,-0.194 5.9977,1.632 0.861,1.054 0.7803,1.367 0.6107,2.612 -0.8034,0.956 -1.5394,1.614 -2.5636,2.328 l -2.4418,1.104 c -1.3324,-0.117 -2.3264,-0.284 -3.278,-1.329 -0.7983,-0.876 -0.8758,-1.978 -0.6773,-3.09 0.2722,-1.524 1.1954,-2.352 2.3523,-3.257 z"
     id="path18" />
  <path
     fill="#07161a"
     d="m 910.639,708.086 c 1.595,-0.173 3.105,-0.449 4.681,-0.024 0.766,0.967 1.339,1.49 2.416,2.095 l 2.01,-1.098 c 0.978,0.558 1.104,0.64 1.632,1.627 -0.391,1.47 -0.859,2.337 -1.716,3.597 -1.382,0.022 -1.678,-0.282 -2.87,-0.923 -1.822,0.443 -3.664,0.598 -5.526,0.792 -1.361,-0.554 -1.299,-0.46 -1.878,-1.806 0.167,-1.577 0.642,-2.802 1.251,-4.26 z"
     id="path19" />
  <path
     fill="#07161a"
     d="m 813.319,714.829 c 0.692,0.703 1.238,1.372 1.755,2.209 l 0.53,0.871 0.914,0.013 0.255,-1.598 0.846,0.014 1.052,1.304 0.717,-0.165 0.182,-1.704 0.646,-0.401 c 0.925,0.529 0.503,0.348 1.593,0.701 0.267,0.087 0.536,0.167 0.804,0.25 -0.599,1.616 -1.35,3.848 -2.794,4.865 l -1.71,-0.683 c -3.266,-1.631 -3.59,-0.413 -6.866,0.158 -1.297,0.227 -2.516,-0.048 -3.562,-0.875 -1.122,-0.887 -1.576,-1.644 -1.702,-3.009 0.807,-1.008 1.012,-1.028 2.256,-1.437 1.384,0.25 1.896,0.886 2.806,1.868 0.488,0.528 0.163,0.369 0.927,0.43 z"
     id="path20" />
  <path
     fill="#07161a"
     d="m 103.672,722.426 c 1.119,-0.022 2.07,0.065 3.169,0.279 0.718,0.995 1.186,1.846 2.425,2.221 0.715,-0.882 1.254,-1.475 2.236,-2.054 l 0.998,0.267 c 0.02,0.164 0.036,0.329 0.06,0.493 0.297,2.082 3.09,3.482 4.705,4.723 -0.716,-1.021 -1.546,-1.939 -2.265,-2.952 -0.636,-0.895 -0.984,-1.295 -0.824,-2.431 l 1.641,-0.489 c 0.991,1.319 1.154,2.081 1.216,3.672 -0.365,0.698 -0.418,1.033 -1.11,1.474 -2.242,1.428 -6.136,1.451 -8.672,0.935 -1.848,-0.376 -3.21,-0.872 -4.22,-2.462 -0.037,-1.474 0.12,-2.296 0.641,-3.676 z"
     id="path21" />
  <path
     fill="#07161a"
     d="m 914.241,695.125 c 2.582,0.342 3.028,0.776 5.092,2.426 0.164,-0.929 0.3,-1.574 0.802,-2.38 1.236,-0.447 2.064,-0.419 3.31,-0.093 1.69,0.442 2.646,1.164 3.584,2.645 0.085,1.494 0.014,1.606 -0.762,2.894 -3.408,0.607 -4.032,-0.036 -6.917,-1.502 q -1.043,1.288 -2.154,2.519 c -0.599,-0.093 -0.992,-0.127 -1.584,-0.348 -1.295,-0.482 -1.745,-1.417 -2.305,-2.57 0.003,-1.402 0.395,-2.335 0.934,-3.591 z"
     id="path22" />
  <path
     fill="#07161a"
     d="m 157.53,729.789 0.321,0.88 c -0.136,0.436 -0.365,1.142 -0.46,1.568 -0.25,1.122 -0.376,1.23 0.287,2.171 l 2.063,-0.281 2.491,2.388 c 0.801,-0.662 0.541,-0.326 1.058,-1.252 0.53,-0.949 0.987,-2.258 1.885,-2.909 0.497,-0.36 0.884,-0.048 1.419,0.105 0.84,0.893 1.088,0.851 1.217,2.126 -0.654,-0.14 -1.162,-0.237 -1.836,-0.233 0.282,0.826 0.14,0.574 0.545,1.23 0.086,0.138 0.177,0.273 0.266,0.409 -0.837,0.283 -1.138,0.339 -1.754,1.005 0.199,0.858 0.376,1.327 0.18,2.202 l -1.746,-0.105 c -0.426,-0.13 -0.895,0.262 -1.287,0.455 -1.518,-0.488 -2.381,-0.08 -3.802,0.443 -0.187,0.069 -0.372,0.141 -0.558,0.212 -0.17,-0.792 -0.39,-1.477 -0.7,-2.225 -1.031,0.01 -0.7,-0.114 -1.535,0.297 -1.335,0.657 -2.182,1.218 -3.728,1.28 l -0.576,-0.635 0.305,-0.757 1.583,0.095 c 0.288,-0.753 -0.769,-1.23 -1.012,-2.216 0.696,-1.123 1.134,-1.652 2.284,-2.33 2.061,-1.213 2.382,-1.761 3.09,-3.923 z"
     id="path23" />
  <path
     fill="#07161a"
     d="m 882.469,254.436 c 0.59,0.001 0.936,-0.011 1.551,0.061 1.737,0.204 3.344,0.866 4.337,2.397 0.693,1.067 1.044,2.099 0.712,3.373 -0.5,1.921 -1.865,2.678 -3.514,3.431 -0.773,0.209 -1.485,0.349 -2.295,0.345 -1.291,-0.005 -2.339,-0.377 -3.159,-1.418 -0.846,-1.075 -0.975,-2.424 -0.769,-3.731 0.345,-2.196 1.451,-3.206 3.137,-4.458 z"
     id="path24" />
  <path
     fill="#07161a"
     d="m 949.553,702.674 c 1.579,-0.185 3.509,-0.368 4.94,0.481 0.94,0.557 1.465,1.561 1.51,2.643 0.053,1.278 -0.853,3.386 -1.718,4.314 -0.935,1 -1.515,0.993 -2.796,1.207 l -0.662,-0.588 c -1.368,0.226 -2.661,0.285 -3.938,-0.386 -1.179,-0.62 -2.001,-1.538 -2.327,-2.858 -0.361,-1.462 0.087,-2.486 0.695,-3.751 1.39,-1.008 2.009,-0.663 3.682,-0.526 z"
     id="path25" />
  <path
     fill="#07161a"
     d="m 113.452,738.526 c -0.704,0.411 -1.413,0.801 -2.135,1.179 -2.304,-0.813 -4.656,0.878 -6.819,0.105 -1.38,-0.493 -3.213,1.095 -5.0777,0.879 -1.1843,-0.855 -1.6113,-1.035 -2.1999,-2.408 0.1349,-1.568 0.3703,-2.179 1.2566,-3.479 1.969,-0.562 0.6328,0.605 2.238,1.097 l 0.752,-1.793 c 1.551,-0.716 2.784,-0.199 4.448,0.066 0.603,0.863 0.458,0.441 0.589,1.529 0.178,1.48 -0.034,0.302 0.266,1.752 1.038,-0.68 1.753,-1.465 2.604,-2.354 0.944,0.077 2.021,0.293 2.904,-0.101 0.783,-0.35 1.415,-0.37 2.266,-0.442 -0.276,1.366 -0.422,2.738 -1.092,3.97 z"
     id="path26" />
  <path
     fill="#07161a"
     d="m 331.355,839.607 c 1.402,-0.072 3.024,-0.225 4.399,0.127 1.518,0.388 3.014,1.617 3.777,2.972 0.699,1.241 0.792,2.637 0.374,3.979 -0.777,2.499 -2.604,3.459 -4.754,4.654 -1.361,0.317 -2.361,0.303 -3.654,-0.238 -1.836,-0.769 -3.226,-2.149 -3.938,-4.014 -0.592,-1.552 -0.617,-3.128 0.122,-4.629 0.831,-1.69 1.956,-2.282 3.674,-2.851 z"
     id="path27" />
  <path
     fill="#07161a"
     d="m 484.483,434.078 c 0.981,-0.066 1.967,-0.153 2.952,-0.14 1.749,0.023 3.431,0.874 4.572,2.205 1.223,1.428 1.663,3.313 1.377,5.152 -0.263,1.693 -1.251,3.502 -2.817,4.328 -1.294,0.682 -2.128,0.278 -3.434,-0.063 l -2.008,-1.77 c -2.073,0.244 -1.949,2.635 -4.004,3.003 -0.909,-0.774 -1.416,-1.542 -1.873,-2.633 -0.863,-2.058 -0.609,-4.214 0.302,-6.209 1.057,-2.317 2.665,-2.956 4.933,-3.873 z"
     id="path28" />
  <path
     fill="#07161a"
     d="m 432.343,344.42 c 1.295,0.044 2.923,-0.034 4.125,0.49 2.074,0.904 2.844,3.713 3.635,5.639 0.822,-1.156 1.73,-2.632 2.808,-3.541 1.061,-0.895 3.479,-1.439 4.866,-1.284 1.232,0.138 2.262,0.528 2.965,1.611 2.52,3.883 -3.016,13.762 -4.259,18.337 -0.808,0.386 -1.287,0.79 -2.213,0.707 -2.563,-0.231 -4.369,-2.857 -5.999,-4.628 -0.897,1.729 -1.588,3.337 -3.165,4.549 -0.701,0.143 -1.204,0.431 -1.875,0.07 -2.364,-1.274 -4.175,-7.47 -5.208,-10.01 4.072,-5.602 1.775,-7.21 4.32,-11.94 z"
     id="path29" />
  <path
     fill="#07161a"
     d="m 254.688,176.668 c 1.803,0.089 3.487,0.396 5.078,1.296 4.922,2.785 6.122,9.08 7.463,14.091 -0.753,2.322 -1.752,4.552 -2.702,6.798 -2.386,1.825 -4.559,2.869 -7.431,3.79 -2.837,-0.094 -5.146,-0.266 -7.467,-2.049 -2.947,-2.263 -4.429,-5.8 -4.899,-9.402 -0.516,-3.944 -0.047,-8.069 2.498,-11.266 1.999,-2.51 4.442,-2.821 7.46,-3.258 z"
     id="path30" />
  <path
     fill="#07161a"
     d="m 335.265,194.838 c 0.064,-0.014 0.126,-0.038 0.191,-0.041 1.987,-0.106 4.693,0.247 6.262,1.571 1.535,1.295 2.257,3.273 2.4,5.227 0.294,4.002 -1.235,7.967 -3.867,10.958 -2.473,2.809 -6.858,5.635 -10.661,5.909 -1.162,0.083 -2.321,0.2 -3.482,0.298 -0.105,0.023 -0.21,0.053 -0.316,0.069 -2.973,0.444 -4.941,-1.227 -7.213,-2.863 -0.772,-2.078 -1.302,-4.279 -1.911,-6.41 1.353,-3.714 2.644,-6.809 5.506,-9.684 3.899,-3.915 7.809,-4.994 13.091,-5.034 z"
     id="path31" />
  <path
     fill="#07161a"
     d="m 433.898,842.809 c 0.69,-0.175 1.227,-0.211 1.935,-0.116 4.762,0.636 8.634,3.211 11.502,6.994 2.871,3.786 4.3,8.37 3.411,13.1 -0.367,1.95 -1.225,3.852 -2.954,4.944 -1.724,1.087 -3.299,1.229 -5.234,0.769 -0.579,0.05 -1.16,0.089 -1.742,0.063 -4.586,-0.213 -10.21,-3.694 -13.122,-7.134 -2.383,-2.816 -4.257,-6.869 -3.883,-10.635 0.27,-2.723 1.808,-5.043 3.942,-6.695 1.185,-0.916 2.1,-1.007 3.523,-0.857 0.869,0.092 1.184,0.169 2.059,-0.156 0.196,-0.073 0.376,-0.185 0.563,-0.277 z"
     id="path32" />
  <path
     fill="#07161a"
     d="m 283.45,156.408 c 1.119,0.193 2.291,0.423 3.346,0.851 2.486,1.008 4.568,3.895 5.6,6.275 2.394,5.526 2.611,13.148 0.231,18.666 -1.928,4.467 -4.531,6.602 -9.004,8.255 -1.123,-0.2 -2.366,-0.378 -3.383,-0.916 -3.397,-1.796 -5.418,-6.195 -6.276,-9.739 -1.363,-5.627 -1.473,-13.516 1.723,-18.488 1.21,-1.882 2.598,-3.13 4.82,-3.572 0.879,-0.174 1.455,-0.334 2.215,-0.833 0.246,-0.161 0.485,-0.332 0.728,-0.499 z"
     id="path33" />
  <path
     fill="#07161a"
     d="m 513.564,815.107 c 2.083,-0.208 4.169,-0.319 6.26,-0.155 q 0.447,0.038 0.888,0.121 0.441,0.083 0.872,0.21 0.43,0.128 0.845,0.298 0.416,0.17 0.812,0.381 0.396,0.211 0.768,0.462 0.373,0.25 0.718,0.537 0.345,0.286 0.66,0.607 0.314,0.32 0.595,0.67 c 2.667,3.379 2.602,8.457 2.014,12.494 -0.95,6.527 -3.758,9.656 -8.835,13.355 -0.636,0.197 -1.274,0.392 -1.925,0.534 -2.219,0.485 -5.142,-0.253 -6.994,-1.535 -5.052,-3.497 -4.701,-9.812 -5.68,-15.116 l -0.087,-0.459 c 2.266,-5.763 3.62,-9.18 9.089,-12.404 z"
     id="path34" />
  <path
     fill="#07161a"
     d="m 702.41,796.534 c 2.027,-0.143 4.23,-0.217 6.191,0.381 2.987,0.911 5.37,3.183 6.754,5.941 2.219,4.424 2.771,10.706 1.115,15.391 -1.415,4.001 -3.837,6.494 -7.573,8.383 -2.19,-0.228 -4.324,0.642 -6.496,0.046 -2.505,-0.689 -4.515,-2.491 -5.781,-4.718 -2.716,-4.78 -2.84,-11.477 -1.244,-16.635 1.329,-4.294 3.077,-6.705 7.034,-8.789 z"
     id="path35" />
  <path
     fill="#07161a"
     d="m 318.786,162.147 c 1.883,-0.059 3.694,-0.002 5.424,0.839 1.826,0.888 3.172,2.391 3.782,4.334 1.414,4.5 -0.474,10.8 -2.548,14.898 -2.823,5.575 -7.049,9.809 -13.035,11.784 -2.355,0.213 -3.965,0.327 -6.037,-1.004 -2.02,-1.296 -3.012,-3.14 -3.39,-5.484 -0.989,-6.136 1.829,-12.341 5.336,-17.213 2.607,-3.623 5.888,-7.383 10.468,-8.154 z"
     id="path36" />
  <path
     fill="#07161a"
     d="m 485.147,797.613 c 1.232,-0.106 2.507,-0.237 3.738,-0.063 2.58,0.365 5.091,2.251 6.603,4.31 3.138,4.274 3.751,11.224 2.748,16.306 -1.209,6.127 -5.001,9.658 -10.014,12.873 -1.722,-0.046 -3.233,-0.607 -4.774,-1.365 -3.609,-1.775 -5.929,-5.275 -7.104,-9.028 -1.657,-5.297 -1.52,-12.194 1.176,-17.14 1.724,-3.163 4.196,-4.938 7.627,-5.893 z"
     id="path37" />
  <path
     fill="#07161a"
     d="m 449.497,808.047 c 1.934,-0.026 3.734,0.515 5.49,1.313 5.508,2.506 9.578,8.04 11.655,13.624 1.359,3.656 2.158,7.599 0.418,11.27 -1.503,3.171 -4.268,4.153 -7.387,5.2 -3.251,0.263 -5.855,-0.239 -8.75,-1.831 q -0.426,-0.234 -0.84,-0.489 -0.413,-0.255 -0.813,-0.53 -0.401,-0.276 -0.786,-0.571 -0.386,-0.296 -0.756,-0.611 -0.37,-0.314 -0.724,-0.647 -0.354,-0.334 -0.69,-0.684 -0.337,-0.351 -0.655,-0.718 -0.318,-0.367 -0.617,-0.75 -0.3,-0.383 -0.579,-0.78 -0.279,-0.398 -0.538,-0.809 -0.259,-0.411 -0.497,-0.835 -0.237,-0.424 -0.453,-0.859 -0.216,-0.436 -0.41,-0.882 -0.193,-0.445 -0.364,-0.9 -0.171,-0.455 -0.318,-0.918 -0.147,-0.463 -0.271,-0.933 c -1.108,-4.308 -1.258,-10.007 1.288,-13.864 1.677,-2.541 3.76,-3.128 6.597,-3.796 z"
     id="path38" />
  <path
     fill="#07161a"
     d="m 790.311,833.193 c 3.093,0.382 6.631,1.277 8.848,3.623 1.444,1.528 1.868,3.378 1.74,5.43 -0.363,5.808 -2.777,11.013 -7.285,14.752 -2.195,1.822 -8.519,5.731 -11.539,5.205 -0.17,-0.029 -0.328,-0.105 -0.491,-0.158 l -0.696,0.524 c -1.272,0.277 -2.357,0.108 -3.581,-0.274 -4.248,-1.326 -6.287,-3.73 -8.258,-7.606 0.31,-4.933 1.409,-9.19 4.519,-13.156 4.184,-5.337 10.213,-7.65 16.743,-8.34 z"
     id="path39" />
  <path
     fill="#07161a"
     d="m 743.096,776.064 c 1.243,-0.132 2.737,-0.278 3.929,0.171 2.389,0.899 4.314,3.043 5.307,5.347 2.633,6.107 0.901,13.998 -1.562,19.94 -2.503,6.039 -5.71,8.946 -11.578,11.317 -1.817,0.331 -3.229,0.275 -5.013,-0.252 -2.32,-0.685 -3.997,-1.754 -5.062,-3.988 -2.462,-5.168 -0.996,-12.38 0.943,-17.563 2.549,-6.812 6.334,-11.864 13.036,-14.972 z"
     id="path40" />
  <path
     fill="#07161a"
     d="m 780.112,795.338 c 0.925,-0.03 2.067,0.215 2.938,0.517 2.803,0.97 4.493,4.483 5.8,6.934 -0.429,7.668 -5.416,16.101 -11.186,21.13 -3.382,2.948 -7.376,4.711 -11.9,4.444 l -0.257,-0.637 -0.998,0.634 c -1.308,0.045 -2.64,-0.599 -3.66,-1.392 -2.152,-1.672 -3.166,-4.993 -3.422,-7.606 -0.563,-5.742 2.083,-11.317 5.752,-15.571 4.65,-5.391 9.936,-7.921 16.933,-8.453 z"
     id="path41" />
  <path
     fill="#07161a"
     d="m 287.613,199.595 c 5.312,-0.687 10.088,0.278 14.335,3.681 8.204,6.577 12.587,22.018 13.463,32.032 0.512,5.856 -0.774,9.345 -4.452,13.772 -2.638,1.069 -5.288,1.733 -8.046,2.407 -5.739,-2.012 -8.963,-3.947 -12.796,-8.724 -2.57,-3.106 -4.801,-5.182 -8.509,-6.973 -5.57,0.842 -11.182,0.301 -16.708,1.49 -1.543,-0.609 -3.103,-1.212 -4.597,-1.935 -4.235,-2.051 -5.646,-4.635 -7.07,-8.938 0.498,-2.209 0.899,-4.641 2.121,-6.581 5.198,-8.25 22.788,-18.205 32.259,-20.231 z"
     id="path42" />
  <path
     fill="#07161a"
     d="m 484.206,839.133 c 2.187,1.012 5.049,0.939 7.431,1.772 9.763,3.414 23.192,10.138 29.618,18.416 3.79,4.882 3.127,9.316 2.365,15.033 -0.717,0.913 -1.425,1.836 -2.193,2.707 -7.812,8.861 -21.816,3.203 -32.047,4.016 l -0.785,0.068 c -0.951,1.37 -1.818,2.81 -2.711,4.219 -2.206,3.89 -4.539,7.365 -8.191,10.048 -2.735,2.01 -6.011,3.451 -9.454,2.858 -2.713,-0.467 -6.622,-0.67 -8.918,-2.232 -2.229,-1.518 -3.294,-3.642 -3.719,-6.264 -1.66,-10.233 5.506,-32.977 11.804,-41.17 4.535,-5.899 9.557,-8.484 16.8,-9.471 z"
     id="path43" />
  <path
     fill="#07161a"
     d="m 736.794,824.813 c 0.803,-0.419 2.648,-0.115 3.557,-0.036 5.76,0.497 10.724,2.943 14.367,7.48 7.686,9.57 7.824,25.371 6.67,36.958 -0.584,5.862 -2.297,13.206 -7.18,16.979 -2.02,1.561 -7.802,1.611 -10.347,1.236 -5.485,-0.809 -8.879,-5.077 -11.853,-9.333 -1.135,-1.736 -1.91,-3.403 -2.636,-5.344 -10.039,-7.331 -20.725,-1.312 -28.596,-7.829 -2.382,-1.972 -3.605,-4.765 -3.9,-7.799 -0.384,-3.951 0.593,-9.23 3.23,-12.324 5.313,-6.235 25.892,-19.452 33.727,-19.604 0.79,-0.016 1.245,-0.015 2.015,-0.178 z"
     id="path44" />
  <path
     fill="#07161a"
     d="m 309.414,335.605 c 5.538,-6.858 27.974,-37.366 35.038,-38.185 2.653,-0.307 5.422,0.405 7.487,2.129 0.898,0.75 1.606,1.583 2.081,2.657 3.584,8.088 5.338,17.387 7.912,25.87 7.404,24.395 15.06,49.234 20.492,74.152 6.103,-1.042 23.916,-6.102 29.045,-2.689 0.648,0.431 1.056,1.007 1.495,1.632 0.194,1.366 0.311,1.904 -0.56,3.117 -0.649,0.903 -1.66,1.549 -2.692,1.922 -3.65,1.318 -21.455,4.44 -25.654,4.777 -0.182,4.077 -0.636,8.035 -1.306,12.06 6.794,0.253 30.486,-1.145 34.966,3.346 0.827,0.829 0.658,1.456 0.611,2.513 -0.971,1.806 -2.042,2.626 -4.03,3.162 -7.781,2.099 -27.781,-1.986 -33.272,2.079 -0.344,0.859 -0.489,0.822 -0.226,1.756 0.078,0.276 0.146,0.554 0.224,0.83 0.05,0.178 0.133,0.349 0.161,0.533 0.354,2.331 -2.747,4.484 -0.64,6.686 6.676,1.851 19.318,4.099 24.924,6.395 1.533,0.628 3.526,2.025 4.302,3.534 0.639,1.243 0.823,2.195 0.273,3.507 -0.469,1.119 -1.534,1.764 -2.662,2.101 -3.462,1.035 -22.701,-7.199 -30.524,-6.057 -2.301,3.494 -3.84,7.708 -5.501,11.548 -0.67,1.549 -1.308,1.999 -2.689,2.897 -1.962,1.274 -4.171,6.359 -5.785,8.49 -6.911,9.123 -17.138,17.283 -27.524,22.036 2.778,9.754 3.982,35.501 4.205,46.538 0.075,3.748 -0.709,8.15 -0.272,11.777 0.128,1.066 0.64,2.104 1.154,3.03 -0.149,1.013 -0.393,1.669 -0.834,2.57 -0.501,1.021 -0.787,1.74 -0.484,2.911 0.264,1.019 0.878,2.097 1.339,3.047 -0.147,2.41 -1.113,4.81 -1.141,7.152 -0.032,2.73 0.568,5.567 0.637,8.327 0.088,3.569 -0.242,42.283 -0.779,43.415 -0.143,0.304 -0.368,0.574 -0.626,0.789 -0.201,0.167 -1.204,0.545 -1.472,0.651 l -0.034,1.018 c 1.156,1.143 2.066,1.544 2.158,3.205 -0.858,0.491 -0.988,0.482 -1.928,0.474 -0.28,1.193 -0.544,1.775 0.007,2.947 0.238,0.507 0.895,1.164 1.239,1.569 0.104,2.338 -1.076,4.414 -0.918,6.676 0.16,2.3 0.772,4.614 0.999,6.931 0.966,9.867 2.467,23.48 2.465,33.2 0.812,1.336 2.394,1.413 3.449,2.67 5.76,6.86 10.362,16.751 7.964,25.862 -1.643,6.246 -5.196,11.889 -10.921,15.114 -4.244,2.39 -8.902,2.868 -13.413,4.47 -7.56,2.686 -6.022,4.628 -15.905,5.576 -1.551,0.149 -3.862,0.67 -5.371,0.451 -0.229,-0.033 -0.439,-0.145 -0.658,-0.218 l -0.085,-0.725 -0.87,-0.246 c -2.935,-0.843 -5.584,-1.784 -8.312,-3.158 -2.284,-1.281 -6.169,-4.116 -8.922,-3.497 -0.438,0.098 -0.478,0.133 -0.634,0.548 -0.589,1.572 0.433,3.284 -0.286,4.889 -1.066,2.383 -4.784,2.703 -6.018,4.902 l 0.603,0.56 c 1.093,-0.372 1.858,-0.858 2.797,-1.524 0.731,0.908 1.44,1.785 2.262,2.613 l 1.208,-0.16 c -0.874,-1.452 -1.181,-1.727 -1.117,-3.471 0.874,-1.449 1.647,-2.223 3.004,-3.225 l 0.602,-0.09 c -0.242,1.194 -0.826,2.178 -1.394,3.241 l 0.964,0.848 c -0.148,0.746 -0.448,1.532 -0.784,2.22 -0.467,0.957 -0.674,1.502 -1.73,1.859 -0.817,-0.362 -1.485,-0.755 -2.195,-1.29 l -0.773,-0.589 c -6.548,3.071 -16.928,3.332 -23.773,1.143 -2.188,-0.699 -4.435,-2.323 -6.677,-2.602 0.35,0.959 0.656,1.685 0.588,2.717 -0.336,0.007 -0.675,0.058 -1.01,0.022 -2.779,-0.302 -2.552,-5.183 -3.962,-7.29 -0.818,-1.223 -1.889,-2.06 -3.361,-2.331 -1.082,-0.199 -0.624,-0.26 -1.562,0.413 -0.426,2.069 0.907,3.912 0.798,6.006 -1.426,-0.704 -2.49,-2.024 -3.591,-3.146 -11.266,5.971 -19.763,6.214 -32.248,5.029 -2.038,-0.193 -3.351,0.457 -5.154,1.321 -2.617,1.255 -2.087,-1.203 -3.692,-2.119 -1.124,-0.641 -1.694,0.379 -2.701,0.648 -1.412,0.378 -1.533,-0.984 -2.445,-1.486 -0.416,-0.229 -2.678,0.688 -3.221,0.691 -1.11,0.005 -1.785,-2.104 -3.681,-2.721 -8.761,2.684 -4.316,-2.361 -11.488,-3.709 0.697,1.321 1.914,2.246 2.017,3.726 l -0.731,0.675 c -2.205,0.603 -4.009,0.491 -6.256,0.323 0.96,-1.311 1.923,-2.38 2.086,-4.057 -1.421,-6.604 -8.242,-3.865 -11.815,-5.435 -0.995,-0.436 -6.472,-5.866 -7.88,-7.007 -0.836,0.871 -1.71,1.686 -2.591,2.51 -0.865,-0.51 -1.234,-0.974 -1.87,-1.733 1.14,-0.469 2.303,-1.039 2.781,-2.169 -4.731,-4.904 -13.435,-8.311 -19.13,-12.364 -14.591,-10.384 -29.554,-24.838 -39.7306,-39.575 -3.956,-5.729 -7.2276,-11.885 -10.5245,-18.006 -2.5728,-4.776 -5.2143,-9.508 -7.2214,-14.558 -1.7679,-4.448 -2.778,-9.088 -4.2165,-13.637 -3.023,-9.559 -5.6245,-18.763 -7.289,-28.676 -3.7097,-22.094 -7.7522,-72.334 -1.8742,-92.906 2.1111,-7.389 6.1983,-14.007 10.6274,-20.218 3.0807,-1.158 6.4769,-3.169 9.7131,-3.626 4.1312,-0.582 8.5324,1.399 11.6427,3.989 3.411,2.841 8.982,10.433 9.398,14.977 l -0.517,0.138 c -0.264,0.615 3.37,10.561 3.591,12.541 -1.003,0.397 -0.619,0.073 -1.18,0.938 0.576,1.134 0.942,1.864 1.047,3.157 -0.508,0.948 -0.826,1.504 -0.987,2.583 l 1.201,0.77 c 1.4,2.888 -1.36,8.791 -1.193,12.178 0.414,8.389 -0.412,16.735 -0.043,25.14 l -1.152,1.027 c 0.557,5.509 0.117,11.085 0.46,16.609 0.348,5.593 1.54,11.138 2.204,16.699 0.232,1.94 -0.201,4.802 0.29,6.553 0.11,0.391 1.428,1.587 1.769,1.966 0.482,1.486 -0.052,2.717 -0.457,4.163 l -0.208,0.725 c 4.58,16.741 9.362,32.866 18.84,47.623 2.282,3.554 4.991,6.892 7.452,10.331 1.801,-5.596 1.942,-12.141 2.856,-17.978 1.745,-11.149 3.849,-22.506 6.37,-33.502 6.073,-26.49 18.635,-56.083 31.522,-80.055 2.177,-4.051 5.192,-7.62 7.413,-11.677 5.185,-9.473 9.593,-19.275 15.443,-28.386 -4.85,-4.314 -9.084,-7.653 -12.627,-13.234 -5.999,1.789 -17.598,10.263 -20.774,10.922 -1.334,0.277 -3.264,-0.677 -4.16,-1.667 -0.788,-0.87 -0.747,-1.823 -0.459,-2.889 1.315,-4.873 15.547,-11.978 19.866,-13.891 -2.806,-5.333 -5.786,-10.459 -7.99,-16.086 -5.864,1.567 -26.813,6.112 -31.419,3.024 -1.138,-0.763 -1.132,-1.421 -1.365,-2.655 2.577,-7.589 26.798,-5.869 30.617,-8.959 0.166,-5.261 -1.789,-10.19 -1.332,-15.585 -5.979,-1.117 -21.232,-1.26 -25.7,-3.501 -1.61,-0.807 -1.962,-2.313 -2.266,-3.917 0.516,-1.37 0.611,-1.788 1.918,-2.589 4.386,-2.688 20.681,-0.301 25.707,1.018 0.271,-4.447 0.211,-8.902 0.565,-13.341 2.06,-25.883 6.579,-52.776 13.749,-77.712 0.657,-3.002 1.514,-5.914 2.402,-8.853 1.491,-3.997 3.473,-11.869 7.676,-13.67 2.129,-0.912 4.283,-0.247 6.283,0.687 7.985,3.729 31.961,27.558 36.71,35.352 15.078,-6.651 34.647,-9.256 51.032,-8.409 7.143,0.369 14.714,1.689 21.764,2.938 z"
     id="path45" />
  <path
     fill="#1c2c2f"
     d="m 183.547,327.56 c 0.657,-3.002 1.514,-5.914 2.402,-8.853 1.014,2.537 1.885,5.233 0.93,7.899 -1.21,1.16 -1.7,0.901 -3.332,0.954 z"
     id="path46" />
  <path
     fill="#ebece9"
     d="m 135.749,684.822 c 0.679,0.677 1.008,1.054 1.321,1.958 0.821,2.37 0.835,6.084 -0.338,8.31 l -0.562,-0.565 -4.917,-3.495 c 1.38,-2.228 2.724,-4.255 4.496,-6.208 z"
     id="path47" />
  <path
     fill="#ebece9"
     d="m 327.994,693.704 c 2.58,0.515 5.538,1.396 7.623,3.046 3.116,2.464 5.494,6.257 5.826,10.275 0.274,3.322 -0.139,5.751 -2.318,8.288 -1.275,0.942 -2.375,1.817 -3.916,2.29 l 0.342,-1.319 -0.313,0.459 c 1.294,-13.22 -4.061,-12.673 -7.244,-23.039 z"
     id="path48" />
  <path
     fill="#ebece9"
     d="m 84.7651,489.889 0.7004,0.119 c 0.1931,0.195 0.362,0.417 0.5793,0.585 3.4364,2.653 6.601,7.331 7.5275,11.697 0.2977,1.403 0.3033,3.03 -0.6658,4.193 -1.0282,1.234 -2.5286,1.543 -4.0347,1.633 -2.5606,0.155 -5.0048,0.584 -7.5809,0.486 l -0.0482,-0.53 c -1.3581,-0.065 -2.7061,0.048 -4.0634,0.05 -1.7891,0.002 -2.529,-0.074 -3.8129,-1.338 -0.0766,-0.57 -0.1613,-0.964 -0.0765,-1.564 0.7325,-5.18 7.3742,-12.51 11.4752,-15.331 z"
     id="path49" />
  <path
     fill="#ebece9"
     d="m 110.843,646.311 0.659,0.681 q 0.661,-0.146 1.319,-0.304 c 3.978,3.53 7.138,9.156 10.433,13.425 -0.086,0.254 -0.217,0.497 -0.259,0.762 -0.045,0.28 -0.124,0.597 0.003,0.851 0.68,1.358 6.112,5.176 7.752,7.559 -2.518,3.11 -5.906,7.638 -6.16,11.711 -0.046,0.731 -0.17,1.427 -0.302,2.146 l -0.673,-0.625 q -2.08,-1.112 -3.95,-2.551 c -5.244,-3.974 -17.935,-16.967 -18.514,-23.706 -0.11,-1.284 0.17,-2.233 1.043,-3.171 0.537,0.109 1.112,0.254 1.665,0.23 2.84,-0.123 5.498,-4.924 6.984,-7.008 z"
     id="path50" />
  <path
     fill="#ebece9"
     d="m 97.4286,604.647 c 2.2157,2.92 9.2774,25.04 8.9534,28.434 -0.163,1.702 -3.049,3.607 -4.327,4.624 -2.2882,1.822 -7.077,5.888 -10.0544,5.562 l -1.0523,-1.543 c -0.6352,-2.121 -1.0969,-4.469 -2.4504,-6.253 -0.9204,-0.251 -1.6092,-0.405 -2.4206,-0.924 0.3099,-0.835 0.8402,-2.07 0.7255,-2.978 -0.3224,-2.554 -2.7799,-6.995 -3.7443,-9.589 -1.3353,-3.591 -2.4571,-7.199 -3.4732,-10.892 5.9236,-1.289 12.9345,-2.881 17.8433,-6.441 z"
     id="path51" />
  <path
     fill="#ebece9"
     d="m 92.7763,561.14 c 0.7099,1.471 1.3122,2.942 1.6469,4.547 0.9137,4.381 2.0606,22.447 1.4146,26.577 -3.2603,3.355 -12.9131,2.368 -17.1357,3.57 -0.6239,0.177 -1.199,0.294 -1.842,0.394 l -1.1479,-1.012 c -0.8134,-5.611 -1.6726,-11.256 -2.2058,-16.901 -0.1963,-2.077 0.3376,-4.721 -0.2546,-6.642 -0.3706,-1.202 -1.0674,-2.625 -0.9658,-3.901 0.1208,-1.517 0.8619,-1.718 1.9639,-2.579 0.8551,0.352 0.6066,0.216 1.2913,0.6 0.1386,0.078 0.275,0.159 0.4125,0.239 l 1.4837,-0.972 c 5.8991,0.277 9.6992,-0.182 14.7839,-3.548 z"
     id="path52" />
  <path
     fill="#ebece9"
     d="m 90.6642,519.348 c 1.151,-0.012 2.2534,-0.13 3.3954,-0.26 1.0585,0.807 1.1673,1.455 1.376,2.723 0.8031,4.88 -0.1649,10.472 -0.1991,15.43 -0.0209,3.023 0.6485,6.082 0.3812,9.106 -0.1122,1.27 -0.3542,2.16 -1.1428,3.192 -3.3924,1.647 -19.1962,1.832 -22.9114,0.562 l -0.4752,-1.263 c 0.0815,-1.583 2.0393,-5.919 1.6794,-6.777 -0.4206,-1.002 -2.0374,-1.29 -1.7646,-2.772 0.2854,-1.551 1.6856,-2.453 1.5853,-4.283 -0.6562,-0.532 -1.0291,-0.748 -1.374,-1.538 0.8764,-0.49 1.1175,-0.589 1.6626,-1.472 -0.458,-0.569 -0.8325,-1.1 -1.2325,-1.72 0.4641,-1.406 0.8702,-2.784 1.1969,-4.229 -0.557,-0.463 -0.8447,-0.764 -1.2808,-1.37 l 0.5961,-0.914 c 3.2122,-1.529 7.5481,-1.032 11.084,-1.766 l 0.8259,-0.178 c 2.286,-0.471 4.1415,-0.877 6.1503,-2.171 0.151,-0.097 0.2982,-0.2 0.4473,-0.3 z"
     id="path53" />
  <path
     fill="#ebece9"
     d="m 342.554,323.077 c 2.477,2.825 3.358,10.357 4.668,14.049 l 24.302,68.367 c -7.307,2.606 -19.153,7.021 -24.204,12.952 -0.996,1.17 -1.151,2.01 -1.028,3.501 0.711,1.09 1.318,1.708 2.469,2.289 0.528,0.267 1.357,0.541 1.954,0.46 1.812,-0.245 16.821,-8.592 21.25,-10.225 q -0.158,5.254 -0.461,10.502 c -3.484,-0.476 -7.653,0.06 -11.127,0.604 -3.275,0.513 -7.247,1.486 -9.305,4.265 -0.218,1.464 -0.304,2.059 0.354,3.453 3.981,3.603 12.392,-0.538 17.332,0.258 l 0.408,0.646 c -0.096,2.448 -1.181,4.89 -1.961,7.198 -4.586,-1.858 -8.855,-2.671 -13.749,-3.328 -1.501,0.608 -3.36,1.45 -4.503,2.624 -1.022,1.05 -0.945,1.418 -0.93,2.779 2.859,4.361 11.585,4.786 16.38,5.964 -3.645,9.867 -8.984,17.457 -15.834,25.389 -1.66,1.923 -3.401,4.287 -5.362,5.871 -1.504,1.214 -3.559,1.376 -5.12,2.599 -3.182,2.493 -5.94,5.566 -9.614,7.37 l -1.235,-0.78 c -1.94,0.247 -4.421,2.639 -6.242,3.664 -4.543,-1.086 -6.383,2.049 -10.263,3.519 -1.697,0.643 -2.025,0.135 -3.516,-0.632 l -0.764,0.445 c 0.371,0.814 0.434,0.964 0.378,1.9 -3.126,1.475 -7.7,-1.604 -10.865,0.505 -0.83,0.553 -1.646,1.175 -2.473,1.742 -2.402,0.328 -3.968,-0.718 -6.217,-0.778 -4.46,-0.119 -5.903,2.58 -10.758,0.54 -2.429,-1.021 -2.099,1.331 -3.681,1.996 -1.534,0.646 -5.814,-2.492 -7.571,-2.497 -1.717,-0.004 -4.55,1.507 -6.5,1.783 -0.625,-0.48 -1.714,-1.472 -2.477,-1.653 -2.122,-0.504 -5.179,0.559 -7.523,0.305 -4.714,-0.512 -9.319,-4.04 -14.063,-3.548 -1.217,0.126 -1.233,0.309 -2.461,-0.104 -0.361,-0.757 -0.756,-1.817 -1.296,-2.448 -1.411,-1.648 -3.76,-1.233 -5.712,-1.741 -6.184,-1.608 -24.287,-16.601 -27.949,-22.157 3.816,-1.403 7.367,-3.513 11.06,-5.214 5.523,-2.546 11.578,-4.587 16.693,-7.911 1.352,-0.879 2.211,-1.696 3.121,-3.022 0.116,-0.804 0.379,-1.296 -0.061,-2.041 -0.621,-1.054 -2.134,-2.092 -3.357,-2.309 -4.822,-0.857 -27.424,9.745 -32.769,12.321 -3.183,-3.702 -4.745,-7.689 -6.507,-12.173 l 8.454,-1.027 c 7.003,-1.508 22.507,0.332 27.437,-4.263 1.206,-1.124 1.414,-2.151 1.395,-3.732 -0.477,-0.838 -0.783,-1.237 -1.626,-1.76 -2.724,-1.689 -34.444,1.62 -38.495,2.957 -0.4,-4.767 -1.128,-9.483 -1.377,-14.263 8.736,0.015 36.19,6.736 40.444,5.592 1.536,-0.412 2.77,-0.899 3.618,-2.308 -0.168,-1.383 -0.412,-1.983 -1.497,-2.916 -2.765,-2.379 -7.402,-3.605 -10.982,-3.289 -0.153,0.014 -0.305,0.032 -0.458,0.048 -6.239,-3.923 -22.422,-4.343 -30.232,-6.171 -0.866,-0.906 -0.718,-1.969 -0.662,-3.175 0.334,-7.18 5.901,-38.718 10.469,-42.936 1.599,-1.477 2.207,-2.337 2.378,-4.598 -0.703,0.004 -1.37,-0.031 -2.069,-0.109 -0.37,-1.253 0.105,-2.33 0.629,-3.475 1.705,-3.725 1.855,-7.205 2.59,-11.195 1.286,-6.979 2.679,-14.563 5.079,-21.237 4.959,6.514 11.137,12.142 16.761,18.076 2.586,2.728 4.826,5.764 7.58,8.325 4.41,-2.168 8.798,-4.434 13.308,-6.388 2.234,3.978 3.468,8.377 5.191,12.585 1.312,3.207 4.01,8.228 7.58,9.316 1.16,0.353 2.376,0.386 3.404,-0.325 8.902,-6.153 -4.563,-20.494 -3.035,-26.66 4.012,0.11 7.028,-1.313 10.706,-2.736 2.566,6.99 5.227,22.755 10.088,27.604 1.036,1.034 1.918,1.293 3.371,1.333 1.626,-0.542 2.775,-1.31 3.728,-2.777 3.928,-6.051 -1.576,-20.443 -3.13,-27.162 l 10.673,-0.229 c 1.472,5.439 3.695,22.475 7.016,25.762 1.099,1.087 1.425,1.087 2.889,1.203 1.507,-0.674 2.442,-1.42 3.362,-2.817 1.938,-2.947 2.515,-7.123 1.866,-10.543 -0.774,-4.077 -1.195,-8.174 -2.048,-12.256 2.274,0.306 4.756,0.516 6.945,1.206 2.896,0.914 10.773,5.79 13.272,5.537 4.035,-0.409 19.779,-24.651 22.467,-28.496 z"
     id="path54" />
  <path
     fill="#07161a"
     d="m 213.085,355.066 c 0.721,0.46 0.594,0.635 0.825,1.422 -0.809,2.782 -2.848,5.441 -4.702,7.626 l -0.511,-0.277 0.23,-1.301 -0.585,-0.248 -1.516,0.933 c -0.416,-1.542 -0.296,-2.434 0.518,-3.834 1.657,-2.85 2.587,-3.479 5.741,-4.321 z"
     id="path55" />
  <path
     fill="#07161a"
     d="m 335.359,345.06 c 1.02,-0.085 2.379,-0.247 3.345,0.179 1.249,0.55 1.457,1.267 1.935,2.42 -0.123,1.81 -0.469,2.518 -1.595,3.928 -1.183,0.105 -2.439,0.214 -3.522,-0.409 -1.032,-0.593 -1.607,-1.433 -1.705,-2.625 -0.119,-1.435 0.739,-2.439 1.542,-3.493 z"
     id="path56" />
  <path
     fill="#07161a"
     d="m 240.563,403.969 c 0.85,-0.022 1.73,0.029 2.564,0.201 2.266,0.465 4.258,2.16 5.431,4.104 1.583,2.626 1.816,5.81 0.984,8.726 -0.942,3.302 -3.066,4.786 -5.989,6.31 -0.988,0.036 -1.771,0.022 -2.735,-0.259 -3.363,-0.979 -5.181,-5.863 -6.536,-8.743 1.23,-4.712 1.858,-7.691 6.281,-10.339 z"
     id="path57" />
  <path
     fill="#07161a"
     d="m 327.488,396.943 q 0.618,0.007 1.235,0.039 c 2.748,0.154 5.165,1.45 6.918,3.59 1.742,2.127 2.426,4.942 2.116,7.65 -0.432,3.766 -2.505,5.852 -5.403,8.059 -0.67,0.13 -1.315,0.206 -2,0.169 -1.943,-0.106 -4.016,-1.108 -5.304,-2.564 -2.17,-2.45 -2.708,-6.159 -2.32,-9.306 0.454,-3.675 1.925,-5.415 4.758,-7.637 z"
     id="path58" />
  <path
     fill="#ebece9"
     d="m 236.513,429.023 c 2.476,-0.076 4.716,0.073 6.912,1.343 3.566,2.063 4.708,5.912 5.8,9.602 q -0.23,1.135 -0.492,2.263 c -0.923,3.933 -2.4,5.584 -5.808,7.713 -2.58,0.208 -5.377,0.333 -7.662,-1.098 -3.882,-2.431 -4.443,-7.934 -5.221,-12.046 1.737,-3.444 3.172,-5.589 6.471,-7.777 z"
     id="path59" />
  <path
     fill="#ebece9"
     d="m 335.706,421.414 c 0.296,0.011 0.592,0.012 0.887,0.031 2.514,0.169 5.18,3.209 6.772,5.06 1.688,1.962 4.315,5.434 3.776,8.234 -0.653,3.389 -4.932,6.176 -7.573,8.079 -2.06,0.601 -3.574,0.946 -5.652,0.089 -2.321,-0.957 -3.965,-2.755 -4.917,-5.056 q -0.25,-0.608 -0.438,-1.237 -0.189,-0.629 -0.315,-1.274 -0.126,-0.645 -0.188,-1.299 -0.062,-0.654 -0.06,-1.311 0.002,-0.657 0.069,-1.311 0.067,-0.654 0.198,-1.297 0.131,-0.644 0.324,-1.272 0.194,-0.628 0.448,-1.234 c 1.362,-3.294 3.487,-4.838 6.669,-6.202 z"
     id="path60" />
  <path
     fill="#07161a"
     d="m 291.071,406.766 c 3.048,0.065 6.522,0.082 9.013,2.123 1.331,1.091 2.051,2.552 2.119,4.269 0.226,5.692 -4.444,10.802 -8.148,14.583 0.527,1.588 1.061,3.292 1.869,4.758 1.152,2.089 3.683,4.943 6.141,5.41 7.649,1.452 5.163,-10.488 8.097,-12.163 0.594,-0.339 1.557,-0.622 2.243,-0.476 1.325,0.281 2.254,1.196 2.958,2.308 1.634,2.58 1.773,6.003 0.966,8.884 -1.048,3.742 -3.556,6.305 -6.932,8.086 -9.984,5.266 -12.277,-1.109 -19.135,-3.223 l -1.306,0.989 c -1.212,1.322 -2.495,2.698 -3.954,3.75 -2.805,2.021 -6.665,2.301 -9.966,1.636 -3.945,-0.794 -7.236,-3.211 -9.411,-6.564 -1.83,-2.822 -3.137,-6.454 -2.178,-9.823 0.436,-1.531 1.171,-2.188 2.525,-2.923 4.809,0.039 4.9,5.993 7.325,8.595 0.981,1.052 2.873,1.847 4.147,2.505 1.786,-0.526 3.655,-0.964 5.146,-2.139 2.925,-2.306 2.854,-6.368 3.179,-9.753 -2.339,-2.088 -4.963,-4.183 -7.053,-6.513 -1.69,-1.883 -3.253,-4.208 -3.034,-6.856 0.227,-2.752 2.012,-4.252 3.928,-6.024 3.841,-0.721 7.559,-1.206 11.461,-1.439 z"
     id="path61" />
  <path
     fill="#ebece9"
     d="m 209.179,495.832 0.272,0.288 c 0.153,0.159 0.31,0.313 0.459,0.474 6.337,6.89 18.777,12.055 27.816,13.943 4.961,1.037 10.1,1.441 14.937,2.987 1.211,0.388 3.136,-0.635 4.585,-0.639 0.928,0.664 1.774,1.374 2.923,1.59 1.244,0.234 2.258,-1.052 3.393,-1.163 2.269,-0.22 4.862,1.459 7.281,1.271 0.896,-0.07 0.987,-0.572 1.504,-1.224 2.037,-0.143 4.025,-0.168 6.066,-0.107 1.051,0.772 1.66,1.32 2.971,1.594 0.544,-0.611 1.312,-1.625 2.114,-1.87 1.582,-0.483 4.21,0.27 6.029,-0.017 6.749,-1.063 13.663,-2.699 20.216,-4.628 0.509,0.41 0.994,0.818 1.481,1.252 3.977,-1.03 7.446,-3.822 11.57,-4.944 l 0.706,-0.186 c 6.185,27.829 4.479,67.536 3.067,96.296 -0.65,13.247 -1.134,26.505 -2.595,39.696 -1.994,18.006 -6.466,36.715 -5.521,54.877 0.326,6.278 3.938,11.294 5.897,17.09 0.855,2.526 1.218,5.146 1.592,7.776 -1.987,-2.17 -3.238,-4.596 -5.922,-6.058 -1.942,-1.057 -3.796,-1.798 -5.946,-1.147 l -0.492,1.17 c 0.699,3.939 3.617,6.281 6.277,9.057 l -4.848,2.357 q -2.95,-0.227 -5.903,-0.398 c -1.718,-0.095 -3.513,-0.12 -5.008,-1.105 -0.429,-0.282 -1.212,-0.951 -1.475,-1.356 -3.446,-5.314 -0.521,-72.639 0.017,-84.189 0.251,-5.383 1.89,-16.273 0.589,-21.13 -0.397,-1.484 -1.859,-3.282 -3.314,-3.869 -0.762,-0.306 -1.456,-0.564 -2.228,-0.213 -2.224,1.013 -3.029,4.465 -3.5,6.626 -2.401,11.01 -2.003,30.821 -2.323,42.533 -0.051,1.843 -0.456,3.629 -0.564,5.464 -0.319,5.377 -0.149,10.828 -0.316,16.219 -0.166,5.364 -0.673,10.773 -0.749,16.124 -0.098,6.903 1.815,16.144 -0.334,22.65 l -0.944,0.434 c -3.677,-1.288 -2.077,-5.188 -3.615,-8.044 -1.323,-2.457 0.899,-2.774 0.285,-4.933 q -1.618,-0.611 -3.208,-1.291 l -0.417,-1.09 c 0.195,-1.539 0.619,-2.23 1.564,-3.459 0.103,-0.135 0.21,-0.267 0.315,-0.401 -0.392,-1.267 -0.92,-1.677 -1.814,-2.609 -0.922,-0.959 -0.465,-3.507 -0.412,-4.867 0.12,-3.067 0.667,-6.946 0.05,-9.941 -0.407,-1.974 -1.72,-4.194 -1.779,-6.172 -0.072,-2.426 1.242,-4.828 1.209,-7.318 -0.054,-4.036 -0.723,-8.168 -0.915,-12.227 -0.349,-7.391 0.209,-15.677 -1.572,-22.879 l -0.212,-0.827 c 1.435,-2.25 0.19,-17.383 -0.138,-20.773 -0.589,-1.005 -1.544,-1.683 -2.612,-2.131 -1.529,-0.641 -3.514,-0.74 -4.957,0.158 -1.233,0.768 -1.677,1.952 -1.893,3.317 -1.559,9.886 -0.354,24.157 -0.109,34.46 0.282,11.823 0.741,23.545 1.245,35.358 0.22,5.17 0.193,10.465 0.673,15.61 0.638,6.831 4.834,16.961 3.568,23.349 -0.397,2.002 -0.808,3.97 -2.547,5.114 -1.438,-0.012 -2.601,-0.065 -3.869,0.702 -0.062,0.038 -0.803,0.514 -0.904,0.549 -0.685,0.242 -1.094,0.285 -1.697,-0.087 -3.628,-2.242 -10.706,-8.783 -11.838,-12.901 l 0.68,-0.275 c 0.388,-0.842 0.33,-0.362 -0.119,-1.44 -1.289,-3.093 -2.93,-6.405 -3.816,-9.624 -0.628,-2.282 0.068,-5.53 -0.292,-8.088 -0.569,-4.041 -1.547,-8.034 -2.173,-12.073 q -2.118,-14.433 -3.912,-28.909 c -1.67,-5.305 -0.037,-12.443 -2.13,-17.675 -0.615,-1.538 -3.452,-4.197 -5.071,-4.742 -1.33,-0.448 -1.6,-0.231 -2.788,0.336 -0.867,1.139 -1.348,2.092 -1.659,3.503 -0.438,1.985 -0.51,4.141 -0.396,6.169 0.246,4.371 3.42,31.131 4.879,32.993 0.093,0.119 0.22,0.207 0.33,0.311 -1.628,6.184 1.078,15.024 2.302,21.278 -4.633,-3.875 -10.103,-6.956 -16.228,-7.467 -2.567,-0.214 -5.257,0.024 -7.631,-1.081 -0.181,-0.597 4.467,-11.966 4.968,-14.121 0.174,-0.749 0.942,-3.237 0.798,-3.89 -0.113,-0.511 -0.807,-0.748 -0.947,-1.252 -0.318,-1.139 0.322,-4.197 0.369,-5.539 0.235,-6.788 -2.529,-13.721 -6.126,-19.406 -5.146,-8.136 -14.583,-17.312 -24.342,-19.23 -2.596,-0.51 -5.322,-0.5 -7.533,1.129 -1.278,0.942 -1.84,2 -2.047,3.575 0.362,1.523 0.904,2.463 2.28,3.304 1.874,1.146 3.55,0.903 5.587,0.464 l 0.5,-0.113 c 9.278,4.716 14.741,9.621 20.491,18.365 -0.252,2.254 0.572,4.718 0.899,6.958 1.043,7.152 0.286,14.95 -2.353,21.696 -1.675,4.281 -6.801,8.63 -7.206,10.468 -0.299,1.359 0.2,2.847 0.993,3.945 3.625,5.021 15.288,3.375 21.028,4.426 5.791,1.061 9.598,4.316 12.822,9.132 1.95,2.911 4.545,8.209 3.422,11.824 -0.656,2.111 -2.47,2.679 -4.329,3.403 -1.072,-0.394 -0.601,-1.759 -1.326,-2.89 l -0.795,0.054 c -0.609,0.792 -1.108,1.456 -1.936,2.026 -0.932,-1.628 1.357,-2.375 1.087,-4.453 -0.193,-1.481 -1.397,-2.982 -2.449,-3.966 -2.001,-1.873 -4.038,-2.882 -6.779,-2.817 -1.351,0.618 -2.061,0.894 -2.925,2.165 -0.126,3.696 4.94,5.491 6.893,8.242 0.701,0.987 0.593,1.27 0.444,2.402 -0.727,0.777 -0.783,0.831 -1.874,1.135 -0.881,-0.768 -1.289,-1.167 -2.422,-1.531 -0.857,0.532 -1.975,1.353 -2.964,1.566 -1.621,0.348 -15.487,-1.174 -17.804,-1.604 -1.968,-0.365 -3.86,-2.051 -5.928,-1.686 -0.208,0.036 -0.407,0.14 -0.618,0.138 -1.821,-0.014 -4.754,-1.467 -6.551,-2.07 -3.351,-1.124 -7.129,-1.743 -10.338,-3.028 -4.425,-1.771 -19.666,-10.791 -22.095,-14.182 -1.905,-2.66 -8.533,-17.497 -7.881,-20.373 0.223,-0.985 1.441,-0.715 1.217,-2.527 -0.193,-1.565 -1.671,-7.198 -1.179,-8.41 0.488,-1.201 1.305,-0.862 1.244,-2.53 -0.083,-2.287 -1.434,-4.121 -1.034,-6.544 l 1.052,-0.631 c 0.169,-1.014 0.19,-0.64 0.043,-1.622 -0.149,-0.988 -0.299,-2.006 -0.497,-2.986 -1.263,-6.253 1.128,-19.278 1.811,-26.338 3.505,2.264 8.161,5.348 12.345,5.903 1.825,0.243 4.622,-0.516 5.985,-1.853 0.995,-0.976 1.377,-1.823 1.393,-3.222 0.045,-4.172 -12.219,-15.507 -15.45,-19.091 1.919,-6.495 3.2,-12.592 3.945,-19.313 6.008,4.898 10.317,9.546 17.309,13.235 2.179,-0.649 4.757,-1.225 6.71,-2.39 0.986,-0.588 2.112,-1.492 2.221,-2.716 0.171,-1.942 -0.874,-3.976 -1.943,-5.524 -2.086,-3.019 -5.177,-5.587 -7.658,-8.304 -3.233,-3.541 -6.239,-7.29 -9.464,-10.847 1.425,-3.889 3.393,-7.538 4.742,-11.486 1.534,-4.488 2.455,-9.122 4.165,-13.561 4.11,5.545 6.367,12.244 11.959,16.705 1.982,1.581 4.425,2.991 7.046,2.592 2.504,-0.381 4.12,-2.656 5.412,-4.596 1.005,-5.154 -8.859,-15.716 -11.538,-20.767 -2.332,-4.395 -4.334,-9.286 -2.815,-14.263 4.193,-3.806 4.537,-8.615 7.132,-13.418 2.803,5.938 5.429,18.474 12.173,20.892 1.237,0.444 2.18,0.437 3.361,-0.148 2.868,-1.421 4.004,-5.292 5.027,-8.066 -1.558,-3.036 -3.55,-5.871 -5.169,-8.886 -2.31,-4.3 -3.831,-9.749 -7.017,-13.441 1.916,-6.462 4.064,-12.207 8.302,-17.521 z"
     id="path62" />
  <path
     fill="#07161a"
     d="m 296.635,557.9 c 1.4,0.199 2.375,0.369 3.508,1.328 1.438,1.217 2.057,3.461 1.985,5.268 -0.086,2.195 -0.553,3.413 -2.119,4.94 -1.441,-0.396 -2.915,-0.709 -4.009,-1.8 q -0.257,-0.256 -0.485,-0.537 -0.228,-0.281 -0.425,-0.585 -0.197,-0.304 -0.361,-0.627 -0.164,-0.323 -0.293,-0.661 -0.129,-0.339 -0.221,-0.689 -0.093,-0.35 -0.147,-0.708 -0.055,-0.358 -0.072,-0.72 -0.017,-0.361 0.005,-0.723 c 0.147,-2.324 0.966,-3.035 2.634,-4.486 z"
     id="path63" />
  <path
     fill="#07161a"
     d="m 269.786,564.31 c 0.916,0.083 1.703,0.136 2.509,0.639 1.186,0.74 1.858,2.012 2.217,3.321 0.822,2.998 0.079,6.773 -1.421,9.431 -1.15,0.225 -2.676,0.567 -3.738,-0.033 -1.059,-0.601 -1.607,-1.413 -1.928,-2.583 -0.957,-3.492 0.58,-7.819 2.361,-10.775 z"
     id="path64" />
  <path
     fill="#07161a"
     d="m 282.272,564.783 c 0.924,0.068 2.166,0.081 2.965,0.591 1.437,0.919 2.659,3.654 3.006,5.264 0.599,2.787 0.507,5.013 -1.051,7.395 -1.518,0.361 -2.619,0.585 -4.198,0.327 -0.859,-0.573 -1.256,-0.91 -1.733,-1.861 -1.516,-3.025 -0.147,-8.698 1.011,-11.716 z"
     id="path65" />
  <path
     fill="#07161a"
     d="m 300.66,523.206 q 0.591,0.03 1.18,0.082 c 2.506,0.232 4.246,1.225 5.811,3.221 2.463,3.14 2.537,6.994 1.992,10.758 -0.584,0.007 -1.063,0.031 -1.654,-0.047 -1.635,-0.217 -2.847,-1.276 -3.851,-2.509 -2.457,-3.017 -3.807,-7.643 -3.478,-11.505 z"
     id="path66" />
  <path
     fill="#07161a"
     d="m 290.308,527.647 c 0.636,0.129 1.331,0.268 1.916,0.559 1.975,0.981 3.372,3.879 3.971,5.897 0.808,2.726 1.385,6.795 -0.019,9.333 -0.907,0.681 -1.172,0.717 -2.308,0.88 -1.259,-0.551 -1.854,-0.8 -2.443,-2.097 -1.655,-3.643 -2.434,-10.873 -1.117,-14.572 z"
     id="path67" />
  <path
     fill="#07161a"
     d="m 279.15,531.62 c 0.948,0.161 1.752,0.367 2.523,0.981 1.472,1.172 2.273,3.965 2.487,5.744 0.477,3.957 -0.234,6.803 -2.614,9.905 -0.523,-0.036 -1.025,-0.037 -1.526,-0.242 -1.266,-0.518 -2.197,-1.713 -2.553,-3.003 -1.043,-3.78 -0.283,-9.966 1.683,-13.385 z"
     id="path68" />
  <path
     fill="#07161a"
     d="m 532.807,313.461 c -1.453,2.217 -2.927,4.565 -4.788,6.467 -5.813,5.942 -12.934,9.093 -21.246,9.253 l -0.981,1.205 c -2.057,-0.001 -3.072,-1.861 -5.05,-2.282 -1.197,-0.255 -1.841,1.16 -3.111,0.769 -2.075,-0.639 -2.594,-1.933 -3.449,-3.781 -0.09,-0.195 -0.176,-0.391 -0.265,-0.587 l -0.667,-0.248 -0.631,1.083 -0.87,0.16 q -1.151,-0.736 -2.221,-1.585 c -2.501,-1.974 -10.486,-7.987 -10.848,-11.176 -0.456,-4.004 -4.419,-7.018 -5.996,-10.873 -3.717,-9.088 -6.358,-19.059 -8.148,-28.726 -1.19,-6.433 -2.807,-23.689 0.816,-28.876 0.833,-1.192 1.287,-1.751 1.359,-3.206 q 0.112,-1.91 0.39,-3.804 c 0.407,-2.696 1.815,-3.092 3.843,-4.577 l -0.255,-2.038 c 0.996,-2.467 2.552,-3.114 4.832,-4.219 0.945,-0.459 0.562,-0.075 1,-1.202 l -1.094,-1.225 c 0.292,-0.888 0.118,-0.643 0.699,-1.34 4.797,-5.755 10.365,-9.121 16.987,-12.312 1.684,-0.811 3.561,-2.013 5.432,-2.192 0.686,0.992 0.29,0.655 1.066,1.14 3.13,-1.955 6.089,-3.435 9.509,-4.799 2.494,-0.995 3.988,-1.005 6.588,-0.597 0.949,0.15 1.277,0.09 2.133,-0.412 0.662,-0.388 0.9,-0.789 1.672,-0.981 2.452,-0.61 5.598,-0.391 8.174,-0.639 8.995,-0.863 20.075,-1.32 28.625,-4.264 4.018,-1.383 13.797,-8.314 16.525,-8.325 l 0.782,1.08 c 3.646,-2.245 7.587,-5.031 11.691,-6.287 l 1.2,0.717 c 1.802,-0.266 2.869,-1.664 4.355,-2.627 1.458,-0.944 2.291,-0.465 3.831,-0.055 0.632,-0.238 1.268,-0.456 1.903,-0.686 6.252,-2.265 13.382,-3.306 19.966,-4.214 0.966,0.524 1.563,0.879 2.68,0.866 l 1.36,-1.395 c 2.745,-0.403 6.057,0.818 8.867,1.03 4.037,-4.102 7.61,-0.241 12.463,-0.863 5.131,-0.656 28.349,1.179 32.809,3.349 0.627,0.305 1.141,1.27 1.769,1.561 2.565,1.188 7.587,0.514 10.8,1.701 0.377,0.578 0.716,1.077 1.179,1.593 0.841,-0.832 0.353,-0.522 1.466,-0.929 2.424,0.709 6.26,1.451 8.26,3.006 1.186,0.923 1.179,1.77 1.495,3.124 l 0.904,-0.253 -0.124,-1.505 0.503,-0.431 c 0.581,0.054 1.407,0.074 1.979,0.27 1.624,0.557 2.493,3.017 3.345,4.424 0.703,-0.637 0.949,-0.829 1.876,-1.154 4.218,1.612 8.35,5.38 11.985,8.083 l 0.544,-0.258 c -0.468,-0.942 -0.255,-0.441 -0.624,-1.509 4.049,-0.391 7.879,3.127 12,3.352 l 0.516,-1.659 c 3.8,-1.733 6.251,2.022 9.835,2.345 1.291,0.117 1.793,-0.917 3.287,-0.741 l 0.849,1.711 1.035,0.185 c 0.128,-0.216 0.268,-0.426 0.383,-0.649 0.144,-0.275 0.262,-0.563 0.393,-0.845 3.386,1.048 6.796,2.052 10.135,3.242 l 0.517,1.615 0.602,0.066 c 0.723,-0.693 1.225,-1.108 2.163,-1.47 3.032,0.668 5.427,2.436 8.233,3.678 1.098,-0.372 1.821,-0.583 2.972,-0.282 2.899,0.759 11.974,4.42 13.517,6.865 l -0.603,1.944 0.453,0.561 c 1.509,-0.521 2.871,-1.212 4.474,-0.74 1.614,1.181 2.252,3.145 3.064,4.911 2.007,0.735 3.899,1.272 5.307,2.959 1.848,2.214 8.49,11.784 7.916,14.526 -0.132,0.635 -0.732,0.315 -0.816,1.439 0.645,0.385 1.665,0.9 2.069,1.576 2.446,4.099 1.271,23.03 0.218,28.258 -2.323,11.53 -5.831,22.002 -11.597,32.305 -0.758,1.354 -1.832,3.778 -3.193,4.553 -0.19,0.109 -0.39,0.199 -0.586,0.299 l 0.048,0.24 -0.862,0.066 c -0.01,0.565 0.002,0.805 -0.056,1.328 -0.608,5.503 -5.831,9.667 -9.763,12.957 0.449,0.984 0.299,0.463 0.434,1.569 -5.326,5.822 -12.136,10.346 -19.73,12.558 -3.458,1.007 -6.764,1.585 -10.166,2.902 -7.866,-2.432 -12.41,-0.698 -20.399,-5.146 -0.314,0.322 -0.434,0.421 -0.707,0.838 -0.908,1.39 -0.793,1.912 -0.37,3.456 -0.363,0.778 -0.697,1.531 -0.975,2.345 -0.586,1.72 13.964,30.389 15.712,34.064 1.409,2.964 1.218,6.354 2.623,9.285 0.808,0.246 1.554,0.474 2.308,0.864 2.115,1.095 -0.513,3.119 -0.017,4.383 0.937,2.386 3.996,3.525 4.656,6.231 0.227,0.933 -0.253,1.171 -0.754,1.903 1.706,2.104 3.419,4.143 4.797,6.485 -0.012,0.937 -0.1,1.679 -0.397,2.563 -0.637,1.898 4.879,6.037 5.247,8.663 l -2.451,1.637 v 0.599 c 1.12,0.252 1.731,0.176 2.862,0.085 0.163,0.156 0.33,0.306 0.488,0.467 3.83,3.883 4.791,10.59 6.98,15.404 1.596,3.51 3.575,6.847 5.267,10.311 3.142,6.433 6.066,13.491 8.714,20.15 1.829,4.598 3.036,9.435 4.867,14.058 3.68,9.29 7.99,19.205 10.35,28.918 0.587,2.416 -0.432,4.24 -0.522,6.592 l 1.2,-0.419 c 1.939,2.271 4.159,9.064 4.746,11.998 0.304,1.523 0.003,3.029 0.152,4.561 0.107,1.101 1.319,1.631 2.168,2.289 1.803,3.662 1.585,8.075 1.653,12.07 5.352,3.37 1.912,9.574 5.113,13.84 2.308,3.076 1.677,7.109 2.591,10.72 0.416,1.643 0.779,1.861 2.249,2.658 0.26,-0.103 0.548,-0.151 0.779,-0.308 4.182,-2.844 6.154,-11.299 7.469,-15.834 0.857,-2.958 2.067,-5.846 2.65,-8.876 3.519,-18.291 2.476,-44.413 -1.776,-62.503 -2.289,-9.739 -4.924,-19.409 -7.293,-29.132 -1.658,-6.808 -3.768,-13.555 -3.917,-20.614 -0.084,-3.977 0.735,-7.981 1.4,-11.89 l -0.053,0.055 c 1.5,-2.222 2.939,-4.317 5.212,-5.823 q 0.412,-0.268 0.837,-0.514 0.425,-0.246 0.862,-0.47 0.437,-0.224 0.885,-0.425 0.448,-0.201 0.906,-0.379 0.458,-0.177 0.924,-0.331 0.467,-0.154 0.941,-0.283 0.473,-0.129 0.953,-0.234 0.48,-0.105 0.965,-0.185 0.484,-0.079 0.972,-0.134 0.489,-0.055 0.979,-0.084 0.49,-0.029 0.981,-0.033 0.491,-0.004 0.982,0.017 0.491,0.022 0.98,0.069 0.489,0.046 0.974,0.118 0.486,0.072 0.968,0.169 0.481,0.097 0.957,0.219 c 8.508,2.128 17.025,9.751 20.804,17.602 0.543,1.129 0.06,1.754 -0.329,2.86 2.686,1.679 8.346,-1.297 12.133,0.339 11.201,4.835 4.319,28.152 7.824,36.793 1.019,0.182 1.925,-2.337 3.693,-2.687 2.759,-0.548 7.134,1.901 9.122,3.616 7.162,6.178 4.244,19.813 1.232,27.524 -1.271,3.255 -4.68,8.238 -4.379,11.729 0.506,-0.656 0.852,-1.48 1.688,-1.694 3.505,-0.896 9.589,-0.445 12.742,1.291 2.654,1.46 4.299,4.022 4.982,6.926 4.12,17.547 -14.606,27.679 -24.362,38.807 -1.932,2.203 -3.439,4.885 -4.954,7.386 4.405,-0.01 8.194,-0.124 12.27,1.848 2.748,1.331 5.189,3.681 6.142,6.634 1.15,3.561 -0.037,7.907 -1.827,11.049 -4.926,8.641 -13.758,12.384 -22.834,14.981 -2.058,4.241 -4.803,8.169 -7.354,12.127 1.277,0.351 2.562,0.704 3.726,1.352 3.273,1.824 4.368,4.88 5.411,8.283 -2.838,17.382 -13.034,11.179 -22.827,19.035 -2.898,2.325 -3.034,4.683 -3.444,8.103 -2.996,3.329 -6.527,6.31 -10.612,8.212 -2.302,1.072 -7.486,1.785 -9.074,3.479 -0.53,0.566 -0.146,1.877 -0.033,2.553 0.264,1.576 -1.547,4.606 -2.123,6.226 -5.969,16.812 -8.266,20.721 -19.937,34.104 -0.835,0.957 -1.573,1.397 -1.606,2.731 0.861,0.665 1.588,1.244 2.255,2.108 l -0.579,0.923 c -1.199,0.601 -1.359,0.948 -2.727,0.705 l -0.608,-1.337 -0.749,-0.112 c -0.492,0.747 -0.721,0.974 -1.468,1.552 l -1.462,-0.503 c -1.996,0.247 -4.163,1.761 -5.924,2.721 -11.063,6.028 -28.544,8.125 -40.976,10.22 -4.592,0.773 -9.281,1.925 -13.932,2.203 q -5.661,0.316 -11.318,-0.071 -5.657,-0.387 -11.222,-1.472 c -4.345,-0.808 -9.145,-2.397 -13.187,-4.187 -1.53,-0.678 -1.666,-2.294 -3.421,-2.54 q -1.236,1.272 -2.489,2.528 c -1.727,1.729 -3.865,4.215 -6.024,5.364 -11.78,6.267 -31.694,6.443 -43.902,1.353 -5.417,-2.258 -13.014,-10.041 -18.807,-9.651 -0.839,0.056 -1.505,1.07 -2.077,1.651 -2.034,0.172 -2.889,-1.441 -4.959,-1.491 -1.295,1.284 -1.171,2.081 -1.605,3.827 -0.399,1.601 -1.194,3.127 -1.327,4.795 -0.237,2.953 0.414,5.991 0.279,8.992 -0.606,0.569 -1.196,1.053 -1.594,1.798 -0.439,0.822 0.152,2.393 0.445,3.263 0.4,1.186 0.384,0.629 0.161,1.874 -0.57,3.187 -2.789,5.711 -5.411,7.474 -3.606,2.426 -9.316,5.02 -13.669,4.12 -1.223,-0.253 -0.605,-0.184 -1.866,-0.308 l -2.2,-0.195 -1.076,1.659 -0.968,0.049 c -0.783,-0.487 -1.992,-1.432 -2.98,-1.24 -1.464,0.284 -2.73,1.043 -4.279,1.203 -6.221,0.642 -12.532,-0.662 -18.778,0.534 -2.8,0.537 -3.308,-1.04 -5.521,-0.998 -2.824,0.054 -5.241,1.764 -8.156,1.63 -1.258,-0.697 -2.321,-1.273 -3.751,-1.57 -0.742,0.578 -1.326,1.021 -2.22,1.329 -0.471,-1.235 -0.331,-1.509 -1.496,-2.24 -1.403,0.202 -2.217,0.446 -3.417,1.201 -1.329,0.835 -1.844,1.413 -3.467,1.171 l 0.968,-1.147 -0.207,-0.337 c -0.604,0.271 -1.077,0.545 -1.627,0.927 -0.193,0.134 -0.382,0.273 -0.572,0.41 -1.219,-0.69 -2.163,-1.019 -3.504,-1.337 -1.106,0.482 -2.018,0.842 -3.217,1.054 l 0.012,-1.486 c -1.867,-0.799 -5.596,1.715 -8.186,1.287 -0.903,-0.658 -1.714,-1.262 -2.736,-1.73 -0.832,0.811 -1.585,1.227 -2.63,1.727 -4.87,-0.739 -2.168,1.31 -5.024,2.032 0.098,-1.154 0.276,-0.698 -0.299,-1.436 -1.581,0.054 -3.041,0.221 -4.585,0.609 -0.209,0.053 -0.416,0.112 -0.624,0.168 -1.148,-0.986 -2.136,-2.104 -3.707,-2.265 l -0.336,0.403 0.755,1.644 -0.282,0.608 c -2.784,0.165 -5.34,-1.758 -8.195,-1.537 -0.396,0.846 -0.745,1.536 -1.352,2.249 q -3.272,-1.111 -6.569,-2.147 l -2.074,1.439 c -1.607,0.12 -2.963,0.295 -4.517,-0.265 l -0.175,-1.177 c -2.132,-0.229 -5.065,1.105 -7.243,1.542 -0.937,-0.751 -1.64,-1.319 -2.78,-1.747 -1.246,0.213 -2.414,0.359 -3.442,1.156 -0.218,0.17 -0.428,0.35 -0.642,0.525 l -0.027,-0.023 c 0.981,0.275 1.242,-0.083 2.145,-0.483 0.082,0.933 -0.089,0.896 -0.592,1.633 -0.457,0.093 -0.781,0.187 -1.267,0.145 -1.394,-0.12 -2.115,-1.184 -2.901,-2.188 -0.109,-0.138 -0.214,-0.28 -0.321,-0.42 -2.268,-0.257 -3.711,2.306 -5.982,2.622 -2.027,0.282 -4.058,-2.813 -6.236,-3.07 -0.29,0.409 -0.773,1.173 -1.212,1.435 -1.107,0.659 -19.866,-1.097 -23.595,0.557 -4.781,2.12 -6.151,-1.341 -10.377,-1.636 l -0.624,0.847 c -2.242,0.781 -5.786,-1.09 -8.328,-1.089 -1.232,10e-4 -1.52,0.663 -2.325,1.462 -0.293,-0.333 -1.123,-1.503 -1.475,-1.693 -3.913,-2.109 -21.949,1.694 -27.289,-5.081 -1.432,-1.817 -2.535,-5.522 -2.886,-7.811 -1.181,-7.711 -1.04,-16.049 -1.361,-23.856 l -1.751,-53.266 c -0.183,-4.384 -1.165,-8.745 -1.297,-13.147 -0.837,-27.714 -0.945,-55.206 0.405,-82.911 0.398,-8.166 0.003,-17.726 1.908,-25.676 0.814,-3.397 1.851,-5.548 4.945,-7.303 1.747,-0.991 3.693,-1.607 5.65,-2.02 4.644,-0.98 32.827,-4.339 36.361,-3.715 1.016,0.179 2.01,1.021 3.1,1.289 0.21,-0.287 0.537,-0.748 0.765,-1.002 0.818,-0.912 1.007,-0.808 2.19,-0.856 4.146,2.972 9.535,0.129 14.231,0.595 1.369,0.136 2.915,1.271 4.259,1.214 0.385,-0.017 1.792,-0.841 2.193,-1.016 3.105,-1.354 6.26,-0.351 9.508,0.152 0.555,-0.753 0.916,-1.108 1.752,-1.533 1.539,0.344 1.493,0.592 2.444,1.887 l 0.954,-0.119 c 0.394,-0.81 0.551,-1.078 1.246,-1.701 l 1.703,0.263 c 2.898,0.033 6.145,0.527 8.969,0.229 l 1.475,-0.664 c 3.458,0.85 6.862,-0.07 10.316,-0.635 0.402,0.51 0.817,1.012 1.242,1.504 4.021,-0.843 8.198,-1.507 12.314,-1.412 0.979,0.022 1.101,0.54 1.744,1.224 1.39,0.262 2.205,-0.721 3.353,-1.479 15.645,0.353 39.072,-3.946 53.276,1.215 1.086,-2.397 2.04,-4.891 2.407,-7.508 1.224,-8.733 0.937,-18.251 1.373,-27.099 0.678,-13.735 1.809,-27.4 2.668,-41.112 0.632,-0.955 1.169,-1.869 1.655,-2.906 -0.162,-0.647 -0.294,-1.308 -0.465,-1.952 -0.225,-0.843 -0.468,-1.553 -0.436,-2.45 0.162,-4.527 1.352,-9.346 1.885,-13.877 q 2.329,-18.599 3.854,-37.282 c -4.688,-3.149 -8.244,-7.211 -12.118,-11.267 -13.924,-14.578 -19.455,-32.031 -22.524,-51.57 -0.851,-5.418 -1.867,-11.205 -1.743,-16.695 z"
     id="path69" />
  <path
     fill="#07161a"
     d="m 463.562,527.197 c 2.898,0.033 6.145,0.527 8.969,0.229 -1.484,1.926 -3.382,3.624 -5.089,5.359 -1.097,-2.133 -1.987,-4.024 -3.88,-5.588 z"
     id="path70" />
  <path
     fill="#1c2c2f"
     d="m 547.961,331.458 c 0.278,1.202 0.557,2.349 1.004,3.502 0.597,1.539 3.305,11.62 3.312,12.807 0.004,0.865 -0.264,1.512 -0.551,2.299 -0.261,-1.071 -0.485,-2.227 -0.875,-3.257 -0.369,-0.973 -1.156,-1.223 -2.025,-1.654 -0.94,-0.465 -1.626,-0.816 -2.385,-1.568 -0.294,-1.969 1.027,-4.199 1.759,-6.023 -0.463,-2.162 -1.055,-3.957 -0.239,-6.106 z"
     id="path71" />
  <path
     fill="#1c2c2f"
     d="m 704.145,631.221 c 1.622,4.975 1.605,19.453 -0.247,24.226 l -1.311,1.205 c -0.12,-8.403 -0.345,-17.207 1.558,-25.431 z"
     id="path72" />
  <path
     fill="#ebece9"
     d="m 382.14,554.141 c 0.662,0.245 1.08,0.494 1.566,1.012 l 52.256,56.015 c 7.506,8.162 14.558,18.634 24.046,24.486 -5.097,8.402 -18.539,20.638 -25.58,28.106 -10.609,11.252 -20.916,23.059 -30.744,34.996 -5.901,8.499 -12.736,16.221 -18.859,24.547 1.053,-7.277 0.946,-15.009 0.683,-22.351 -0.107,-2.987 -0.853,-7.31 -0.35,-10.188 0.161,-0.925 0.585,-1.836 0.986,-2.679 -2.043,-6.745 -2.202,-14.134 -1.376,-21.103 l -0.936,-1.115 c 0.042,-2.359 -0.42,-4.337 -1.046,-6.598 0.119,-0.194 0.241,-0.386 0.356,-0.582 1.976,-3.36 -0.296,-8.858 -1.215,-12.483 l 1.162,-0.725 c -0.017,-10.475 -1.823,-21.213 -0.811,-31.672 0.16,-1.653 -1.28,-1.49 -1.34,-2.322 -0.132,-1.856 2.033,-3.578 1.628,-6.018 l -1.281,-0.709 c -0.408,-2.39 0.836,-4.951 0.932,-7.393 -0.434,-0.63 -1.061,-1.383 -1.341,-2.088 -0.563,-1.414 0.878,-3.129 1.509,-4.45 -2.36,-2.429 -0.194,-5.751 -0.252,-9.371 l -1.225,-1.002 c -0.382,-1.779 0.963,-3.755 1.123,-5.602 0.569,-6.609 -1.863,-14.164 0.109,-20.711 z"
     id="path73" />
  <path
     fill="#ebece9"
     d="m 835.283,423.89 c 2.477,0.526 4.049,1.519 6.707,1.491 0.717,-0.007 0.34,-0.119 0.986,0.283 l -0.678,0.568 c 0.433,1.297 5.094,4.351 6.371,5.593 2.31,2.249 4.385,4.89 6.559,7.282 l -0.328,1.981 0.645,0.449 1.311,-0.97 c 1.062,0.756 1.731,4.261 2.259,5.676 l 4.123,0.934 c 1.772,1.731 1.749,5.234 1.872,7.644 0.07,1.385 0.334,1.735 1.183,2.804 0.732,0.921 1.229,1.573 1.614,2.713 l -1.108,1.082 c -0.095,2.372 0.932,22.368 1.277,23.459 0.849,2.687 3.629,4.462 6.037,5.544 2.439,-2.577 4.002,-6.309 6.602,-8.607 1.335,-1.18 2.693,-1.666 4.42,-1.541 4.954,5.76 -3.443,21.384 -5.755,27.396 -1.386,3.605 -2.943,8.702 -3.245,12.534 -0.171,2.174 2.313,9.979 2.919,12.73 2.818,-1.437 5.216,-3.373 7.754,-5.238 3.094,-2.274 8.146,-7.166 11.993,-6.578 l 0.618,0.888 c 0.531,12.12 -20.053,22.984 -26.425,31.997 -3.699,5.234 -3.234,10.107 -2.284,16.045 -1.093,1.149 -2.756,2.583 -3.227,4.125 -0.263,0.86 -0.079,0.845 0.286,1.594 5.006,2.237 11.833,-1.069 17.174,0.405 2.296,0.634 3.182,2.243 4.376,4.141 -4.888,3.448 -10.07,5.079 -15.774,6.664 -1.669,0.464 -4.031,0.781 -5.503,1.664 -1.011,0.607 -1.74,1.583 -2.704,2.257 -1.427,0.999 -2.122,0.709 -3.759,0.479 -1.281,-0.18 -2.26,0.011 -3.309,0.829 -3.621,2.824 0.559,9.041 0.061,12.997 -0.017,0.139 -0.05,0.275 -0.075,0.413 -0.476,1.758 -0.689,3.05 -2.129,4.294 -1.797,1.552 -5.108,4.222 -5.544,6.669 -0.077,0.432 -0.074,0.563 0.189,0.882 1.421,1.73 5.923,2.017 8.057,2.484 2.01,0.44 4.712,0.86 5.884,2.701 -3.376,4.463 -14.231,5.355 -19.585,7.408 -2.006,0.769 -4.056,1.976 -4.743,4.155 -0.747,2.369 0.366,4.16 1.403,6.217 -2.104,2.105 -4.269,3.932 -6.802,5.513 -1.289,0.806 -2.247,1.299 -3.748,0.968 -1.377,-3.552 2.547,-7.006 1.985,-8.86 -0.502,-1.657 -2.546,-1.735 -2.785,-4.044 0.282,-0.332 0.922,-1.06 1.129,-1.418 0.736,-1.27 -1.154,-6.108 -1.442,-7.794 0.698,-0.808 0.957,-1.117 1.289,-2.163 -0.889,-1.079 -1.934,-2.147 -2.347,-3.508 -0.277,-0.913 0.369,-1.889 0.771,-2.684 1.848,-3.65 -3.781,-9.348 -1.949,-13.918 -0.756,-2.085 -2.032,-6.104 -3.705,-7.475 -0.159,-0.131 -0.352,-0.215 -0.527,-0.322 3.863,-3.722 -0.043,-4.791 1.364,-7.979 0.917,-2.076 4.147,-3.921 5.651,-5.787 6.706,-8.318 10.661,-19.278 12.994,-29.577 2.77,-12.224 5.103,-35.994 3.681,-48.433 -0.247,-2.161 -1.78,-3.774 -1.946,-5.977 -0.492,-6.568 -0.839,-18.011 -4.382,-23.518 -0.72,-1.119 -1.217,-1.908 -1.565,-3.186 l 0.926,-1.478 c -1.314,-3.18 -2.657,-6.382 -3.313,-9.775 -0.455,-2.356 -0.485,-5.279 -1.232,-7.516 -0.292,-0.872 -0.656,-1.261 -1.244,-1.934 -3.062,-3.5 -0.106,-8.272 -2.782,-12.224 -0.334,-0.494 -0.696,-0.972 -1,-1.485 -1.052,-1.773 -0.71,-3.987 -0.212,-5.876 0.902,-3.417 1.588,-4.297 4.686,-6.087 z"
     id="path74" />
  <path
     fill="#ebece9"
     d="m 543.484,536.995 c 0.306,0.003 0.571,0.223 0.841,0.367 l 0.678,0.365 c 2.234,-0.298 4.539,-0.014 6.8,-0.075 10.715,-0.289 21.103,0.47 31.783,1.053 6.096,0.334 12.128,0.128 18.223,0.309 -11.766,20.387 -72.446,75.195 -76.001,90.583 -0.293,1.268 -0.195,2.136 0.481,3.264 1.467,0.811 2.525,0.871 4.168,0.5 2.214,-0.501 3.449,-1.506 5.049,-3.034 3.846,-3.675 6.798,-8.309 10.461,-12.18 8.847,-9.351 17.934,-18.494 26.633,-27.987 3.332,-3.636 6.289,-7.602 9.642,-11.217 7.207,-7.771 18.378,-18.298 23.553,-27.008 1.415,7.085 0.817,13.733 0.775,20.872 q 0.012,11.195 0.141,22.389 l 0.511,40.624 c 0.229,11.013 0.878,21.973 0.655,33.008 -0.129,6.382 -0.973,36.661 0.232,40.634 1.133,3.739 -0.365,7.532 -0.512,11.326 -0.088,2.256 0.307,4.642 0.569,6.885 -12.993,-11.138 -22.921,-25.822 -34.145,-38.64 -6.322,-7.22 -13.456,-13.805 -19.949,-20.89 -9.187,-10.025 -17.768,-20.617 -26.88,-30.717 -3.436,0.991 -5.468,2.28 -7.987,4.823 0.54,1.599 1.091,3.249 2.158,4.586 3.682,4.617 8.573,8.511 12.469,13.025 5.531,6.409 10.639,13.185 16.229,19.547 4.905,5.581 10.349,10.7 15.438,16.116 6.165,6.56 11.969,13.593 17.986,20.309 5.293,7.442 12.795,13.498 17.681,21.12 l -0.259,0.69 c -2.779,0.947 -5.783,0.551 -8.68,0.75 -9.955,0.682 -19.971,0.934 -29.923,1.713 -0.612,-0.491 -0.956,-0.708 -1.703,-1.018 q -1.154,0.86 -2.29,1.743 l -0.829,-1.422 c -4.278,0.145 -8.548,-0.641 -12.805,-0.44 -3.541,0.168 -7.18,1.322 -10.689,1.195 -1.547,-0.056 -2.861,-0.856 -4.338,-1.139 -3.545,-0.68 -8.596,1.188 -12.365,1.176 -2.344,-0.008 -5.692,-1.044 -7.884,-0.548 -0.89,0.202 -1.882,1.048 -2.609,1.579 -1.009,0.737 -5.606,-1.091 -7.234,-1.174 -1.698,-0.086 -4.052,1.654 -5.684,2.354 -0.421,-0.448 -0.272,-0.197 -0.471,-0.921 -0.052,-0.191 -0.096,-0.383 -0.145,-0.574 l -1.709,0.237 c -0.621,-0.341 -1.367,-0.83 -2.073,-0.955 -1.686,-0.299 -3.732,0.91 -5.497,0.851 -2.287,-0.076 -4.783,-1.247 -7.053,-1.035 -2.476,0.232 -4.583,2.187 -7.15,2.132 l 0.437,-1.448 -0.362,-0.618 c -2.01,-0.19 -3.754,0.787 -5.57,1.547 q -0.636,-0.324 -1.279,-0.635 c -0.298,-0.142 -1.51,-0.736 -1.764,-0.675 -0.653,0.155 -1.08,0.881 -1.738,1.015 -2.354,0.477 -15.905,-2.366 -18.838,-0.892 -0.462,0.232 -1.044,0.681 -1.502,0.968 l -0.711,0.453 c -0.845,-0.55 -0.525,-0.275 -1.254,-1.039 -0.175,-0.184 -0.345,-0.373 -0.518,-0.56 -7.57,0.1 -17.874,-1.202 -25.026,0.678 -0.883,0.233 -1.487,0.4 -2.412,0.49 l -0.461,-1.125 c -3.935,-2.345 -12.575,0.838 -16.946,0.79 -1.293,-0.014 -1.914,-0.553 -2.775,-1.417 0.193,-2.049 1.887,-2.304 2.073,-4.418 0.083,-0.948 -0.099,-1.611 0.36,-2.495 2.182,-4.201 7.661,-9.544 10.718,-13.493 5.483,-7.081 10.435,-14.561 15.934,-21.636 6.25,-8.041 13.308,-15.779 20.049,-23.433 10.704,-12.153 23.682,-22.771 32.312,-36.564 -4.081,-5.127 -7.647,-10.657 -11.871,-15.674 -13.58,-16.127 -28.326,-31.441 -42.408,-47.141 -6.494,-7.242 -23.503,-24.52 -27.25,-31.435 1.86,-1.867 16.566,-2.092 20.304,-2.581 2.034,-0.266 3.914,-1.05 5.981,-1.139 2.719,-0.116 5.449,0.538 8.174,0.635 5.898,0.211 11.834,-0.965 17.873,-0.733 0.962,0.037 1.454,0.023 2.418,-0.186 l 0.457,-1.652 0.327,0.022 c 0.185,0.193 0.366,0.39 0.555,0.58 1.364,1.373 1.682,1.578 3.576,1.614 3.663,-2.386 5.088,0.347 8.784,0.319 1.582,-0.011 3.834,-1.732 5.607,-1.937 3.129,-0.361 10.125,0.98 13.636,1.289 1.472,0.13 2.293,-0.064 3.666,-0.642 1.11,-0.466 1.826,-0.783 3.06,-0.787 0.535,0.317 1.214,0.789 1.81,1.011 1.852,0.69 3.239,-0.463 4.98,-1.135 l 1.787,1.347 c 2.682,0.101 5.104,-1.745 7.805,-2.148 1.193,0.931 1.815,1.503 3.348,1.429 l 0.096,-1.197 c 3.952,-2.082 10.652,2.889 14.937,0.476 0.808,-0.455 1.382,-0.975 2.359,-0.746 5.337,1.251 12.861,0.752 18.47,0.411 0.93,-0.057 1.763,-0.139 2.692,-0.018 1.114,0.146 0.949,10e-4 1.808,-0.626 z"
     id="path75" />
  <path
     fill="#07161a"
     d="m 510.982,605.542 c 2.559,0.089 5.614,1.065 7.595,2.716 2.053,1.711 3.003,4.349 3.156,6.959 0.672,11.442 -10.615,30.014 -18.051,38.106 -2.05,2.23 -5.253,5.011 -8.527,4.787 -4.415,-0.302 -9.059,-8.317 -11.51,-11.614 -0.944,-1.037 -1.87,-2.098 -2.702,-3.228 -4.919,-6.679 -11.394,-17.701 -9.936,-26.39 0.514,-3.067 2.039,-6.053 4.671,-7.822 2.059,-1.385 4.527,-1.635 6.915,-1.127 6.355,1.353 10.217,6.417 13.52,11.541 l 0.293,-0.554 c 3.683,-6.883 6.833,-11.068 14.576,-13.374 z"
     id="path76" />
  <path
     fill="#ebece9"
     d="m 547.961,331.458 c -2.162,-5.012 -0.014,-14.969 -2.997,-19.017 -0.608,-0.825 -0.95,-1.031 -0.921,-2.13 0.798,-0.188 1.047,-0.236 1.7,-0.773 -0.218,-1.913 -0.312,-7.631 -1.503,-8.779 l -0.757,-0.19 c 1.357,-13.691 4.431,-28.361 3.343,-42.154 -0.325,-4.12 -1.498,-9.808 -4.896,-12.48 -1.299,-1.02 -2.809,-1.323 -4.431,-1.046 -1.573,0.27 -3.062,1.394 -3.892,2.731 -0.773,1.244 -1.08,2.424 -0.7,3.85 1.458,5.461 0.902,12.533 0.59,18.184 -0.715,12.969 -5.386,32.805 -15.602,41.738 -3.248,2.841 -7.839,3.744 -10.816,6.556 -0.055,0.052 -0.703,0.72 -0.809,0.782 -1.713,1.005 -1.943,-1.333 -3.262,-2.135 -1.884,-1.146 -4.826,0.99 -6.936,0.058 -1.117,-0.494 0.447,-1.406 -0.683,-2.439 -1.773,-1.62 -5.31,-1.422 -6.433,-3.965 0.834,-0.33 0.972,-0.288 1.564,-1.021 -1.302,-2.89 -4.2,-4.594 -5.894,-7.273 0.493,-0.925 0.28,-0.589 0.85,-1.418 1.629,-2.374 -3.655,-5.606 -3.24,-7.805 0.204,-1.079 1.256,-0.941 1.185,-2.563 -1.38,-1.556 -2.722,-1.414 -4.456,-2.432 0.083,-0.328 0.178,-0.653 0.25,-0.984 1.098,-5.086 0.763,-6.032 -2.056,-10.091 -0.381,-0.549 -1.394,-1.786 -1.562,-2.418 -1.02,-3.835 0.055,-19.21 0.85,-23.626 0.56,-3.107 0.355,-9.954 2.851,-11.972 0.26,-0.21 0.528,-0.41 0.792,-0.615 1.923,-6.739 5.034,-7.37 8.924,-12.497 0.097,-0.128 0.191,-0.259 0.286,-0.388 l 0.013,0.49 0.802,-0.635 0.945,0.463 c 7.02,-5.046 11.863,-5.624 20.159,-6.832 l 0.757,-1.426 c 0.204,0.021 0.408,0.049 0.612,0.064 0.327,0.024 0.654,0.035 0.981,0.054 3.485,0.21 6.502,-1.226 9.911,-1.645 3.972,-0.488 13.38,-0.176 16.737,-1.447 1.333,-0.504 2.238,-1.759 3.787,-2.231 l 1.327,1.136 c 3.893,0.928 12.542,-2.71 16.146,-4.595 5.641,-2.95 3.37,-2.413 5.449,-6.327 0.87,-1.64 2.856,0.722 4.527,0.469 3.88,-0.588 8.302,-2.323 12.011,-3.653 2.56,-0.919 4.615,-1.51 5.8,-4.107 0.1,-0.218 0.194,-0.44 0.291,-0.66 l 0.64,0.06 c 0.369,0.556 0.822,0.98 1.288,1.456 3.661,0.533 7.858,-3.174 11.323,-4.352 l -0.603,0.428 0.345,0.799 c 1.392,0.343 2.116,0.025 3.462,-0.379 7.42,-2.224 15.727,-2.74 23.431,-3.1 3.895,-0.182 8.374,0.008 12.148,-1.002 0.203,-0.054 0.404,-0.117 0.606,-0.175 0.817,1.114 1.163,1.67 2.514,2.156 2.536,-0.619 4.048,-0.971 6.402,0.394 0.553,0.32 1.115,0.617 1.679,0.918 2.134,-1.323 0.273,-1.938 0.719,-3.451 0.647,0.426 0.378,0.186 0.91,0.811 1.059,1.241 1.573,1.93 3.164,2.382 6.779,-0.936 4.318,1.403 8.129,2.06 l 0.544,-1.623 c 2.996,-0.847 4.963,1.899 7.643,2.259 1.07,0.144 1.153,-1.212 2.686,-1.156 0.835,1.321 1.196,1.794 2.68,2.467 1.661,-0.32 3.028,-0.506 4.719,-0.358 0.63,0.488 1.321,1.139 2.102,1.372 2.42,0.724 5.715,2.328 8.111,1.392 0.415,0.642 0.729,1.163 1.349,1.634 0.67,0.508 1.537,0.059 2.321,-0.087 1.567,2.136 5.195,1.992 6.943,4.398 0.148,1.07 0.314,1.903 0.757,2.891 l 0.962,0.173 c 0.735,-1.909 -0.913,-2.719 -0.069,-5.357 1.428,0.355 2.319,0.343 3.332,1.441 0.259,1.479 0.107,2.219 1.609,3.012 1.363,0.721 2.937,0.541 4.41,0.418 1.392,0.771 1.939,2.346 2.374,3.811 0.128,0.126 0.242,0.268 0.385,0.376 3.706,2.794 13.328,2.527 17.841,2.245 1.465,-0.092 1.662,0.037 2.759,0.95 3.357,2.794 10.117,0.936 11.559,2.743 1.024,1.283 1.554,1.685 3.156,1.992 0.87,-0.545 1.115,-0.93 1.551,-1.853 1.111,0.411 1.64,0.919 2.472,1.717 0.84,0.806 1.506,1.517 2.769,1.513 1.469,-0.005 1.625,-0.35 2.514,-1.383 l 0.481,1.352 c 1.757,-0.007 3.249,-1.087 4.757,-1.894 l -0.587,1.83 c 1.928,2.444 6.797,3.908 9.6,5.185 3.35,1.526 7.084,3.254 9.861,5.716 8.575,7.602 9.985,21.344 8.773,31.994 -0.956,8.395 -3.195,18.15 -6.568,25.926 -1.4,3.23 -3.325,6.202 -4.719,9.421 -0.75,1.733 -1.365,5.509 -2.566,6.809 -0.43,0.465 -1.248,0.76 -1.801,1.043 -2.788,1.425 -2.413,3.264 -3.703,5.761 -1.231,2.382 -6.661,6.486 -8.84,9.276 l -0.58,0.732 c -0.308,0.092 -0.617,0.179 -0.923,0.278 -1.309,0.421 -2.422,0.971 -3.593,1.675 -3.098,1.861 -12.699,3.823 -16.099,2.784 -0.201,-0.062 -0.382,-0.177 -0.583,-0.239 -1.567,-0.488 -1.281,0.424 -2.517,0.509 -1.769,0.122 -9.161,-3.063 -10.739,-4.151 -0.1,-0.263 -0.19,-0.529 -0.299,-0.788 -1.173,-2.783 -5.015,-5.523 -6.876,-9.919 -2.511,-5.931 -2.819,-15.586 -6.634,-20.342 0.059,-0.212 0.122,-0.422 0.179,-0.634 0.073,-0.271 0.138,-0.544 0.21,-0.815 0.056,-0.211 0.141,-0.415 0.176,-0.631 0.275,-1.669 -0.687,-4.3 -0.924,-6.031 -0.359,-2.636 -2.069,-17.775 -1.876,-19.114 0.333,-2.312 1.94,-0.83 0.809,-4.048 -1.8,-5.127 3.106,-14.85 -3.212,-18.082 -1.497,-0.766 -3.339,-0.672 -4.795,0.14 -2.546,1.422 -3.482,4.832 -3.935,7.494 -2.599,15.282 1.388,48.344 6.371,62.643 1.754,5.034 4.434,9.971 7.631,14.227 q 0.338,0.447 0.683,0.887 c -6.314,18.885 -19.265,44.423 -37.966,53.69 -6.393,3.168 -13.42,5.988 -20.104,8.468 -0.832,-0.291 -1.323,-0.627 -1.997,-1.192 -2.163,1.321 -5.417,4.701 -8.03,4.435 -1.489,-0.151 -0.922,-1.544 -2.811,-1.258 -1.193,1.127 -1.897,2.148 -3.669,2.162 -1.62,0.012 -3.331,-0.45 -4.932,-0.336 -3.686,0.264 -5.937,3.478 -9.59,1.36 q -3.457,0.534 -6.951,0.71 -3.493,0.175 -6.986,-0.009 -3.494,-0.184 -6.949,-0.726 -3.456,-0.542 -6.838,-1.436 c -1.532,-0.42 -2.804,-1.38 -4.256,-1.809 -3.24,-0.956 -3.589,1.407 -6.826,-0.999 -0.437,-0.325 -0.829,-0.706 -1.268,-1.028 -1.354,-0.993 -3.559,-1.309 -5.151,-1.895 -4.119,-1.516 -9.522,-3.457 -13.135,-5.826 -5.703,-3.738 -13.809,-15.408 -16.733,-21.673 -1.408,-3.015 -2.475,-6.728 -4.422,-9.388 l -0.013,-0.434 c 0.287,-0.787 0.555,-1.434 0.551,-2.299 -0.007,-1.187 -2.715,-11.268 -3.312,-12.807 -0.447,-1.153 -0.726,-2.3 -1.004,-3.502 z"
     id="path77" />
  <path
     fill="#07161a"
     d="m 784.246,269.618 0.581,0.542 0.427,-0.089 c 1.521,0.844 2.565,0.925 4.32,0.58 0.623,-0.122 1.185,-0.461 1.733,-0.757 -0.111,1.463 -0.312,2.537 -0.801,3.92 -0.937,1.016 -1.661,1.708 -3.148,1.848 -1.187,0.112 -1.884,-0.539 -2.705,-1.272 -0.956,-1.658 -0.645,-2.931 -0.407,-4.772 z"
     id="path78" />
  <path
     fill="#1c2c2f"
     d="m 706.46,201.274 c 1.428,0.355 2.319,0.343 3.332,1.441 0.259,1.479 0.107,2.219 1.609,3.012 1.363,0.721 2.937,0.541 4.41,0.418 1.392,0.771 1.939,2.346 2.374,3.811 l -0.802,0.56 c -1.814,0.296 -3.301,0.262 -4.906,-0.735 -2.85,-1.769 -5.197,-5.303 -6.017,-8.507 z"
     id="path79" />
  <path
     fill="#07161a"
     d="m 753.053,314.451 c 2.155,0.135 4.557,0.148 6.353,1.502 0.726,0.547 0.585,0.786 0.738,1.609 -0.664,1.37 -1.369,1.997 -2.528,2.91 -1.672,0.451 -3.699,0.97 -5.22,-0.168 -1.208,-0.904 -1.228,-1.342 -1.458,-2.732 0.53,-1.515 0.91,-2.061 2.115,-3.121 z"
     id="path80" />
  <path
     fill="#1c2c2f"
     d="m 784.246,269.618 c 0.516,-3.075 -0.137,-6.719 1.898,-9.078 l 0.254,0.65 c 0.304,0.801 0.558,1.603 0.806,2.422 1.52,0.901 2.785,0.648 4.532,0.665 -0.363,1.871 0.035,3.812 -0.429,5.617 -0.548,0.296 -1.11,0.635 -1.733,0.757 -1.755,0.345 -2.799,0.264 -4.32,-0.58 l -0.427,0.089 z"
     id="path81" />
  <path
     fill="#07161a"
     d="m 773.702,275.953 c 1.221,-0.071 2.349,-0.2 3.531,0.202 0.923,0.313 1.805,1.495 2.021,2.434 0.447,1.955 -0.239,4.512 -1.237,6.2 -1.127,-0.059 -2.422,-0.062 -3.493,-0.439 -1.06,-0.372 -2.076,-1.402 -2.359,-2.506 -0.517,-2.015 0.498,-4.239 1.537,-5.891 z"
     id="path82" />
  <path
     fill="#07161a"
     d="m 774.324,261.084 c 1.045,-0.839 2.057,-1.596 3.196,-2.311 0.445,0.966 0.539,1.562 0.671,2.599 0.785,0.607 0.922,0.688 1.824,0.893 l 0.422,0.358 c 0.319,2.763 -0.574,6.059 -1.845,8.51 l -1.235,0.266 c -0.776,-0.287 -1.357,-0.506 -1.879,-1.198 -1.939,-2.568 -1.756,-6.132 -1.154,-9.117 z"
     id="path83" />
  <path
     fill="#07161a"
     d="m 740.96,310.881 c 0.736,0.071 1.457,0.218 2.184,0.348 2.388,1.913 5.333,5.107 5.469,8.338 0.037,0.86 -0.885,1.399 -1.448,1.975 -1.938,-0.235 -3.718,-0.611 -5.344,-1.758 -1.399,-0.986 -2.448,-2.232 -2.68,-3.982 -0.281,-2.112 0.551,-3.371 1.819,-4.921 z"
     id="path84" />
  <path
     fill="#1c2c2f"
     d="m 782.375,249.064 c -0.66,-2.67 -3.266,-7.776 -3.109,-10.287 0.086,-1.374 0.546,-1.574 1.514,-2.421 0.982,-0.261 1.684,-0.447 2.706,-0.174 2.672,0.712 3.81,4.481 4.903,6.77 -1.652,1.356 -3.051,3.149 -4.362,4.832 -0.461,0.593 -1.022,0.895 -1.652,1.28 z"
     id="path85" />
  <path
     fill="#07161a"
     d="m 678.886,252.995 c 3.086,0.714 5.744,2.073 7.764,4.585 1.074,1.336 1.799,2.885 1.468,4.647 -0.399,2.128 -1.911,2.965 -3.619,3.945 -2.408,-1.309 -5.277,-3.178 -7.163,-5.178 -1.315,-1.396 -1.792,-2.707 -1.664,-4.623 0.647,-1.582 1.907,-2.367 3.214,-3.376 z"
     id="path86" />
  <path
     fill="#1c2c2f"
     d="m 774.324,261.084 c 0.046,-0.207 0.095,-0.415 0.139,-0.623 0.858,-4.068 -1.379,-4.741 -1.406,-7.968 -0.015,-1.845 1.824,-1.32 0.654,-3.429 -1.488,-2.682 -5.228,-4.894 -5.13,-8.216 1.018,-0.721 2.42,-1.072 3.68,-0.951 0.734,0.071 1.213,0.121 1.629,0.717 4.566,6.529 5.256,13.968 6.125,21.651 -0.902,-0.205 -1.039,-0.286 -1.824,-0.893 -0.132,-1.037 -0.226,-1.633 -0.671,-2.599 -1.139,0.715 -2.151,1.472 -3.196,2.311 z"
     id="path87" />
  <path
     fill="#07161a"
     d="m 782.375,249.064 c 0.63,-0.385 1.191,-0.687 1.652,-1.28 1.311,-1.683 2.71,-3.476 4.362,-4.832 1.15,7.157 2.553,14.065 3.347,21.325 -1.747,-0.017 -3.012,0.236 -4.532,-0.665 -0.248,-0.819 -0.502,-1.621 -0.806,-2.422 l -0.254,-0.65 c -2.165,-1.331 -3.149,-8.923 -3.769,-11.476 z"
     id="path88" />
  <path
     fill="#07161a"
     d="m 575.4,251.506 c 2.36,-0.052 4.955,0.782 6.957,2.013 0.683,1.155 0.959,1.473 0.644,2.872 -0.831,3.682 -5.186,5.411 -8.189,6.748 -0.704,0.436 -1.545,1.044 -2.329,1.298 -1.009,0.326 -1.62,0.169 -2.571,-0.24 -1.172,-0.505 -1.834,-1.521 -2.171,-2.717 -0.518,-1.842 0.244,-4.322 1.201,-5.897 1.529,-2.517 3.704,-3.436 6.458,-4.077 z"
     id="path89" />
  <path
     fill="#07161a"
     d="m 572.919,289.5 c 1.282,-0.107 2.704,-0.3 3.975,-0.068 2.002,0.366 4.099,1.822 5.177,3.536 1.297,2.063 1.549,4.473 1.018,6.821 -0.761,3.364 -2.762,5.167 -5.536,6.994 -1.224,0.411 -2.562,0.761 -3.856,0.516 -1.857,-0.351 -3.534,-1.404 -4.56,-3.004 -1.453,-2.266 -1.636,-5.181 -1.107,-7.761 0.654,-3.192 2.196,-5.278 4.889,-7.034 z"
     id="path90" />
  <path
     fill="#07161a"
     d="m 678.627,291.935 c 0.857,0.004 1.765,-0.005 2.608,0.166 2.119,0.431 4.197,2.217 5.298,4.021 1.419,2.326 1.612,5.254 0.989,7.859 -0.78,3.263 -2.784,5.295 -5.529,7.054 -3.459,-0.532 -6.01,-0.703 -8.155,-3.809 -1.554,-2.25 -2.029,-4.901 -1.456,-7.568 0.836,-3.885 2.997,-5.701 6.245,-7.723 z"
     id="path91" />
  <path
     fill="#07161a"
     d="m 491.481,232.062 c 1.694,0.25 3.599,0.355 5.112,1.177 -0.091,0.975 -0.031,1.602 0.241,2.543 0.727,-0.063 0.935,-0.088 1.636,0.189 0.153,2.882 -3.971,6.659 -5.676,9.147 0.969,-2.286 1.866,-4.458 2.409,-6.895 -0.201,0.065 -0.414,0.101 -0.603,0.194 -1.571,0.777 -3.448,3.852 -4.064,5.443 0.653,0.593 1.238,1.145 1.77,1.85 -3.275,4.37 -4.691,3.359 -7.293,6.113 l 0.41,1.094 c 1.44,0.165 2.096,-0.787 3.217,-1.636 l 0.705,0.313 -0.052,1.931 0.62,0.432 c 0.977,-0.563 1.733,-1.135 2.892,-1.15 l 0.129,0.842 -0.943,1.126 c -2.374,0.192 -3.551,0.977 -5.38,2.379 l -0.434,0.336 c 1.207,0.367 2.851,0.041 4.124,-0.048 l 0.387,0.61 c 0.017,3.872 -0.309,8.656 -1.521,12.325 -0.571,0.41 -0.829,0.786 -1.572,0.765 -1.742,-0.049 -3.401,-1.295 -4.419,-2.649 -2.773,-3.69 0.456,-4.36 0.979,-7.326 l -1.165,-1.53 c 0.134,-1.725 1.322,-2.128 1.636,-3.725 -0.957,-0.219 -1.891,-0.471 -2.832,-0.75 l -0.081,-0.688 c 1.007,-0.594 1.752,-0.92 2.329,-1.979 l -0.305,-0.636 -1.402,0.081 -0.336,-0.432 c 0.934,-0.525 1.159,-0.524 1.742,-1.475 -0.584,-0.563 -1.047,-1.081 -1.499,-1.753 1.008,-6.54 4.237,-11.95 9.239,-16.218 z"
     id="path92" />
  <path
     fill="#07161a"
     d="m 618.961,320.821 c 0.762,0.178 1.388,0.333 2.178,0.257 8.14,-0.777 17.489,1.579 24.11,6.495 4.384,3.254 7.411,7.842 8.051,13.323 0.651,5.575 -1.599,11.719 -5.186,15.955 -5.919,6.99 -15.541,9.757 -24.303,10.637 0.451,2.796 1.004,5.581 1.518,8.366 3.183,3.05 6.661,4.39 8.81,8.572 0.011,1.12 0.188,1.684 -0.78,2.463 -1.859,1.495 -5.774,1.167 -7.978,1.029 -2.247,0.022 -4.004,-1.555 -5.713,-2.816 -0.923,-0.189 -1.349,-0.159 -2.213,0.238 -0.574,0.263 -1.131,0.563 -1.71,0.813 -1.633,0.707 -3.027,0.465 -4.625,-0.217 -1.231,-2.956 2.904,-4.376 3.709,-6.851 1.141,-3.51 1.025,-8.665 1.312,-12.41 -7.646,-0.593 -16.472,-3.012 -22.402,-8.088 -4.089,-3.499 -6.729,-8.422 -7.116,-13.815 -0.364,-5.08 1.201,-9.568 4.584,-13.372 6.787,-7.631 17.994,-10.088 27.754,-10.579 z"
     id="path93" />
  <path
     fill="#ebece9"
     d="m 614.033,333.186 c 0.402,-0.061 0.806,-0.112 1.212,-0.139 2.554,-0.168 4.68,-0.302 6.671,1.512 0.069,1.302 0.035,1.548 -0.903,2.586 -2.929,3.241 -10.282,3.336 -14.383,3.561 -2.483,0.501 -3.985,0.518 -6.398,-0.285 -0.263,-1.146 -0.247,-1.464 0.449,-2.532 2.076,-3.186 9.755,-4.27 13.352,-4.703 z"
     id="path94" />
  <path
     fill="#ebece9"
     d="m 724.802,354.56 c 0.308,8.283 9.926,25.5 13.79,33.868 0.666,1.442 2.258,3.953 2.314,5.511 0.007,0.185 -0.028,0.37 -0.03,0.555 -0.027,2.378 0.782,3.407 2.378,4.983 l 1.922,-0.295 0.279,0.524 -1.08,2.033 c 0.269,2.261 2.301,4.221 3.201,6.34 3.091,7.278 4.932,15.31 8.744,22.313 1.043,1.917 2.628,3.484 3.758,5.345 1.012,1.665 0.813,1.889 0.363,3.779 l 0.7,0.877 1.517,-0.363 0.346,0.462 c -0.442,0.678 -0.785,1.144 -0.897,1.969 -0.299,2.203 3.965,7.173 5.254,8.931 0.092,0.976 0.136,0.538 -0.183,1.603 -0.324,1.078 -0.22,0.899 0.176,1.875 0.522,0.294 1.8,0.887 2.108,1.401 1.025,1.711 1.219,5.575 1.875,7.627 1.416,4.423 3.505,9.415 5.882,13.411 l 0.96,-0.101 0.353,0.473 c -0.578,0.744 -0.778,1.086 -1.1,2.01 2.491,2.736 1.606,3.044 1.935,6.421 0.111,1.136 0.201,1.185 1.026,1.898 l 1.721,-0.35 c -0.076,0.114 -0.163,0.222 -0.227,0.343 -0.23,0.441 -0.452,0.888 -0.719,1.307 l -0.474,0.735 c 0.594,1.196 1.594,0.338 2.701,1.19 -0.724,0.716 -0.371,0.536 -1.347,0.834 -0.23,0.069 -0.463,0.124 -0.694,0.186 0.05,5.805 6.057,11.038 6.341,16.764 0.061,1.231 0.024,2.016 0.624,3.125 l 1.503,0.355 0.411,0.986 c -0.374,0.894 -0.728,1.781 -1.044,2.697 1.24,3.989 3.482,7.535 4.778,11.466 0.83,2.52 0.571,5.312 1.665,7.741 0.453,1.005 1.132,1.977 1.751,2.887 3.644,5.352 4.778,17.39 7.371,24.233 0.517,1.364 -0.494,1.815 -0.268,2.759 0.337,1.41 1.81,2.204 1.962,3.964 0.43,4.961 3.097,9.442 3.18,14.342 l -1.013,0.611 c -0.085,1.559 1.874,2.367 2.267,4.378 0.61,3.125 0.983,11.837 2.39,14.138 0.549,0.898 1.613,0.643 2.132,1.95 -0.826,1.857 -1.15,2.801 -0.507,4.838 0.761,2.413 1.729,4.967 1.93,7.505 0.339,4.293 -1.039,8.973 1.432,12.649 -0.069,0.244 -0.108,0.498 -0.206,0.732 -1.305,3.107 0.131,12.18 -0.286,16.484 -0.93,9.582 -3.158,18.384 -6.694,27.306 -1.19,3.003 -2.538,5.777 -4.297,8.486 -2.015,3.103 -10.813,13.855 -13.828,15.153 l -0.749,-0.973 c -3.636,0.883 -7.536,4.504 -11.215,5.966 -1.117,-0.411 -2.322,-1.012 -3.53,-0.801 -0.847,0.148 -1.507,2.001 -1.923,2.749 -1.498,0.246 -1.387,0.198 -2.689,-0.567 -1.176,-0.69 -1.103,-0.615 -2.417,-0.254 -0.874,1.031 -1.422,1.708 -2.784,2.085 -0.211,0.058 -0.425,0.107 -0.636,0.164 -4.501,1.205 -10.253,0.681 -14.358,2.387 -2.378,0.988 -4.84,2.209 -7.424,2.432 -0.444,-0.43 -0.751,-0.78 -1.077,-1.316 -0.097,-0.158 -0.185,-0.321 -0.277,-0.481 -2.672,0.119 -4.529,2.784 -7.059,3.183 -1.357,0.214 -1.7,-0.059 -2.768,-0.758 -1.93,-4.29 3.012,-9.181 2.418,-13.612 -0.111,-0.829 -0.59,-0.997 -1.175,-1.511 -1.147,-0.289 -2.245,-0.553 -3.433,-0.37 -1.916,0.295 -3.366,1.463 -4.459,3.019 -2.855,4.066 -3.029,7.94 -2.184,12.592 -3.349,-1.027 -6.723,-1.93 -10.109,-2.826 0.646,-3.926 5.059,-13.552 4.762,-15.691 -0.458,-0.593 -0.598,-1.06 -1.372,-1.242 -1.904,-0.447 -3.816,0.532 -5.353,1.57 -1.987,1.342 -4.508,4.73 -4.932,7.096 0.15,0.343 0.297,0.686 0.431,1.035 0.377,0.981 1.046,2.081 0.624,3.056 l -0.375,-0.431 c -1.42,-1.652 -2.953,-3.199 -2.67,-5.488 0.609,-4.942 3.699,-9.347 7.526,-12.378 9.338,-7.399 22.302,-9.253 33.797,-7.622 3.397,0.482 6.854,1.724 10.212,1.999 1.594,0.13 3.743,-0.086 4.871,-1.346 1.051,-1.174 1.422,-3.794 1.052,-5.294 -1.355,-5.49 -12.035,-4.956 -16.133,-8.057 -8.605,-6.512 -12.647,-24.976 -13.836,-34.985 -2.044,-17.202 0.326,-33.433 11.245,-47.207 l -0.29,-1.71 0.48,-0.436 0.884,0.72 c 3.211,-0.655 4.58,-5.147 8.037,-6.287 6.663,-2.197 12.885,-3.169 19.828,-3.833 0.919,0.909 1.804,1.582 2.979,2.143 2.487,1.188 5.301,1.204 7.836,0.156 1.518,-0.627 2.376,-1.377 3.002,-2.933 0.037,-1.306 -0.077,-2.158 -0.751,-3.268 -1.007,-1.661 -2.601,-3.016 -4.223,-4.051 -5.734,-3.658 -7.172,-0.188 -11.674,-1.426 l -0.676,-1.773 c -0.958,0.396 -0.685,0.201 -1.398,0.76 -0.148,0.117 -0.291,0.241 -0.436,0.362 -6.315,-1.394 -10.037,0.215 -15.794,2.608 -0.665,0.277 -2.352,1.1 -3.04,1.098 -0.754,-0.003 -0.752,-0.639 -1.865,-0.499 -12.34,9.811 -22.233,23.409 -25.93,38.987 0.272,0.619 0.637,1.339 0.809,2.006 0.414,1.6 -2.022,4.604 -2.882,5.98 q 0.238,0.709 0.467,1.42 c 0.888,2.761 1.233,3.97 -0.181,6.645 -2.822,5.339 5.498,26.159 6.234,32.969 l -1.073,1.173 c 2.223,3.1 5.306,6.873 8.336,9.173 1.223,0.929 2.421,1.885 3.635,2.825 -1.364,1.243 -3.186,-0.375 -4.998,0.973 -8.123,-0.252 -15.359,3.504 -22.363,7.192 2.348,-6.596 2.504,-13.377 3.549,-20.231 -0.989,-2.087 1.069,-7.606 1.476,-9.934 -2.013,-3.738 0.898,-5.522 0.943,-9.282 -0.336,-0.485 -0.687,-0.96 -0.987,-1.468 -1.544,-2.615 1.496,-5.201 1.974,-7.725 0.552,-2.915 -1.101,-7.125 0.027,-9.826 0.578,-1.384 1.821,-1.56 3.096,-2.103 -1.1,-0.649 -2.314,-0.703 -3.519,-1.222 -0.178,-1.691 1.41,-2.24 1.767,-3.884 l -1.237,-0.121 -0.3,-0.804 c 0.964,-0.314 1.239,-0.646 1.837,-1.451 0.102,-2.004 -1.27,-2.325 -1.28,-4.57 -0.021,-4.952 -0.002,-10.052 0.088,-14.992 0.028,-1.563 0.806,-3.195 0.486,-4.749 -0.113,-0.55 -0.51,-1.231 -0.841,-1.692 -0.96,-1.34 -3.144,-2.876 -4.859,-2.863 -1.195,0.008 -1.782,0.441 -2.535,1.333 -1.04,1.232 -1.386,3.516 -1.547,5.049 -0.818,7.747 -0.383,15.631 -1.058,23.396 -0.644,7.417 -3.426,16.263 -2.837,23.459 -1.903,8.224 -1.678,17.028 -1.558,25.431 -0.056,0.191 -0.116,0.381 -0.169,0.573 -1.732,6.242 -1.328,13.636 -2.084,20.136 l 1.381,1.39 c -1.212,3.198 -4.43,5.291 -5.498,8.395 -2.714,7.892 0.447,22.146 -9.096,26.301 -1.189,0.518 -2.43,0.517 -3.701,0.592 -0.258,0.016 -0.516,0.038 -0.774,0.055 l -0.464,0.027 -1.134,1.42 c -1.096,-0.045 -1.66,-0.147 -2.481,-1.026 -1.372,-1.467 -1.439,-3.945 -1.129,-5.804 0.558,-3.352 2.355,-6.407 0.013,-9.583 -0.555,-0.753 -1.044,-0.801 -1.871,-1.143 -2.051,0.204 -3.264,1.355 -4.552,2.877 -2.648,3.129 -3.707,6.014 -3.871,10.074 -0.03,0.737 0.124,2.271 -0.094,2.93 -0.356,1.073 -1.195,1.647 -2.274,1.81 -2.288,0.345 -4.484,0.141 -6.812,0.645 -1.698,-1.029 -4.039,-2.16 -4.781,-4.149 -0.703,-1.888 0.144,-4.275 1.057,-5.947 0.711,-1.302 1.685,-2.542 2.555,-3.743 -3.687,0.671 -7.273,1.764 -10.932,2.564 -0.437,1.063 -0.588,2.016 -1.552,2.68 -0.944,-1.539 -0.69,-4.418 -0.772,-6.223 0.87,-1.302 4.767,-5.376 4.894,-6.594 l -1.749,-0.038 -0.112,-0.419 c 2.988,-2.88 6.673,-3.725 9.71,-6.301 5.225,-4.432 5.428,-33.121 5.802,-41.18 0.132,-2.847 1.04,-6.711 0.655,-9.47 -0.075,-0.532 -1.045,-1.287 -1.117,-1.818 -0.271,-2.008 1.575,-11.398 1.706,-14.707 -3.496,-5.429 0.358,-11.411 -1.063,-14.62 -0.249,-0.563 -0.896,-0.889 -1.139,-1.456 -0.338,-0.786 0.873,-6.71 0.888,-8.104 -0.6,-0.4 -0.947,-0.544 -1.28,-1.201 2.484,-4.983 -0.543,-18.334 -1.48,-24.064 q 0.346,-0.615 0.673,-1.241 c 2.43,-4.767 -2.15,-2.742 -2.626,-5.035 -0.437,-2.108 1.687,-5.563 0.293,-9.199 -0.571,-1.486 -1.598,-2.32 -3.071,-2.834 -1.458,-0.508 -3.703,-0.39 -5.057,0.317 -1.334,1.623 -1.625,3.13 -1.822,5.163 -0.731,7.576 0.194,16.052 0.335,23.679 0.208,11.224 0.845,22.407 1.125,33.618 0.103,4.132 -0.382,8.329 -0.202,12.416 0.146,3.341 0.999,6.938 0.674,10.252 -0.86,8.789 0.142,18.114 -1.117,26.787 -0.388,2.671 -1.434,5.218 -1.944,7.865 -0.273,1.411 0.593,2.85 0.298,3.989 -1.061,4.103 -9.386,8.825 -11.806,12.936 -2.697,4.584 -2.354,8.696 -3.758,13.465 -2.43,2.854 -6.48,2.765 -9.973,3.286 1.393,-25.151 0.985,-50.617 0.381,-75.806 -0.356,-14.86 -0.507,-29.672 -1.281,-44.525 -0.654,-12.534 -0.506,-25.034 -1.319,-37.563 -0.174,-2.676 -2.067,-11.179 -1.548,-12.921 0.137,-0.462 0.355,-0.945 0.51,-1.412 -1.318,-1.766 -4.069,-5.838 -6.11,-6.657 -0.744,-0.299 -1.826,0.22 -2.519,0.474 -0.242,0.089 -0.481,0.182 -0.722,0.273 -0.103,-0.103 -0.201,-0.213 -0.31,-0.31 -0.608,-0.539 -1.186,-0.954 -1.986,-1.179 -2.034,-0.57 -12.396,-1.483 -14.303,-1.284 -3.077,0.322 -5.989,-1.061 -8.726,-0.662 l -0.83,1.439 c -1.485,0.182 -1.789,0.01 -2.991,-0.937 -0.155,-0.123 -0.306,-0.252 -0.46,-0.378 -0.356,0.096 -0.866,0.259 -1.229,0.234 -1.257,-0.087 -1.671,-0.393 -2.992,-0.082 -0.94,0.222 -1.532,0.372 -2.506,0.187 -0.216,-0.459 -0.276,-0.531 -0.393,-1.104 -1.492,-7.255 1.319,-25.114 1.675,-33.546 0.083,-1.951 -0.404,-9.316 0.138,-10.646 0.24,-0.589 0.772,-1.012 1.158,-1.517 0.222,-2.409 -0.622,-5.005 -1.128,-7.356 0.624,-0.676 1.589,-1.524 1.834,-2.439 1.215,-4.538 1.353,-15.956 1.818,-21.187 0.9,-10.111 2.443,-20.007 3.624,-30.058 0.703,-5.979 0.881,-11.949 1.793,-17.918 16.502,5.835 28.464,8.639 46.125,7.948 3.821,-0.15 8.058,-0.078 11.696,-1.286 5.402,-1.793 4.89,-2.299 10.292,-0.266 0.807,-0.765 1.569,-1.426 2.496,-2.042 6.537,3.115 4.279,-2.067 8.524,-3.347 0.608,0.301 1.087,0.606 1.641,1.012 0.202,0.148 0.401,0.302 0.602,0.453 l 1.097,-0.216 c 3.23,-3.772 2.506,-0.556 5.447,-1.839 0.549,-0.955 1.015,-1.956 1.95,-2.589 0.672,-0.454 1.641,-0.158 2.397,-0.039 l 0.578,0.097 c 14.888,-6.9 27.081,-15.956 37.34,-28.876 3.74,-4.709 6.472,-10.016 11.061,-13.976 z"
     id="path95" />
  <path
     fill="#1c2c2f"
     d="m 630.462,471.01 c -0.145,1.261 -0.101,2.041 -1.028,2.99 -1.539,0.295 -2.604,0.105 -3.931,-0.784 -0.406,-0.272 -0.783,-0.586 -1.168,-0.887 0.747,-0.51 1.398,-0.844 2.214,-1.217 1.394,0.211 2.585,0.541 3.913,-0.102 z"
     id="path96" />
  <path
     fill="#07161a"
     d="m 621.55,466.775 c 1.701,0.469 3.407,0.797 5.118,1.209 2.134,0.514 2.69,1.276 3.794,3.026 -1.328,0.643 -2.519,0.313 -3.913,0.102 -0.816,0.373 -1.467,0.707 -2.214,1.217 z"
     id="path97" />
  <path
     fill="#07161a"
     d="m 645.876,705.046 -0.831,-0.869 c 0.015,-0.225 0.01,-0.453 0.044,-0.677 0.287,-1.877 1.74,-3.909 3.206,-5.087 1.785,-1.436 4.95,-3.213 7.352,-2.618 0.582,0.144 1.307,0.545 1.592,1.102 0.868,1.692 0.256,3.942 -0.431,5.585 -3.687,0.671 -7.273,1.764 -10.932,2.564 z"
     id="path98" />
  <path
     fill="#07161a"
     d="m 722.175,404.231 c 0.878,0.171 1.503,0.283 2.277,0.787 2.898,1.892 6.696,7.74 6.994,11.245 0.142,1.666 -0.64,2.653 -1.555,3.928 -1.41,-0.114 -2.441,-0.418 -3.605,-1.218 -2.988,-2.055 -4.798,-5.393 -5.424,-8.904 -0.468,-2.626 -0.128,-3.68 1.313,-5.838 z"
     id="path99" />
  <path
     fill="#07161a"
     d="m 631.499,452.443 c 1,-0.007 1.936,0.146 2.921,0.302 0.671,0.42 1.195,0.807 1.637,1.48 1.824,2.783 2.885,7.413 1.585,10.623 -0.662,1.633 -2.085,1.861 -3.568,2.512 -0.152,0.008 -0.303,0.028 -0.455,0.026 -1.992,-0.029 -3,-1.135 -4.333,-2.423 -0.268,-1.735 -0.59,-3.511 -0.706,-5.262 -0.211,-3.176 0.846,-4.963 2.919,-7.258 z"
     id="path100" />
  <path
     fill="#07161a"
     d="m 711.118,414.477 c 1.406,-0.149 3.009,-0.293 4.208,0.547 3.194,2.239 6.141,7.92 6.694,11.688 0.274,1.87 -0.54,3.036 -1.579,4.449 -1.397,-0.04 -2.577,-0.112 -3.812,-0.893 -3.191,-2.017 -5.347,-7.636 -6.186,-11.142 -0.496,-2.075 -0.419,-2.818 0.675,-4.649 z"
     id="path101" />
  <path
     fill="#07161a"
     d="m 617.981,442.017 c 1.889,0.166 3.774,0.119 5.37,1.25 2.957,4.105 -0.875,10.312 -2.123,14.579 -0.694,2.37 -1,4.858 -1.351,7.297 -4.54,-2.721 -5.845,-4.611 -7.319,-9.667 1.04,-5.215 1.694,-9.391 5.423,-13.459 z"
     id="path102" />
</svg>
