<?xml version="1.0" encoding="UTF-8" standalone="no"?>
<svg
   width="1024"
   height="1024"
   version="1.1"
   id="svg134"
   xmlns="http://www.w3.org/2000/svg"
   xmlns:svg="http://www.w3.org/2000/svg">
  <path
     fill="#3c3b3f"
     d="m 230.448,748.957 c 1.146,-0.962 2.318,-1.495 3.665,-2.101 0.4,5.066 0.65,10.14 0.349,15.221 -2.525,-3.968 -3.648,-8.438 -4.014,-13.12 z"
     id="path1" />
  <path
     fill="#050609"
     fill-opacity="0.964706"
     d="m 570.172,775.045 c -0.833,-8.367 -0.818,-18.199 0.166,-26.543 2.689,3.25 2.007,9.818 1.608,13.857 -0.42,4.261 -1.395,8.401 -1.774,12.686 z"
     id="path2" />
  <path
     fill="#050609"
     d="m 763.697,929.394 c 1.61,0.045 3.055,0.077 4.472,0.94 1.042,0.635 1.594,1.646 1.652,2.854 0.077,1.591 -1.324,2.929 -2.282,4.05 -1.549,0.117 -2.886,0.109 -4.129,-0.976 -0.997,-0.87 -1.545,-1.901 -1.537,-3.248 0.01,-1.681 0.728,-2.465 1.824,-3.62 z"
     id="path3" />
  <path
     fill="#27282d"
     d="m 670.793,774.093 2.077,0.676 c 0.254,0.758 0.43,1.426 0.391,2.235 -0.187,3.862 -2.391,7.901 -5.135,10.515 -0.042,-0.013 -0.087,-0.019 -0.126,-0.038 -1.333,-0.649 -1.421,-0.613 -1.902,-1.971 0.44,-3.729 2.052,-8.64 4.695,-11.417 z"
     id="path4" />
  <path
     fill="#050609"
     d="m 773.26,929.475 c 1.858,-0.135 4.195,-0.255 5.726,1.035 0.988,0.832 1.573,1.584 1.608,2.927 0.043,1.609 -0.915,2.708 -1.908,3.84 -1.383,0.179 -3.434,0.626 -4.74,0.05 -0.732,-0.323 -1.348,-0.819 -1.653,-1.561 -0.906,-2.199 0.104,-4.25 0.967,-6.291 z"
     id="path5" />
  <path
     fill="#050609"
     d="m 205.093,928.982 c 1.586,0.035 3.055,0.101 4.339,1.196 0.944,0.806 1.347,1.82 1.226,3.056 -0.215,2.201 -1.574,3.481 -3.149,4.857 -0.572,0.021 -1.416,0.108 -1.993,-0.04 -1.29,-0.331 -2.506,-1.107 -3.205,-2.265 -0.687,-1.139 -0.714,-2.523 -0.315,-3.764 0.532,-1.659 1.681,-2.267 3.097,-3.04 z"
     id="path6" />
  <path
     fill="#050609"
     d="m 188.953,929.471 c 1.923,-0.018 3.717,-0.146 5.282,1.199 0.932,0.802 1.442,1.87 1.321,3.112 -0.213,2.194 -1.753,3.297 -3.348,4.554 -1.439,-0.028 -3.303,-0.252 -4.451,-1.22 -0.995,-0.838 -1.639,-1.812 -1.617,-3.16 0.034,-2.028 1.43,-3.238 2.813,-4.485 z"
     id="path7" />
  <path
     fill="#050609"
     d="m 731.935,929.011 c 2.123,-0.06 3.689,-0.151 5.414,1.292 1.02,0.855 1.733,1.875 1.721,3.262 -0.017,2.043 -1.272,3.176 -2.659,4.433 -1.623,0.417 -3.023,0.444 -4.477,-0.536 -0.936,-0.63 -1.486,-1.469 -1.73,-2.561 -0.541,-2.417 0.42,-3.975 1.731,-5.89 z"
     id="path8" />
  <path
     fill="#050609"
     d="m 242.307,928.948 c 1.688,0.167 3.454,0.422 4.731,1.657 0.912,0.884 1.191,1.854 0.999,3.098 -0.375,2.427 -2.055,3.289 -3.942,4.549 -0.303,-0.033 -0.606,-0.059 -0.908,-0.099 -2.033,-0.267 -3.33,-1.253 -4.576,-2.808 -0.302,-0.928 -0.502,-1.55 -0.248,-2.538 0.536,-2.091 2.214,-2.904 3.944,-3.859 z"
     id="path9" />
  <path
     fill="#050609"
     d="m 748.305,928.388 c 2.104,0.193 4.322,0.315 5.635,2.222 0.765,1.111 1.071,2.116 0.733,3.455 -0.522,2.075 -2.043,2.988 -3.716,4.056 -1.631,-0.291 -3.285,-0.816 -4.476,-2.029 -0.891,-0.908 -1.481,-2.129 -1.343,-3.429 0.216,-2.028 1.606,-3.193 3.167,-4.275 z"
     id="path10" />
  <path
     fill="#050609"
     d="m 719.405,929.617 c 1.033,-0.027 2.626,-0.074 3.602,0.322 1.085,0.44 2.132,1.574 2.498,2.7 0.431,1.323 0.268,2.431 -0.442,3.628 -0.845,1.424 -2.142,1.783 -3.61,2.255 -2.178,-0.424 -4.781,-0.979 -5.921,-3.16 -0.393,-0.752 -0.518,-1.471 -0.269,-2.272 0.63,-2.025 2.377,-2.661 4.142,-3.473 z"
     id="path11" />
  <path
     fill="#27282d"
     d="m 262.321,684.868 c 0.015,-0.332 0.034,-0.663 0.047,-0.995 0.141,-3.861 -1.605,-9.783 1.375,-12.929 0.629,-0.663 1.037,-0.855 1.888,-1.103 1.161,0.501 1.56,0.886 1.988,2.118 1.475,4.236 -1.465,9.389 -0.537,13.899 -1.607,-0.585 -3.065,-0.803 -4.761,-0.99 z"
     id="path12" />
  <path
     fill="#050609"
     d="m 224.405,929.087 c 1.544,-0.083 4.032,-0.372 5.438,0.32 1.478,0.727 2.878,1.997 3.373,3.611 0.317,1.031 0.013,2.377 -0.679,3.186 -0.868,1.017 -1.894,1.339 -3.155,1.526 -0.933,-0.077 -0.581,-0.078 -1.378,-0.051 -0.215,0.007 -0.43,0.02 -0.645,0.026 -3.217,0.09 -5.326,-0.69 -7.681,-2.939 -0.244,-0.81 -0.579,-1.235 -0.228,-2.065 0.873,-2.061 3.016,-2.849 4.955,-3.614 z"
     id="path13" />
  <path
     fill="#050609"
     d="m 688.986,617.793 c 1.098,0.049 2.61,-0.015 3.592,0.518 2.227,1.21 3.427,5.714 3.706,8.035 0.331,2.759 0.86,6.794 -0.945,8.986 -0.971,-0.086 -2.292,-0.11 -3.121,-0.669 -2.601,-1.754 -4.431,-9.173 -4.67,-12.101 -0.167,-2.05 0.077,-3.216 1.438,-4.769 z"
     id="path14" />
  <path
     fill="#191a21"
     d="m 237.041,559.474 0.405,0.156 c 0.471,0.468 0.74,0.855 0.894,1.512 1.045,4.444 -0.793,13.549 -3.462,17.176 -1.052,1.429 -2.134,1.257 -3.755,1.512 -0.481,-0.397 -0.956,-0.967 -1.223,-1.528 -1.618,-3.391 0.536,-11.717 2.194,-14.92 1.243,-2.401 2.421,-3.035 4.947,-3.908 z"
     id="path15" />
  <path
     fill="#050609"
     d="m 328.95,265.642 c 1.343,0.099 2.115,0.122 3.288,0.858 1.574,4.111 -0.159,11.64 0.628,16.385 0.487,2.933 2.502,6.45 2.29,9.371 -0.104,1.44 -0.93,1.627 -2.023,2.309 -2.687,-1.948 -3.613,-4.231 -4.633,-7.291 -2.302,-6.911 -2.854,-14.993 0.45,-21.632 z"
     id="path16" />
  <path
     fill="#191a21"
     d="m 224.741,676.426 0.106,-0.693 c 1.282,-0.702 2.322,-0.455 3.756,-0.429 0.003,0.242 0.002,0.484 0.01,0.725 0.033,0.939 0.255,1.757 0.473,2.664 1.088,4.538 2.579,15.814 -0.487,19.753 -0.448,0.576 -0.542,0.6 -1.06,0.981 -1.53,-0.316 -2.037,-0.711 -2.972,-2.011 -2.625,-3.652 -2.512,-14.257 -1.314,-18.438 0.268,-0.939 0.91,-1.781 1.488,-2.552 z"
     id="path17" />
  <path
     fill="#191a21"
     d="m 630.688,221.46 c 0.916,0.145 2.217,0.251 2.991,0.786 1.922,1.328 2.759,4.543 2.964,6.713 0.498,5.268 -0.917,13.608 -4.367,17.692 l -3.109,0.937 0.027,-0.502 -0.282,0.105 c -0.3,-3.262 0.732,-23.445 1.776,-25.731 z"
     id="path18" />
  <path
     fill="#191a21"
     d="m 311.9,268.748 c 0.816,0.181 1.888,0.318 2.634,0.677 0.837,0.402 1.096,0.674 1.334,1.537 1.029,3.73 -0.755,8.426 -0.492,12.301 0.296,4.377 2.862,8.51 2.95,12.992 0.03,1.511 -0.548,2.602 -1.258,3.884 -0.132,-0.065 -0.264,-0.127 -0.395,-0.194 -3.089,-1.589 -4.408,-4.729 -5.349,-7.943 -1.939,-6.63 -2.729,-17.101 0.576,-23.254 z"
     id="path19" />
  <path
     fill="#191a21"
     d="m 303.769,394.105 q 1.104,-0.055 2.209,-0.062 c 3.99,-0.008 5.668,1.82 8.303,4.495 0.005,2.023 -0.2,4.036 -0.365,6.051 -1.599,1.92 -3.087,3.196 -5.183,4.582 -1.319,0.553 -2.863,0.633 -4.266,0.469 -1.73,-0.202 -3.212,-1.03 -4.226,-2.462 -1.352,-1.91 -1.648,-4.417 -1.255,-6.681 0.484,-2.79 2.601,-4.777 4.783,-6.392 z"
     id="path20" />
  <path
     fill="#191a21"
     d="m 649.568,393.818 c 1.848,0.606 3.918,2.067 4.942,3.765 1.641,2.722 1.019,5.046 0.186,7.925 l -0.359,0.386 -0.586,0.614 c -2.358,2.518 -3.459,2.872 -6.931,3.19 -1.813,-0.46 -3.64,-1.405 -5.043,-2.648 q -0.278,-0.242 -0.53,-0.511 -0.251,-0.27 -0.474,-0.564 -0.222,-0.293 -0.414,-0.609 -0.191,-0.315 -0.349,-0.648 -0.157,-0.333 -0.28,-0.681 -0.123,-0.347 -0.209,-0.706 -0.087,-0.358 -0.136,-0.723 -0.049,-0.366 -0.06,-0.734 c -0.047,-2.123 0.911,-4.097 2.453,-5.53 2.353,-2.187 4.685,-2.521 7.79,-2.526 z"
     id="path21" />
  <path
     fill="#191a21"
     d="m 230.448,748.957 -0.924,-2.699 c -2.174,-6.232 -7.368,-35.038 -5.964,-40.986 0.263,-1.114 0.837,-1.922 1.922,-2.387 1.219,-0.522 1.907,-0.318 3.051,0.087 0.684,0.858 1.151,1.656 1.383,2.745 0.808,3.806 0.696,8.14 1.16,12.038 1.145,9.623 2.948,19.403 3.037,29.101 -1.347,0.606 -2.519,1.139 -3.665,2.101 z"
     id="path22" />
  <path
     fill="#191a21"
     d="m 671.927,699.504 c 1.115,-0.025 2.293,-0.112 3.395,0.078 1.009,0.175 1.451,0.319 1.947,1.283 2.666,5.186 2.304,34.369 1.454,41.027 -0.254,1.982 -0.774,3.644 -1.611,5.452 -1.24,0.633 -1.982,0.816 -3.373,0.847 -0.692,-0.399 -1.239,-0.594 -1.711,-1.267 -0.663,-0.944 -0.625,-2.16 -0.651,-3.26 -0.144,-6.079 0.569,-12.202 0.6,-18.295 0.036,-7.086 -0.946,-19.715 -0.05,-25.865 z"
     id="path23" />
  <path
     fill="#050609"
     d="m 262.321,684.868 c 1.696,0.187 3.154,0.405 4.761,0.99 q -0.169,21.758 0.385,43.509 c 0.129,3.905 1.137,7.682 1.17,11.587 0.015,1.743 -0.078,3.049 -0.979,4.557 -1.215,0.525 -1.295,0.345 -2.579,-0.064 -1.969,-1.794 -2.927,-6.205 -3.354,-8.755 -0.775,-4.622 -1.51,-9.438 -1.708,-14.12 -0.301,-7.143 0.58,-14.006 0.886,-21.106 0.191,-4.445 -0.439,-8.962 0.205,-13.389 0.181,-1.241 0.483,-2.169 1.213,-3.209 z"
     id="path24" />
  <path
     fill="#191a21"
     d="m 224.133,637.562 3.077,-2.548 c -0.005,-1.442 -0.657,-2.011 -1.455,-3.197 -0.387,-0.574 -0.957,-1.279 -1.14,-1.956 -1.265,-4.672 1.577,-31.919 3.751,-36.939 0.441,-1.019 0.672,-1.535 1.796,-1.831 1.298,-0.342 3.293,-0.509 4.53,0.048 0.589,1.015 0.819,1.851 0.742,3.039 -0.268,4.144 -1.64,8.493 -2.28,12.634 -1.025,6.639 -1.5,13.487 -1.813,20.196 -0.126,2.691 -1.691,4.208 -2.2,6.594 -0.029,0.14 0.861,15.01 0.81,17.468 0.078,7.331 1.403,17.401 -1.348,24.234 -1.434,-0.026 -2.474,-0.273 -3.756,0.429 l -0.106,0.693 c -0.321,-1.372 -1.133,-2.574 -1.4,-4.004 -1.205,-6.467 -0.397,-14.091 -0.328,-20.677 0.778,-4.793 1.034,-9.335 1.12,-14.183 z"
     id="path25" />
  <path
     fill="#191a21"
     d="m 692.532,645.791 c 1.326,0.174 2.712,0.299 4.017,0.586 1.433,0.316 2.068,0.465 2.855,1.782 2.973,4.976 1.555,12.614 2.046,18.235 0.281,3.217 1.82,6.22 2.274,9.398 0.434,3.035 -0.394,6.223 -0.148,9.293 0.298,3.704 1.787,7.28 2.15,11.004 1.04,10.648 0.292,39.865 -2.07,50.146 -0.091,0.099 -0.173,0.208 -0.274,0.298 -0.863,0.769 -2.061,1.272 -3.219,1.177 -0.709,-0.058 -1.233,-0.442 -1.632,-1.039 -2.098,-3.137 0.292,-18.851 0.3,-23.269 0.027,-15.341 -1.246,-30.328 -2.448,-45.594 -0.343,-4.36 -0.311,-8.759 -0.686,-13.108 -0.567,-6.562 -3.408,-12.073 -3.165,-18.909 z"
     id="path26" />
  <path
     fill="#191a21"
     d="m 398.532,247.486 c -2.676,-2.899 -7.217,-6.844 -8.968,-10.298 -2.371,-4.678 1.927,-15.173 -0.083,-19.656 -0.455,-1.013 -0.822,-1.289 -1.893,-1.5 -6.504,-1.283 -12.357,2.531 -21.465,-1.173 -6.34,-2.578 -10.302,-7.445 -12.872,-13.604 -3.12,-7.478 -3.532,-16.44 -0.239,-23.928 6.008,-13.661 21.811,-16.576 34.102,-21.854 1.309,-0.562 2.685,-1.163 3.244,-2.568 l -0.548,-0.651 c -3.414,-0.906 -7.003,-2.345 -10.122,-4.015 -4.066,-2.177 -8.284,-6.315 -9.566,-10.851 -1.989,-7.037 -1.185,-17.355 2.57,-23.619 2.261,-3.774 6.11,-7.455 10.426,-8.508 23.873,-5.8248 48.737,-7.5903 73.027,-11.1241 12.975,-1.8877 33.314,-6.7272 45.678,-6.5197 6.879,0.1155 15.111,3.4023 21.858,4.9633 l 43.8,9.8035 c 12.795,2.884 25.909,4.787 38.654,7.764 1.931,0.452 3.515,1.072 5.206,2.096 0.799,1.274 1.466,2.892 1.136,4.438 -0.868,4.061 -8.35,4.164 -11.355,6.239 -3.906,5.874 -2.321,17.578 -2.368,24.58 l 8.885,-0.001 c 1.67,1.207 3.87,2.55 3.981,4.855 0.105,2.208 -1.62,3.609 -3.083,4.955 -4.86,1.405 -21.051,2.142 -23.757,4.427 -4.011,3.387 -3.38,16.002 -3.361,21.125 2.432,0.591 4.999,0.677 7.488,0.891 1.545,1.354 2.817,3.008 4.138,4.576 -0.123,0.165 -0.248,0.328 -0.369,0.495 -0.964,1.334 -1.889,2.828 -3.229,3.82 -7.387,5.471 -37.094,11.885 -40.841,18.443 0.269,0.113 0.534,0.236 0.807,0.337 2.695,0.994 6.923,0.464 9.837,0.478 6.833,0.032 13.667,0.289 20.497,0.285 6.901,-0.005 25.093,-2.935 29.206,4.423 0.925,1.653 0.823,3.532 0.272,5.296 -0.431,1.377 -1.079,2.27 -2.344,3.013 -3.611,2.122 -7.344,-0.594 -9.281,4.638 -1.953,5.278 -2.369,14.241 -0.611,19.57 0.857,0.998 1.536,1.251 2.723,1.731 2.398,0.059 4.055,0.54 6.268,1.425 l 0.897,0.351 c 0.179,0.072 0.356,0.147 0.534,0.22 l 2.458,3.774 c -1.885,3.231 -3.226,5.391 -7.08,6.379 -4.784,1.225 -12.252,-1.452 -15.443,3.359 -0.454,0.684 -0.844,1.412 -1.23,2.136 -1.587,6.014 -1.702,12.07 -1.581,18.242 2.413,-0.904 4.722,-1.397 7.243,-1.838 1.925,1.832 3.202,2.978 3.224,5.735 0.011,1.406 -0.426,2.333 -1.475,3.287 -4.284,3.895 -35.233,6.158 -35.988,10.524 5.003,2.604 23.767,0.403 28.651,4.219 0.875,0.684 1.717,2.401 2.064,3.441 0.336,1.008 0.287,1.728 0.01,2.73 -2.367,3.265 -5.344,2.007 -8.414,3.405 -2.774,1.264 -3.119,23.836 -2.729,27.534 2.966,1.953 6.48,0.163 8.738,3.714 0.134,1.245 0.038,2.182 -0.661,3.273 -1.498,2.337 -4.912,1.487 -6.465,3.927 0.481,2.298 2.028,6.68 0.63,8.797 -1.248,1.891 -4.383,1.716 -5.872,3.293 -1.463,1.548 -3.04,13.681 -2.916,15.927 0.046,0.823 0.331,1.468 0.68,2.201 2.233,1.732 5.081,3.439 6.241,6.155 0.287,0.671 0.544,4.497 0.821,4.786 1.65,1.723 11.268,-1.395 15.244,5.984 0.291,0.542 0.532,1.049 0.634,1.66 0.329,1.967 -0.861,4.032 -2.17,5.403 -3.152,3.303 -7.238,3.949 -11.494,4.747 -0.641,7.659 -1.886,15.443 -1.082,23.118 3.971,0.103 9.341,-0.271 12.186,3.185 0.711,0.865 1.328,1.988 1.174,3.156 -0.199,1.499 -1.533,2.634 -2.782,3.304 -4.729,2.534 -16.321,0.18 -17.28,2.63 -1.404,3.586 -1.28,18.133 0.576,21.332 4.143,2.329 12.913,-0.562 14.663,4.519 -0.378,2.795 -1.482,4.88 -3.196,7.092 -2.192,0.256 -4.386,0.549 -6.585,0.728 -0.275,3.344 -1.045,6.571 -2.071,9.763 -0.249,4.726 -0.701,10.321 -0.059,14.995 l 0.767,1.523 c 3.242,0.015 6.354,-0.404 8.887,1.952 0.43,1.538 0.491,2.624 -0.339,4.057 -0.77,1.331 -1.842,2.549 -2.823,3.728 20.608,3.998 50.878,9.741 68.42,21.165 5.551,3.616 10.557,8.693 14.267,14.171 q 0.564,0.845 1.087,1.717 0.522,0.873 1.002,1.769 0.479,0.896 0.914,1.815 0.435,0.919 0.824,1.858 0.39,0.939 0.733,1.896 0.344,0.957 0.64,1.929 0.296,0.972 0.545,1.958 0.248,0.986 0.449,1.982 0.2,0.997 0.351,2.002 0.151,1.006 0.253,2.017 0.102,1.011 0.155,2.027 0.052,1.015 0.055,2.031 0.003,1.017 -0.044,2.032 -0.046,1.016 -0.143,2.028 -0.096,1.012 -0.241,2.018 -0.146,1.006 -0.34,2.004 c -1.834,9.068 -7.749,17.469 -15.461,22.549 -10.731,7.068 -24.416,7.998 -36.672,5.317 -8.166,-1.786 -16.718,-7.063 -23.432,-11.938 -2.164,-1.572 -5.697,-6.343 -8.015,-6.689 -0.71,1.595 -0.14,2.914 0.37,4.486 2.299,7.086 -1.003,23.89 -0.171,25.94 2.778,-0.4 6.839,-5.765 9.751,-7.432 4.796,-2.745 14.68,-3.103 19.098,0.339 5.105,3.978 7.886,10.768 8.428,17.082 0.726,8.448 -2.78,17.374 -5.55,25.232 -8.376,23.758 -19.106,45.257 -33.484,65.946 -3.787,5.449 -7.589,11.045 -11.95,16.058 -1.319,1.517 -2.779,2.922 -4.068,4.463 -0.984,8.344 -0.999,18.176 -0.166,26.543 0.527,1.173 0.163,0.655 1.096,1.553 4.44,-2.134 8.585,-18.349 12.883,-22.992 1.794,-1.937 4.121,-3.386 6.836,-3.341 3.553,0.059 6.785,2.557 9.145,4.995 5.378,5.556 6.67,15.918 6.403,23.386 -0.535,14.97 -8.097,26.276 -18.754,36.128 -0.121,1.993 6.551,5.13 8.134,7.487 2.463,3.665 4.603,7.231 5.704,11.553 1.705,6.698 0.329,14.175 -3.186,20.081 -2.081,3.496 -5.057,7.052 -8.602,9.102 -11.258,6.508 -43.431,9.504 -56.263,7.188 -5.735,-1.035 -14.762,-5.724 -19.396,-5.898 -6.602,-0.248 -13.776,3.32 -20.439,4.048 -7.648,0.836 -16.113,-1.204 -23.553,0.936 -2.248,0.647 -4.181,2.608 -5.727,4.294 -10.95,11.932 -9.81,29.684 -14.429,44.36 -1.553,4.936 -4.636,9.475 -7.17,13.963 q 4.919,-0.745 9.894,-0.852 c 40.029,-1.062 80.206,-0.015 120.253,-0.094 10.982,-0.022 128.244,-1.063 132.084,0.374 1.497,0.561 2.408,2.058 2.843,3.492 -0.152,0.69 -0.082,0.837 -0.614,1.36 -1.585,1.557 -4.399,1.979 -6.492,2.227 -5.168,0.611 -10.771,0.178 -15.979,0.142 q -12.957,-0.095 -25.914,-0.046 l -99.488,0.175 q -102.699,0.486 -205.397,-0.34 l -64.835,0.142 c -8.258,0.004 -16.878,0.67 -25.073,0.172 -2.144,-0.13 -3.819,-0.362 -5.535,-1.738 -0.603,-1.051 -0.946,-2.113 -0.661,-3.35 0.78,-3.392 7.09,-2.573 9.822,-2.57 l 118.261,-10e-4 c 3.468,10e-4 25.466,0.928 26.706,0.265 0.157,-1.289 0.092,-0.99 -0.681,-1.893 -3.348,-3.916 -5.903,-7.413 -7.872,-12.23 -4.024,-9.849 -5.773,-31.309 -7.098,-42.374 -1.74,-14.541 -1.036,-29.62 -1.181,-44.249 q -0.603,-41.031 -0.275,-82.064 c -19.713,-22.589 -54.426,-80.505 -52.963,-110.774 0.288,-5.963 2.587,-12.59 7.255,-16.549 3.373,-2.861 7.67,-3.71 11.987,-3.192 7.793,0.937 12.78,5.724 17.487,11.498 q -1.409,-16.959 -0.205,-33.934 c -8.462,10.061 -20.907,16.646 -33.769,19.15 -11.433,2.226 -26.113,0.714 -35.879,-6.072 q -0.785,-0.549 -1.542,-1.136 -0.757,-0.586 -1.484,-1.21 -0.726,-0.624 -1.422,-1.283 -0.695,-0.658 -1.356,-1.351 -0.662,-0.692 -1.288,-1.417 -0.627,-0.724 -1.216,-1.479 -0.59,-0.754 -1.142,-1.537 -0.552,-0.783 -1.064,-1.592 -0.512,-0.81 -0.984,-1.643 -0.471,-0.834 -0.901,-1.69 -0.429,-0.856 -0.816,-1.732 -0.387,-0.876 -0.73,-1.77 -0.342,-0.895 -0.641,-1.805 -0.298,-0.91 -0.55,-1.834 -0.253,-0.923 -0.459,-1.859 -0.207,-0.935 -0.367,-1.879 c -1.793,-10.69 1.923,-20.316 8.166,-28.891 3.119,-4.285 7.041,-8.697 11.397,-11.758 17.598,-12.366 49.883,-17.81 71.086,-21.084 -2.133,-1.905 -4.245,-3.824 -5.969,-6.122 -5.064,-6.748 -7.366,-15.143 -5.965,-23.522 1.343,-8.031 5.601,-13.924 12.039,-18.617 -2.942,-5.82 -2.694,-10.265 -2.162,-16.555 0.085,-1.011 0.613,-4.076 -0.147,-4.757 -2.066,-1.853 -6.553,-0.934 -9.073,-2.387 -2.551,-1.472 -5.356,-4.86 -7.17,-7.195 -4.516,-5.813 -7.262,-14.052 -6.223,-21.409 0.699,-4.944 2.733,-9.877 5.982,-13.685 10.697,-12.541 24.249,-5.72 29.045,-9.247 l -0.318,-1.334 c -1.609,-1.239 -2.904,-2.587 -4.246,-4.108 -0.284,-2.206 -0.368,-3.964 0.032,-6.151 1.761,-9.641 -2.707,-16.285 0.782,-28.406 -1.757,-1.495 -10.86,0.351 -14.603,-1.352 -2.405,-1.095 -3.469,-2.625 -4.322,-5.05 0.089,-0.73 0,-1.248 0.512,-1.828 1.867,-2.111 6.812,-2.072 9.538,-2.41 -0.564,-8.316 0.129,-17.485 -1.28,-25.632 -0.206,-1.188 -0.307,-2.248 -0.328,-3.455 -1.859,-0.09 -4.124,-0.004 -5.92,-0.463 -1.933,-0.494 -2.945,-1.348 -4.009,-2.983 -0.175,-1.411 -0.268,-2.192 0.503,-3.448 4.529,-7.374 27.617,-3.503 35.622,-4.86 5.57,-0.944 11.14,-0.07 16.716,-0.546 1.277,-0.109 2.104,-0.133 2.966,-1.142 -0.212,-0.499 -0.221,-0.617 -0.649,-1.072 -3.436,-3.651 -19.514,-4.811 -24.762,-5.568 -6.598,-0.953 -23.906,-3.248 -27.791,-8.45 -0.344,-1.309 -0.292,-1.825 0.178,-3.091 2.358,-2.319 6.23,-1.707 9.325,-1.745 l 0.615,-3.405 c -1.071,-4.272 -0.742,-8.737 -0.676,-13.106 -0.076,-1.375 -0.01,-2.627 0.113,-3.993 -1.837,-5.668 -7.246,-4.099 -11.052,-8.231 -0.333,-1.16 -0.617,-1.748 0.008,-2.904 2.452,-4.534 12.211,-3.702 16.551,-4.184 3.528,-0.392 6.975,-0.99 10.448,-1.714 z"
     id="path27" />
  <path
     fill="#3c3b3f"
     d="m 471.933,174.801 c 1.898,0.229 4.004,0.302 5.181,2.065 0.775,1.163 1.083,3.045 1.188,4.425 -1.435,-0.18 -1.854,-0.002 -2.841,-1.113 -0.155,-1.023 -0.227,-2.341 -0.591,-3.299 -0.508,-1.337 -1.746,-1.552 -2.937,-2.078 z"
     id="path28" />
  <path
     fill="#cbcbca"
     d="m 476.745,129.256 c 0.657,0.056 1.665,0.055 2.259,0.319 1.185,0.528 1.263,0.969 1.582,2.094 -0.51,1.597 -1.232,2.127 -2.504,3.094 -1.022,0.42 -0.459,0.287 -1.704,0.324 l -0.631,-1.229 c -0.017,-1.874 0.166,-2.913 0.998,-4.602 z"
     id="path29" />
  <path
     fill="#cbcbca"
     d="m 387.114,107.272 c 1.916,0.097 4.39,-0.032 6.203,0.559 0.967,0.315 1.045,0.43 1.52,1.343 l -0.709,1.714 c -1.921,0.566 -3.949,0.947 -5.817,0.08 -1.074,-1.394 -1.002,-1.984 -1.197,-3.696 z"
     id="path30" />
  <path
     fill="#fefefd"
     d="m 500.521,150.026 c 2.496,-0.133 4.942,-0.454 6.818,1.598 1.985,2.172 1.655,6.268 1.714,9.02 -1.956,1.462 -3.781,3.037 -5.615,4.646 -0.905,1.225 -1.499,2.571 -2.146,3.941 -0.857,-0.479 -0.869,-0.695 -1.103,-1.628 -0.751,-3 -1.075,-14.991 0.332,-17.577 z"
     id="path31" />
  <defs
     id="defs32">
    <linearGradient
       id="gradient_0"
       gradientUnits="userSpaceOnUse"
       x1="577.61395"
       y1="810.96674"
       x2="575.12701"
       y2="794.11237">
      <stop
         offset="0"
         stop-color="#CAC9C7"
         id="stop31" />
      <stop
         offset="1"
         stop-color="#FAF8F7"
         id="stop32" />
    </linearGradient>
  </defs>
  <path
     fill="url(#gradient_0)"
     d="m 571.655,792.479 c 2.262,1.081 3.108,1.938 3.944,4.307 l 1.604,4.553 c 2.309,1.766 4.938,4 7.818,4.639 q -0.928,1.1 -1.941,2.123 c -3.969,3.932 -7.304,4.448 -12.621,4.509 0.979,-6.553 0.903,-13.501 1.196,-20.131 z"
     id="path32"
     style="fill:url(#gradient_0)" />
  <path
     fill="#fefefd"
     d="m 476.772,269.813 c 1.245,0.752 2.285,1.035 2.864,2.41 -1.362,3.52 -5.776,5.811 -7.63,9.388 -2.707,5.223 -2.931,15.649 -1.164,21.215 l 0.766,-0.638 c 1.655,1.549 2.602,5.346 3.453,7.489 -0.125,0.021 -0.249,0.064 -0.377,0.062 -0.8,-0.01 -1.64,-0.646 -2.152,-1.212 -3.705,-4.107 -6.868,-12.044 -6.801,-17.534 0.106,-8.645 5.009,-15.5 11.041,-21.18 z"
     id="path33" />
  <path
     fill="#cbcbca"
     d="m 398.828,217.98 c 6.029,0.372 12.142,-0.123 18.153,-0.636 -1.288,3.231 -2.516,6.374 -3.181,9.801 l -1.049,-0.99 c -2.456,2.176 -5.916,2.508 -8.309,4.556 l 0.734,1.13 c -2.283,-0.079 -4.427,-4.766 -6.445,-6.077 -0.236,-0.154 -0.482,-0.292 -0.723,-0.438 q 0.329,-3.682 0.82,-7.346 z"
     id="path34" />
  <path
     fill="#fefefd"
     d="m 518.748,443.332 c 1.015,0.065 1.984,0.186 2.992,0.318 0.93,4.029 -0.747,12.227 -0.739,16.659 0.008,5.086 1.789,10.193 1.578,15.312 l -1.107,0.866 c -1.147,-0.163 -2.829,-0.177 -3.554,-1.192 -3.921,-5.491 -2.424,-18.773 -1.813,-25.094 0.284,-2.936 0.255,-4.883 2.643,-6.869 z"
     id="path35" />
  <path
     fill="#fefefd"
     d="m 461.886,270.054 2.472,-0.042 0.671,0.709 c -0.531,4.123 -6.717,7.291 -7.139,17.75 -0.159,3.959 0.428,8.305 2.03,11.941 0.684,1.554 2.946,4.431 2.596,5.955 l -6.277,-2.659 q -0.478,-0.86 -0.894,-1.751 -0.417,-0.892 -0.768,-1.811 -0.352,-0.919 -0.638,-1.86 -0.286,-0.941 -0.505,-1.901 -0.218,-0.959 -0.368,-1.932 -0.15,-0.972 -0.231,-1.953 -0.081,-0.98 -0.092,-1.964 -0.011,-0.984 0.048,-1.966 c 0.386,-7.559 3.587,-13.492 9.095,-18.516 z"
     id="path36" />
  <path
     fill="#fefefd"
     d="m 503.018,288.965 q 6.533,0.063 13.063,-0.152 c -1.443,5.618 -2.065,10.972 -2.185,16.768 -1.105,-2.104 -2.071,-3.762 -3.768,-5.464 -2.445,2.427 -3.794,8.359 -6.34,9.725 l -0.79,-0.685 c -1.552,-3.183 0.136,-15.77 0.02,-20.192 z"
     id="path37" />
  <path
     fill="#fefefd"
     d="m 392.312,476.4 c 0.234,-0.013 0.468,-0.038 0.703,-0.039 1.543,-0.007 2.82,0.274 3.905,1.354 -0.865,2.458 -6.37,5.563 -8.33,7.835 -3.151,3.651 -4.949,8.355 -4.383,13.205 0.862,7.384 5.894,12.558 11.443,16.925 -0.713,0.224 -1.646,0.423 -2.389,0.437 -2.779,0.049 -5.755,-2.308 -7.53,-4.271 -4.068,-4.501 -6.32,-10.936 -5.741,-16.988 0.795,-8.297 6.196,-13.574 12.322,-18.458 z"
     id="path38" />
  <path
     fill="#fefefd"
     d="m 414.586,447.686 c 2.389,0.558 4.742,1.105 7.181,1.415 -0.056,1.221 -0.184,2.201 -0.49,3.383 -1.539,5.943 -0.508,12.522 -1.89,18.557 0.465,1.722 0.596,1.817 -0.085,3.439 -1.052,0.699 -1.525,1.049 -2.878,0.79 -1.582,-0.303 -2.715,-1.886 -3.359,-3.251 -3.044,-6.445 -0.901,-17.89 1.521,-24.333 z"
     id="path39" />
  <path
     fill="#3c3b3f"
     d="m 419.387,471.041 c -0.78,-3.82 -1.001,-7.353 -0.771,-11.236 0.205,-3.46 0.457,-8.297 3.151,-10.704 -0.056,1.221 -0.184,2.201 -0.49,3.383 -1.539,5.943 -0.508,12.522 -1.89,18.557 z"
     id="path40" />
  <path
     fill="#fefefd"
     d="m 370.279,168.848 c 1.311,0.206 1.248,0.219 2.093,1.253 0.208,4.056 -5.664,7.971 -7.237,11.641 -3.041,7.093 -1.37,16.634 3.907,22.229 1.48,1.569 4.138,3.069 4.946,5.027 l -1.235,0.421 c -4.046,-0.664 -7.12,-2.541 -9.667,-5.801 -3.774,-4.832 -5.029,-11.724 -4.062,-17.694 1.121,-6.917 5.648,-13.06 11.255,-17.076 z"
     id="path41" />
  <defs
     id="defs42">
    <linearGradient
       id="gradient_1"
       gradientUnits="userSpaceOnUse"
       x1="409.53558"
       y1="225.00333"
       x2="402.68829"
       y2="245.36929">
      <stop
         offset="0"
         stop-color="#CAC8C6"
         id="stop41" />
      <stop
         offset="1"
         stop-color="white"
         id="stop42" />
    </linearGradient>
  </defs>
  <path
     fill="url(#gradient_1)"
     d="m 398.008,225.326 c 0.241,0.146 0.487,0.284 0.723,0.438 2.018,1.311 4.162,5.998 6.445,6.077 l -0.734,-1.13 c 2.393,-2.048 5.853,-2.38 8.309,-4.556 l 1.049,0.99 c -2.085,8.488 -1.672,16.254 0.107,24.753 -3.491,-3.103 -6.976,-6.214 -10.006,-9.782 -4.59,-5.404 -6.425,-9.744 -5.893,-16.79 z"
     id="path42"
     style="fill:url(#gradient_1)" />
  <path
     fill="#fefefd"
     d="m 467.849,124.936 c 1.432,0.582 2.719,1.379 4.045,2.164 q -1.323,0.997 -2.587,2.067 c -10.427,8.867 -11.63,16.965 -8.191,29.817 0.47,1.758 1.538,4.399 1.306,6.172 -0.031,0.236 -0.076,0.469 -0.114,0.703 -2.223,-0.514 -3.742,-0.662 -5.128,-2.723 -3.518,-5.232 -3.732,-14.342 -2.429,-20.396 1.776,-8.258 6.147,-13.362 13.098,-17.804 z"
     id="path43" />
  <path
     fill="#fefefd"
     d="m 399.81,109.945 c 3.11,0.18 22.843,6.813 26.419,8.224 -5.366,-0.603 -18.811,-4.564 -23.076,-2.059 -3.908,2.295 -4.8,7.204 -5.798,11.249 -0.917,7.11 0.847,13.679 0.404,20.623 l -0.718,0.325 c -1.575,-0.321 -2.444,-0.76 -3.8,-1.628 -1.938,-3.353 -2.302,-6.884 -2.302,-10.684 -0.001,-9.669 1.786,-18.926 8.871,-26.05 z"
     id="path44" />
  <path
     fill="#fefefd"
     d="m 543.624,450.975 c 4.237,0.14 17.117,0.61 20.495,1.84 l 0.176,0.696 c -1.797,2.554 -5.994,2.802 -7.726,5.396 -0.44,0.66 -0.803,1.219 -0.579,2.013 0.764,2.708 5.247,4.309 7.606,5.427 l -0.24,0.66 c -1.467,1.017 -4.093,1.005 -5.857,1.189 -3.77,0.393 -6.439,2.855 -10.006,3.728 -1.454,0.356 -2.935,0.297 -4.158,-0.683 -2.251,-1.803 -2.561,-6.033 -2.554,-8.674 0.011,-3.975 -0.145,-8.636 2.843,-11.592 z"
     id="path45" />
  <path
     fill="#fefefd"
     d="m 403.387,156.525 c 6.602,0.717 42.917,7.419 45.994,10.772 -1.968,1.441 -20.152,-0.113 -24.256,-0.05 -7.185,-0.129 -43.306,0.692 -46.552,-0.786 l 0.017,-0.602 c 3.377,-1.884 7.985,-2.778 11.689,-4.005 4.528,-1.499 8.8,-3.298 13.108,-5.329 z"
     id="path46" />
  <path
     fill="#fefefd"
     d="m 571.655,792.479 c -0.224,-1.647 -0.668,-2.704 0.441,-4.117 3.386,-4.316 8.218,-7.198 11.05,-12.055 2.239,-3.842 6.149,-14.724 8.526,-17.164 1.356,0.126 1.678,0.128 2.66,1.19 4.007,4.332 3.973,18.528 3.062,24.107 -1.413,8.653 -6.653,15.217 -12.373,21.538 -2.88,-0.639 -5.509,-2.873 -7.818,-4.639 l -1.604,-4.553 c -0.836,-2.369 -1.682,-3.226 -3.944,-4.307 z"
     id="path47" />
  <path
     fill="#fefefd"
     d="m 382.577,264.519 c 0.232,-0.001 0.465,0.012 0.697,-0.002 0.899,-0.054 1.176,-0.18 1.951,-0.494 2.684,-1.086 32.957,4.579 37.23,6.547 0.528,0.243 0.922,0.557 1.371,0.919 1.694,7.439 2.214,14.687 4.878,21.937 q -15.315,-2.462 -30.597,-5.123 c -5.104,-0.9 -10.737,-1.455 -15.582,-3.28 l 0.615,-3.405 c -1.071,-4.272 -0.742,-8.737 -0.676,-13.106 -0.076,-1.375 -0.01,-2.627 0.113,-3.993 z"
     id="path48" />
  <path
     fill="#050609"
     d="m 382.464,268.512 c 3.88,1.592 7.787,3.488 11.885,4.419 4.128,0.938 8.63,1.239 12.65,2.491 1.099,0.342 1.788,0.76 2.492,1.696 l 0.035,1.163 c -1.923,1.686 -6.057,1.214 -8.534,1.049 -3.537,-0.235 -11.987,-1.823 -14.927,0.287 -0.938,0.673 -1.504,1.695 -2.475,2.39 l -0.45,-0.389 c -1.071,-4.272 -0.742,-8.737 -0.676,-13.106 z"
     id="path49" />
  <path
     fill="#fefefd"
     d="m 536.55,178.769 c 12.856,-7.907 22.869,-12.206 37.652,-15.123 -0.179,4.66 -2.212,18.961 0.789,22.066 0.721,0.747 1.788,0.969 2.742,1.258 l 0.763,0.238 c 0.168,0.051 0.337,0.099 0.506,0.148 -0.469,0.583 -0.781,0.758 -1.472,1.075 -6.836,3.139 -13.968,5.56 -20.891,8.482 -5.473,2.311 -17.187,8.743 -22.339,9.53 -0.211,0.032 -0.425,-0.03 -0.638,-0.046 0.084,-0.263 0.17,-0.526 0.252,-0.791 2.228,-7.256 -3.09,-15.112 3.482,-21.674 -0.572,-1.165 -1.413,-2.116 -2.224,-3.118 -0.192,-1.123 -0.346,-0.817 0.379,-1.888 z"
     id="path50" />
  <path
     fill="#112932"
     d="m 536.55,178.769 c 2.554,0.923 6.149,-1.518 9.212,-1.183 0.669,1.132 0.784,1.657 2.189,1.925 0.957,0.182 2.187,0.039 3.169,0.014 -4.872,0.92 -9.221,2.338 -13.724,4.407 -0.572,-1.165 -1.413,-2.116 -2.224,-3.118 -0.192,-1.123 -0.346,-0.817 0.379,-1.888 z"
     id="path51" />
  <path
     fill="#050609"
     d="m 545.762,177.586 c 4.613,-2.58 13.63,-8.604 18.964,-7.267 0.725,0.182 0.625,0.186 1.12,0.619 0.088,1.223 -0.252,1.835 -0.995,2.778 -2.796,3.546 -9.299,5.534 -13.731,5.809 -0.982,0.025 -2.212,0.168 -3.169,-0.014 -1.405,-0.268 -1.52,-0.793 -2.189,-1.925 z"
     id="path52" />
  <path
     fill="#191a21"
     d="m 565.92,182.116 c 0.234,0.43 0.35,0.591 0.476,1.115 0.277,1.154 0.154,2.408 -0.605,3.349 -2.829,3.507 -21.991,10.301 -26.755,10.579 l -0.56,-0.715 c 0.147,-0.646 0.139,-0.76 0.475,-1.422 2.444,-4.813 21.614,-11.735 26.969,-12.906 z"
     id="path53" />
  <path
     fill="#e3e2e0"
     d="m 398.743,656.851 c 1.351,0.006 2.444,-0.026 3.606,0.794 3.33,2.351 6.368,5.69 9.378,8.475 6.249,5.781 13.253,11.896 20.542,16.327 15.274,9.286 35.884,15.208 53.779,14.632 21.215,-0.683 41.262,-9.444 58.734,-20.893 3.601,-2.36 9.981,-8.158 12.9,-9.495 0.968,-0.443 2.257,-0.855 3.28,-0.519 0.835,0.275 1.494,0.646 2.245,1.09 -7.659,10.094 -16.176,18.63 -27.176,25.085 -18.628,10.931 -37.723,14.071 -58.983,12.481 -6.757,-0.506 -13.484,-1.266 -20.046,-3.022 q -1.142,-0.3 -2.277,-0.629 -1.134,-0.329 -2.26,-0.686 -1.126,-0.358 -2.242,-0.743 -1.117,-0.385 -2.223,-0.798 -1.107,-0.413 -2.203,-0.854 -1.095,-0.44 -2.18,-0.908 -1.084,-0.468 -2.157,-0.962 -1.072,-0.495 -2.132,-1.017 -1.06,-0.521 -2.106,-1.069 -1.047,-0.547 -2.079,-1.121 -1.033,-0.574 -2.05,-1.173 -1.018,-0.6 -2.021,-1.224 -1.002,-0.625 -1.989,-1.274 -0.986,-0.65 -1.956,-1.323 -0.97,-0.674 -1.923,-1.372 -0.953,-0.698 -1.888,-1.42 -0.935,-0.721 -1.852,-1.466 -0.916,-0.745 -1.814,-1.512 -0.898,-0.767 -1.776,-1.557 -0.879,-0.79 -1.737,-1.601 -0.859,-0.811 -1.696,-1.644 -0.838,-0.832 -1.655,-1.685 -0.817,-0.854 -1.612,-1.727 -0.795,-0.873 -1.568,-1.766 -0.773,-0.893 -1.524,-1.805 -0.75,-0.912 -1.478,-1.842 -0.727,-0.931 -1.431,-1.879 -0.704,-0.949 -1.384,-1.914 -0.681,-0.966 -1.336,-1.948 -0.656,-0.983 -1.287,-1.981 -0.631,-0.998 -1.237,-2.012 -0.606,-1.014 -1.186,-2.043 z"
     id="path54" />
  <path
     fill="#fefefd"
     d="m 494.934,304.653 c -2.176,0.36 -4.521,0.741 -6.735,0.727 -2.691,-0.017 -5.482,-0.778 -7.383,-2.775 -2.712,-2.85 -3.027,-7.723 -2.827,-11.43 0.208,-3.861 1.572,-7.447 4.638,-9.936 2.778,-2.255 7.779,-3.264 11.228,-4.026 11.776,-2.603 24.055,-3.263 35.976,-5.095 14.565,-2.239 35.743,-8.753 49.833,-6.996 0.74,1.408 0.433,2.855 0.402,4.427 l 6.05,-1.047 c -1.587,6.014 -1.702,12.07 -1.581,18.242 -0.818,0.387 -1.57,0.754 -2.437,1.016 -8.339,0.978 -17.28,3.852 -25.479,5.77 -6.873,1.608 -13.818,2.578 -20.705,4.067 -3.814,0.825 -8.581,3.004 -12.396,2.965 l -0.694,-0.897 c -0.153,-0.966 -0.36,-1.818 0.011,-2.767 0.858,-2.192 3.011,-3.008 4.965,-3.979 0.003,-2.21 -0.256,-4.436 -0.435,-6.638 -0.844,-1.111 -1.936,-2.363 -3.124,-3.106 -6.193,-3.874 -23.17,-0.283 -30.463,1.179 0.649,6.726 1.161,13.54 1.156,20.299 z"
     id="path55" />
  <path
     fill="#112932"
     d="m 544.195,283.711 c 0.511,-0.058 1.06,0.059 1.571,0.115 l 0.579,0.906 c -0.127,0.87 -0.194,1.7 -0.767,2.418 -0.96,1.201 -2.734,2.179 -4.232,2.407 l -5.733,0.879 -1.141,-0.011 c -0.804,-0.931 -0.959,-2.064 -1.24,-3.227 0.168,-0.696 0.157,-1.326 0.712,-1.831 2.098,-1.909 7.44,-1.524 10.251,-1.656 z"
     id="path56" />
  <path
     fill="#3c3b3f"
     d="m 580.066,269.549 6.05,-1.047 c -1.587,6.014 -1.702,12.07 -1.581,18.242 -0.818,0.387 -1.57,0.754 -2.437,1.016 -1.759,-5.284 -3.158,-10.616 -2.363,-16.219 0.852,-0.962 1.31,-0.685 2.544,-0.788 l -0.191,-0.455 c -0.593,-0.131 -1.076,-0.252 -1.623,-0.529 -0.135,-0.069 -0.266,-0.147 -0.399,-0.22 z"
     id="path57" />
  <path
     fill="#050609"
     d="m 567.647,272.178 1.855,-0.119 c 0.76,0.712 1.166,1.732 1.086,2.817 -0.06,0.817 -0.268,1.554 -0.844,2.143 -3.448,3.529 -15.969,2.79 -20.846,2.904 -0.691,-0.115 -1.39,-0.357 -2.066,-0.545 -0.843,-1.213 -1.037,-1.267 -0.938,-2.715 3.059,-3.797 16.791,-3.733 21.753,-4.485 z"
     id="path58" />
  <path
     fill="#fefefd"
     d="m 480.87,139.91 c 9.408,-3.313 20.268,-4.102 30.098,-5.799 7.649,-1.321 15.4,-2.311 23.01,-3.814 6.307,-1.246 12.478,-3.079 18.856,-3.992 7.589,-1.086 15.227,-1.223 22.861,-1.754 6.088,-0.422 12.141,-1.249 18.232,-1.682 q -0.38,6.506 -0.874,13.004 c -0.113,2.057 -0.559,4.482 -0.014,6.476 0.884,2.278 1.194,4.703 1.612,7.101 -24.965,3.653 -49.696,9.399 -74.87,11.64 -1.344,-2.939 -2.284,-5.784 -3.029,-8.924 2.143,-0.058 4.426,0.014 6.545,-0.263 1.376,-0.18 1.821,-0.523 2.659,-1.582 -0.014,-0.797 -0.121,-1.173 -0.55,-1.873 -1.225,-2.005 -4.464,-4.244 -6.8,-4.528 -6.058,-0.737 -23.969,-0.944 -28.445,2.585 -1.447,3.49 1.137,13.588 1.283,18.136 -4.168,0.183 -7.76,0.472 -11.108,-2.47 -2.95,-2.592 -4.008,-6.666 -4.067,-10.459 -0.073,-4.765 1.38,-8.373 4.601,-11.802 z"
     id="path59" />
  <path
     fill="#191a21"
     d="m 561.783,130.213 c 1.877,-0.189 3.803,0.189 5.665,0.428 l 0.268,0.664 c -0.168,0.221 -0.328,0.447 -0.502,0.662 -3.425,4.258 -13.295,4.639 -18.332,5.112 q -1.303,0.184 -2.609,0.338 c -1.803,0.208 -3.123,0.308 -4.604,-0.881 l 0.098,-1.045 c 4.58,-4.857 13.727,-4.707 20.016,-5.278 z"
     id="path60" />
  <path
     fill="#27282d"
     d="m 593.053,135.873 c -0.113,2.057 -0.559,4.482 -0.014,6.476 -9.451,0.439 -18.753,2.674 -28.046,4.283 -5.716,0.99 -11.466,1.567 -17.235,2.127 0.596,-1.791 1.433,-3.445 2.258,-5.138 3.569,-1.409 7.552,-1.774 11.308,-2.512 10.602,-2.086 20.997,-3.893 31.729,-5.236 z"
     id="path61" />
  <path
     fill="#fefefd"
     d="m 400.936,485.114 c 15.238,0.764 30.784,-0.995 46.064,-1.011 29.898,-0.032 59.856,1.126 89.755,0.912 11.995,-0.085 24.041,-1.921 36.044,-1.204 -0.507,2.086 -1.077,4.161 -1.618,6.239 -5.288,0.127 -10.579,0.116 -15.865,0.294 l -0.272,0.337 c 1.378,1.044 3.479,0.568 5.133,1.009 0.196,0.053 0.385,0.128 0.578,0.193 1.731,-0.666 1.862,-0.654 3.574,0.081 1.129,-0.352 2.138,-0.588 3.315,-0.714 0.243,1.95 1.505,0.501 3.717,2.36 0.896,0.752 1.602,0.478 2.735,0.456 l 0.014,0.775 c 0.018,1.617 0.207,3.002 -0.796,4.39 -1.014,0.734 -1.856,1.263 -3.148,1.412 -3.085,0.357 -6.531,-0.544 -9.657,-0.633 -10.583,-0.3 -20.781,0.125 -31.313,-1.542 -2.116,-0.335 -4.224,-1.582 -6.323,-0.86 -0.872,1.102 -0.828,1.162 -0.843,2.58 0.656,1.449 1.437,2.394 2.963,2.919 5.884,2.024 26.967,2.433 34.172,2.697 4.253,0.155 8.943,-0.106 13.025,1.254 1.49,0.497 2.673,1.445 3.885,2.412 l 0.767,1.523 c -8.847,3.508 -39.411,1.402 -50.732,1.387 l -74.112,-0.278 c -16.905,-0.166 -33.666,0.665 -50.584,-0.161 -2.738,-1.821 -5.149,-4.172 -6.851,-7 -1.995,-3.315 -2.835,-7.29 -1.769,-11.066 1.306,-4.625 4.161,-6.625 8.142,-8.761 z"
     id="path62" />
  <path
     fill="#050609"
     d="m 503.979,500.551 c 1.573,0.479 2.313,0.556 3.472,1.758 -0.552,1.157 -0.803,1.143 -1.965,1.737 l -0.894,-0.228 c -0.842,-1.141 -0.598,-1.894 -0.613,-3.267 z"
     id="path63" />
  <path
     fill="#191a21"
     d="m 483.584,503.054 c 6.979,-2.248 13.047,-2.757 20.395,-2.503 0.015,1.373 -0.229,2.126 0.613,3.267 l 0.894,0.228 c -5.773,2.019 -15.887,-0.407 -21.902,-0.992 z"
     id="path64" />
  <path
     fill="#050609"
     d="m 425.979,499.24 c 2.019,-0.043 4.431,-0.298 6.048,1.032 0.031,1.485 0.057,2.256 -0.648,3.617 -3.864,1.852 -16.33,0.56 -20.91,0.113 -2.467,-0.253 -4.992,-0.425 -6.733,-2.394 l 0.367,-0.78 c 6.172,-2.543 15.216,-1.558 21.876,-1.588 z"
     id="path65" />
  <path
     fill="#191a21"
     d="m 445.337,499.997 c 10.149,-0.692 21.951,-0.665 32.052,0.584 2.199,0.272 4.821,0.442 6.244,2.263 l -0.865,1.037 c -6.763,1.58 -31.181,2.511 -36.954,-1.028 -0.859,-1.287 -0.715,-1.302 -0.477,-2.856 z"
     id="path66" />
  <path
     fill="#fefefd"
     d="m 513.114,174.813 c 10.753,-5.671 21.842,-6.524 33.852,-6.261 -6.089,2.104 -14.439,5.374 -19.063,10.013 -1.128,1.519 -1.579,2.339 -1.792,4.225 -0.031,0.275 -0.068,0.55 -0.098,0.826 -0.02,0.189 -0.034,0.379 -0.051,0.569 -0.347,8.436 1.049,14.898 -0.576,23.678 -17.197,2.677 -35.595,0.319 -52.986,0.201 l -52.571,-0.392 c -12.695,-0.036 -25.468,0.241 -38.147,-0.413 -4.122,-2.954 -7.75,-7.279 -9.238,-12.185 -1.601,-5.279 -0.33,-9.319 2.094,-13.985 15.281,1.84 29.41,-0.426 44.535,-2.176 l 0.07,0.226 -1.184,-0.996 c -2.651,-0.119 -5.469,0.5 -8.116,0.762 -4.083,0.404 -29.946,0.375 -32.416,-1.64 l 0.823,-0.974 c 4.594,-2.263 52.777,-1.211 61.564,-1.377 6.356,-0.119 12.52,-2.039 18.909,-1.953 4.336,0.059 8.923,1.125 13.21,1.84 1.191,0.526 2.429,0.741 2.937,2.078 0.364,0.958 0.436,2.276 0.591,3.299 0.987,1.111 1.406,0.933 2.841,1.113 7.399,-1.202 15.806,-0.374 23.281,-0.21 1.261,-3.072 1.623,-5.985 2.02,-9.257 3.145,1.099 6.311,2.061 9.511,2.989 z"
     id="path67" />
  <path
     fill="#050609"
     d="m 448.537,178.065 c 4.583,-0.085 9.388,-0.072 13.935,0.487 1.534,0.188 2.733,0.322 3.732,1.583 -0.273,1.284 -0.363,1.414 -1.285,2.354 -3.033,0.356 -6.146,0.421 -9.198,0.406 -2.549,-0.012 -5.792,-0.009 -7.687,-1.934 -0.29,-1.475 -0.176,-1.532 0.503,-2.896 z"
     id="path68" />
  <path
     fill="#27282d"
     d="m 482.39,189.737 c 4.478,0.026 18.982,-0.859 22.239,1.368 1.067,0.73 1.1,1.193 1.145,2.343 -1.056,0.919 -1.306,0.612 -2.648,0.576 -4.656,-0.188 -18.792,1.995 -21.795,-0.522 -0.335,-1.317 -0.598,-1.99 -0.099,-3.313 z"
     id="path69" />
  <path
     fill="#191a21"
     d="m 447.343,194.158 c 4.712,-0.273 11.777,-1.017 16.198,0.541 1.245,0.439 1.609,0.818 2.092,2.004 -0.174,0.517 -0.33,1.054 -0.607,1.53 -0.639,1.1 -2.313,1.295 -3.448,1.555 -4.762,0.419 -12.121,1.136 -16.518,-0.748 -0.931,-1.173 -0.892,-1.176 -0.862,-2.681 1.018,-1.418 1.578,-1.522 3.145,-2.201 z"
     id="path70" />
  <path
     fill="#27282d"
     d="m 525.962,184.185 -0.334,-1.885 c -2.788,-1.984 -13.361,-0.382 -17.153,-0.492 -2.017,-0.059 -4.127,-0.02 -5.606,-1.588 -0.271,-1.316 -0.301,-1.239 0.403,-2.379 4.895,-2.967 14.774,-2.188 20.308,-1.58 2.058,0.226 3.038,0.706 4.323,2.304 -1.128,1.519 -1.579,2.339 -1.792,4.225 -0.031,0.275 -0.068,0.55 -0.098,0.826 -0.02,0.189 -0.034,0.379 -0.051,0.569 z"
     id="path71" />
  <path
     fill="#191a21"
     d="m 498.454,197.754 c 4.45,-0.14 16.776,-1.207 20.279,0.793 1.063,0.606 1.383,1.02 1.621,2.189 -0.208,0.431 -0.331,0.77 -0.704,1.118 -2.716,2.533 -7.991,1.715 -11.35,1.581 -4.257,-0.074 -18.122,0.638 -20.906,-1.797 -1.043,-0.913 -1.142,-1.189 -1.212,-2.473 2.247,-2.056 9.133,-1.373 12.272,-1.411 z"
     id="path72" />
  <path
     fill="#191a21"
     d="m 380.737,193.272 c 11.107,2.488 24.873,-0.283 35.739,2.17 0.871,1.414 0.526,2.948 0.402,4.528 -4.685,0.761 -31.653,0.342 -35.201,-1.493 -1.086,-1.561 -0.904,-3.38 -0.94,-5.205 z"
     id="path73" />
  <path
     fill="#fefefd"
     d="m 538.995,524.172 c 4.159,-0.463 8.461,0.244 12.618,0.577 6.149,0.494 12.364,0.857 18.46,1.816 18.409,2.898 64.762,13.43 78.647,24.474 7.798,6.203 13.55,14.934 14.647,24.966 1.03,9.414 -2.019,16.433 -7.807,23.572 -2.447,2.312 -4.768,4.07 -7.919,5.383 -22.29,9.29 -47.343,-5.025 -60.512,-22.897 -4.379,-5.942 -7.04,-12.806 -10.579,-19.235 -8.208,-14.911 -21.472,-31.892 -37.555,-38.656 z"
     id="path74" />
  <path
     fill="#fefefd"
     d="m 403.931,386.851 c -1.599,0.252 -3.067,0.68 -4.653,0.263 -1.647,-4.299 -2.388,-13.843 -0.635,-18.107 0.896,-2.181 2.618,-3.741 4.791,-4.608 6.369,-2.541 25.257,-2.086 32.682,-2.187 q 31.816,-0.526 63.634,-0.102 c 9.751,0.164 19.485,0.897 29.242,0.917 13.102,0.027 26.162,-1.023 39.265,-1.177 -3.423,6.594 -3.851,12.404 -4.384,19.712 l -0.465,0.508 c -1.119,1.243 -1.959,2.094 -2.354,3.737 0.156,1.204 0.526,2.045 1.531,2.767 0.805,0.577 1.755,1.003 2.631,1.46 1.031,0.538 2.214,1.001 3.006,1.859 -0.051,1.444 -0.097,1.42 -1.064,2.507 -6.392,1.565 -14.749,0.905 -21.391,1.111 -28.867,0.897 -57.79,0.281 -86.666,-0.084 -14.853,-0.187 -31.584,0.56 -46.088,-0.451 -3.328,-0.232 -7.032,-0.534 -9.982,-2.216 -1.403,-0.8 -2.079,-1.687 -2.564,-3.244 0.815,-1.267 1.726,-1.159 3.128,-1.534 z"
     id="path75" />
  <path
     fill="#27282d"
     d="m 448.661,384.538 c 5.043,-0.246 11.376,-0.76 15.967,1.674 l 0.227,1.051 c -3.691,0.348 -7.785,1.067 -11.465,0.4 -2.344,-0.425 -3.407,-1.149 -4.729,-3.125 z"
     id="path76" />
  <path
     fill="#050609"
     d="m 503.906,370.632 c 3.047,-0.194 7.262,-1.091 9.745,1.031 0.43,1.15 0.376,1.646 0.076,2.829 l -1.342,0.736 c -2.056,0.271 -4.646,0.86 -6.698,0.707 -1.316,-0.099 -1.708,-0.473 -2.46,-1.486 -0.107,-1.571 0.142,-2.382 0.679,-3.817 z"
     id="path77" />
  <path
     fill="#27282d"
     d="m 427.36,370.309 c 0.514,0.196 0.187,0.014 0.64,0.922 -0.149,1.463 -0.206,2.362 -1.188,3.548 -5.487,0.743 -11.169,0.726 -16.702,0.963 -0.213,-0.408 -0.584,-1.067 -0.688,-1.501 -0.299,-1.247 0.002,-1.654 0.683,-2.588 4.698,-2.34 12.015,-1.099 17.255,-1.344 z"
     id="path78" />
  <path
     fill="#050609"
     d="m 403.931,386.851 c 6.46,-1.503 4.928,-4.472 14.263,-4.235 l 0.416,0.108 c 1.771,0.443 4.168,0.086 5.589,1.158 0.299,1.093 0.505,2.605 -0.178,3.655 -0.719,1.108 -2.131,1.103 -3.331,1.386 -5.766,0.247 -11.374,-0.332 -17.095,-0.941 z"
     id="path79" />
  <path
     fill="#27282d"
     d="m 454.996,369.452 c 8.922,1.002 18.301,-0.746 27.148,0.964 l 0.214,0.741 -1.091,1.863 c -0.208,0.127 -0.412,0.26 -0.624,0.381 -3.202,1.823 -20.511,1.18 -24.501,0 -1.072,-1.137 -1.008,-2.474 -1.146,-3.949 z"
     id="path80" />
  <path
     fill="#191a21"
     d="m 418.194,382.616 c 6.835,-0.131 14.094,-0.746 20.886,-0.015 l 5.709,4.313 c -7.913,2.189 -15.956,2.044 -24.099,2.009 1.2,-0.283 2.612,-0.278 3.331,-1.386 0.683,-1.05 0.477,-2.562 0.178,-3.655 -1.421,-1.072 -3.818,-0.715 -5.589,-1.158 z"
     id="path81" />
  <path
     fill="#050609"
     d="m 472.081,383.226 c 5.339,-0.46 18.905,-0.891 23.422,0.821 1.059,0.401 1.113,0.581 1.532,1.555 -0.352,1.37 -0.654,1.874 -1.694,2.832 -4.415,0.274 -21.905,1.202 -24.787,-1.386 -0.939,-0.842 -0.874,-1.145 -0.839,-2.297 0.676,-0.959 1.287,-1.132 2.366,-1.525 z"
     id="path82" />
  <path
     fill="#191a21"
     d="m 530.487,370.722 c 5.159,-0.221 25.174,-1.132 28.819,0.374 0.244,0.397 0.339,0.486 0.433,1.011 0.197,1.104 -0.076,2.58 -0.794,3.43 -2.083,0.895 -4.59,0.518 -6.82,0.445 -7.098,-0.037 -25.711,1.314 -31.449,-1.247 l -0.496,-1.406 c 0.136,-0.16 0.251,-0.34 0.409,-0.478 2.803,-2.447 6.425,-2.069 9.898,-2.129 z"
     id="path83" />
  <path
     fill="#050609"
     d="m 513.679,383.194 c 5.773,-0.309 11.556,0.173 17.334,0.109 6.979,-0.077 14.398,-0.884 21.323,-0.159 1.848,0.193 3.507,0.338 4.958,1.599 0.217,1.285 0.57,1.925 -0.033,3.131 l -2.247,0.578 c -8.239,0.195 -37.443,1.692 -43.189,-0.978 -0.895,-1.198 -0.873,-1.213 -0.821,-2.712 0.784,-1.286 1.266,-1.162 2.675,-1.568 z"
     id="path84" />
  <path
     fill="#fefefd"
     d="m 508.86,312.688 c 1.884,0.858 3.592,3.092 5.045,4.571 7.544,0.693 15.529,0.259 23.123,0.278 11.253,0.029 23.014,0.52 34.208,-0.623 -1.531,9.971 -1.777,20.626 0.467,30.495 -23.084,0.287 -46.26,-0.417 -69.363,-0.383 -19.906,0.029 -39.811,0.839 -59.715,0.608 -19.359,-0.375 -38.796,0.259 -58.178,0.04 0.189,-5.575 -0.71,-10.728 -0.913,-16.24 -0.16,-4.339 0.27,-8.789 0.525,-13.124 11.678,-1.19 23.987,-0.475 35.745,-0.355 10.794,0.111 21.602,-0.407 32.372,-0.267 14.328,0.186 28.443,1.058 42.795,0.551 2.167,1.195 4.22,2.601 6.296,3.945 3.457,-2.753 5.328,-5.774 7.593,-9.496 z"
     id="path85" />
  <path
     fill="#050609"
     d="m 545.487,323.818 c 4.767,0.53 12.102,-0.724 16.407,1.198 0.93,0.416 0.596,0.158 1.029,1.203 l -0.578,1.347 c -4.58,1.097 -11.366,2.642 -15.677,0.433 -1.154,-1.535 -1.02,-2.3 -1.181,-4.181 z"
     id="path86" />
  <path
     fill="#050609"
     d="m 506.635,335.103 c 5.91,0.31 21.896,-1.147 26.445,1.723 0.314,1.173 0.299,1.182 -0.185,2.298 -5.603,0.815 -20.589,2.217 -25.643,-0.24 -0.837,-1.185 -0.648,-2.401 -0.617,-3.781 z"
     id="path87" />
  <path
     fill="#191a21"
     d="m 550.834,336.25 c 2.715,-0.121 5.489,-0.134 8.201,0.044 2.465,0.162 6.968,0.455 8.628,2.385 l -0.364,0.934 c -2.829,1.992 -5.568,1.803 -8.881,1.922 -3.383,-0.001 -6.956,0.446 -10.305,0.108 -2.168,-0.219 -4.322,-0.629 -5.762,-2.384 0.068,-0.899 -0.113,-1.014 0.616,-1.676 2.084,-1.893 5.236,-1.355 7.867,-1.333 z"
     id="path88" />
  <path
     fill="#27282d"
     d="m 467.922,323.778 c 1.862,-0.182 4.197,-0.504 6.008,0.047 1.412,0.43 2.855,1.453 3.464,2.808 0.37,0.823 0.227,0.594 -0.12,1.576 -3.688,2.485 -12.386,1.338 -16.841,1.361 -2.06,0.2 -4.098,0.377 -6.167,0.442 -0.979,-0.623 -1.726,-0.993 -2.02,-2.239 -0.327,-1.388 0.113,-2.046 0.775,-3.166 2.251,-1.341 11.724,-0.73 14.901,-0.829 z"
     id="path89" />
  <path
     fill="#050609"
     d="m 394.058,323.663 c 7.976,-0.399 16.387,-0.683 24.364,-0.135 2.59,0.178 4.627,0.287 6.402,2.31 l -0.107,1.075 -1.169,0.587 c -1.13,0.341 -2.269,0.652 -3.434,0.85 -5.698,0.967 -21.044,1.56 -25.716,-1.716 -0.705,-1.297 -0.558,-1.485 -0.34,-2.971 z"
     id="path90" />
  <path
     fill="#050609"
     d="m 497.025,322.626 c 11.979,2.094 25.133,-2.311 37.139,1.073 1.078,1.204 0.858,2.425 0.998,4.007 -11.326,1.075 -28.013,0.131 -38.137,-5.08 z"
     id="path91" />
  <path
     fill="#191a21"
     d="m 411.982,335.227 c 5.137,-0.17 10.641,-0.707 15.73,0.076 2.05,0.315 4.243,0.712 5.478,2.461 l -0.513,0.824 c -5.528,3.327 -14.602,2.352 -20.912,2.399 l -13.662,0.025 c -2.569,-0.007 -5.461,-0.114 -7.335,-2.17 -0.753,-0.827 -0.764,-0.993 -0.72,-2.04 3.052,-2.202 17.223,-1.459 21.934,-1.575 z"
     id="path92" />
  <path
     fill="#fefefd"
     d="m 425.373,524.237 1.037,-0.054 c -1.143,1.999 -7.598,5.687 -9.852,7.43 -5.364,4.145 -10.392,9.254 -14.576,14.587 -5.896,7.515 -10.824,15.294 -14.724,24.034 -2.141,4.799 -3.697,10.686 -6.675,14.974 -2.192,3.156 -5.671,5.529 -8.705,7.809 -9.914,7.451 -18.934,12.034 -31.194,14.419 -10.912,2.123 -18.958,-0.411 -27.976,-6.531 -5.894,-4.882 -9.817,-11.065 -10.639,-18.85 q -0.082,-0.81 -0.124,-1.624 -0.042,-0.813 -0.045,-1.627 -0.002,-0.815 0.035,-1.629 0.037,-0.813 0.113,-1.624 0.077,-0.811 0.193,-1.617 0.116,-0.806 0.271,-1.606 0.155,-0.799 0.349,-1.59 0.193,-0.791 0.425,-1.572 0.232,-0.781 0.502,-1.549 0.269,-0.769 0.576,-1.523 0.307,-0.755 0.65,-1.493 0.343,-0.739 0.722,-1.46 0.378,-0.721 0.791,-1.423 0.413,-0.702 0.86,-1.383 0.447,-0.681 0.927,-1.339 0.479,-0.659 0.99,-1.293 c 14.071,-17.615 40.882,-21.078 61.533,-25.437 10.722,-2.264 21.783,-4.847 32.647,-6.156 7.262,-0.875 14.608,-1.094 21.889,-1.873 z"
     id="path93" />
  <path
     fill="#112932"
     d="m 313.507,565.325 c 0.406,0.073 0.918,0.152 1.299,0.287 1.183,0.421 1.834,0.852 2.253,2.09 0.591,1.748 -0.699,3.844 -1.646,5.221 l -4.713,-2.122 c 0.914,-1.836 1.869,-3.652 2.807,-5.476 z"
     id="path94" />
  <path
     fill="#050609"
     d="m 320.423,555.357 c 2.034,0.07 3.66,0.298 5.268,1.641 1.255,1.049 1.467,1.911 1.613,3.491 -0.756,1.664 -1.106,1.886 -2.524,2.931 -1.753,0.433 -3.122,0.87 -4.843,0.068 -0.563,-0.671 -0.97,-0.979 -1.177,-1.855 -0.505,-2.14 0.634,-4.472 1.663,-6.276 z"
     id="path95" />
  <path
     fill="#27282d"
     d="m 323.689,567.573 c 0.845,-0.086 1.754,-0.218 2.602,-0.179 1.289,0.059 2.402,0.576 3.208,1.622 0.754,0.979 0.928,2.036 0.638,3.223 -0.39,1.6 -1.499,2.439 -2.752,3.368 l -2.972,0.279 c -1.086,-0.354 -1.602,-0.753 -2.24,-1.722 -0.797,-1.21 -1.196,-2.895 -0.734,-4.32 0.51,-1.57 0.838,-1.581 2.25,-2.271 z"
     id="path96" />
  <path
     fill="#fefefd"
     d="m 523.208,404.767 c 7.741,-0.278 56.159,-0.901 60.43,0.509 0.778,1.283 0.973,1.563 1.016,3.044 l -0.894,0.927 c -3.986,1.446 -8.503,0.491 -12.604,-0.002 -1.674,0.771 -3.519,1.417 -4.737,2.846 l 0.291,0.532 c 2.171,0.449 3.979,0.233 6.151,-0.03 0.11,5.749 0.497,11.518 0.776,17.263 q -13.587,0.285 -27.163,-0.318 c -4.339,-0.185 -11.541,-1.497 -15.592,-0.739 -1.818,0.339 -2.891,0.906 -4.003,2.436 -0.008,0.678 -0.18,1.005 0.321,1.546 3.578,3.858 36.068,2.216 43.046,2.427 1.602,0.048 2.887,-0.211 3.942,1.165 0.765,0.998 1.285,2.535 1.103,3.771 -0.122,0.073 -0.238,0.161 -0.367,0.221 -4.164,1.923 -100.029,-0.159 -114.368,-0.251 -12.62,-0.082 -64.592,1.825 -72.389,-1.004 -3.206,-1.163 -5.893,-3.776 -7.312,-6.852 -1.933,-4.19 -1.491,-7.623 0.036,-11.828 0.507,-0.745 1.023,-1.499 1.616,-2.179 1.917,-2.198 4.233,-3.341 7.046,-3.97 5.801,-1.298 12.461,-0.529 18.411,-0.544 13.655,-0.035 27.416,-0.201 41.068,-0.543 3.872,-0.096 8.01,0.4 11.819,-0.032 1.54,-0.174 2.859,-0.661 3.874,-1.859 -1.185,-0.964 -32.266,-2.46 -35.911,-2.56 -8.829,-0.243 -17.646,0.462 -26.469,0.668 -5.965,0.139 -12.875,-0.608 -18.679,0.621 -2.728,0.577 -5.27,1.849 -7.252,3.826 -2.082,2.077 -3.345,4.783 -3.995,7.625 -2.842,12.42 7.084,17.477 7.061,21.055 -0.189,0.032 -0.375,0.087 -0.566,0.096 -2.336,0.116 -5.108,-1.658 -6.798,-3.14 -3.702,-3.246 -5.154,-8.059 -5.314,-12.865 -0.197,-5.886 2.23,-12.048 6.292,-16.305 2.897,-3.034 6.41,-4.4 10.513,-4.945 5.547,-0.737 11.332,-0.462 16.921,-0.455 12.143,0.015 24.268,0.42 36.407,0.533 13.505,0.125 27.092,0.574 40.583,0.445 15.222,-0.146 30.46,-0.894 45.69,-1.135 z"
     id="path97" />
  <path
     fill="#838a76"
     d="m 563.227,416.863 c 0.065,1.64 0.455,3.646 -0.579,4.949 -1.305,0.294 -2.584,0.55 -3.907,0.746 0.867,-1.336 1.995,-2.453 3.077,-3.615 z"
     id="path98" />
  <path
     fill="#636557"
     d="m 547.491,420.94 c 0.722,0.293 1.718,0.786 2.507,0.738 3.38,-0.207 6.693,-2.604 11.82,-2.735 -1.082,1.162 -2.21,2.279 -3.077,3.615 -2.974,0.152 -8.178,0.993 -10.85,-0.222 z"
     id="path99" />
  <path
     fill="#3c3b3f"
     d="m 545.244,409.384 c 2.721,-0.301 5.325,0.367 7.978,0.057 2.714,-0.316 6.206,1.597 8.524,1.18 1.575,-0.284 2.084,-1.123 3.981,-1.015 l 0.698,0.683 c -0.546,1.317 -0.679,1.721 -2.034,2.4 -1.427,0.716 -3.375,0.425 -4.876,0.189 l -0.549,-0.491 0.121,-0.967 -0.563,-0.347 c -0.44,0.613 -0.49,0.847 -0.633,1.564 -3.197,0.259 -6.391,0.206 -9.595,0.299 -0.066,-0.403 -0.177,-1.152 -0.298,-1.523 -0.459,-1.406 -1.509,-1.496 -2.754,-2.029 z"
     id="path100" />
  <path
     fill="#56564e"
     d="m 546.658,415.749 c 4.146,0.378 13.383,-1.143 16.569,1.114 l -1.409,2.08 c -5.127,0.131 -8.44,2.528 -11.82,2.735 -0.789,0.048 -1.785,-0.445 -2.507,-0.738 -0.579,-1.636 -0.635,-3.469 -0.833,-5.191 z"
     id="path101" />
  <path
     fill="#3c3b3f"
     d="m 408.603,429.091 c 6.361,-0.345 14.638,-1.098 20.74,0.759 0.095,0.194 0.206,0.38 0.286,0.581 0.652,1.633 0.435,3.134 -0.242,4.716 -1.521,0.865 -4.09,-0.103 -5.831,-0.426 -2.829,-0.263 -11.052,-1.713 -13.029,0.214 -1.287,1.255 -1.315,2.772 -3.168,3.477 l -0.646,-0.318 c -0.498,-1.108 -0.523,-1.904 -0.448,-3.096 0.172,-2.725 0.233,-4.027 2.338,-5.907 z"
     id="path102" />
  <path
     fill="#27282d"
     d="m 481.241,428.984 c 8.848,1.142 17.723,-0.209 26.459,0.716 1.412,0.15 2.281,0.122 3.233,1.257 0.114,1.346 0.059,2.083 -0.436,3.343 -4.499,0.469 -26.368,2.262 -29.301,0.743 -0.426,-2.061 -0.156,-3.988 0.045,-6.059 z"
     id="path103" />
  <defs
     id="defs104">
    <linearGradient
       id="gradient_2"
       gradientUnits="userSpaceOnUse"
       x1="393.4227"
       y1="425.25436"
       x2="428.93295"
       y2="419.8049">
      <stop
         offset="0"
         stop-color="#222631"
         id="stop103" />
      <stop
         offset="1"
         stop-color="#3A3B5F"
         id="stop104" />
    </linearGradient>
  </defs>
  <path
     fill="url(#gradient_2)"
     d="m 396.747,419.577 c 6.468,1.345 13.71,0.948 20.316,1.35 2.592,0.157 5.412,0.849 7.965,0.734 0.926,-0.041 1.595,-0.385 2.457,-0.623 1.457,-0.403 2.417,-0.403 3.792,0.287 0.274,1.273 -0.11,1.931 -0.585,3.091 -1.331,0.906 -2.644,0.716 -4.233,0.817 -8.141,-0.172 -29,1.619 -34.927,-2.496 -0.541,-1.102 -0.574,-1.127 -0.33,-2.323 0.942,-0.19 0.982,0.034 1.796,0.468 z"
     id="path104"
     style="fill:url(#gradient_2)" />
  <path
     fill="#27282d"
     d="m 480.077,418.224 c 5.811,-0.408 32.143,-1.075 36.196,1.263 0.815,0.471 0.514,0.224 0.805,1.32 l -0.681,1.033 c -2.826,0.955 -6.533,0.645 -9.522,0.693 -5.962,0.414 -11.866,0.272 -17.82,0.531 -4.576,0.199 -9.432,1.129 -13.99,0.772 -1.562,-0.122 -2.694,-0.405 -3.771,-1.623 -0.211,-1.513 -0.026,-1.825 0.569,-3.257 2.347,-0.961 5.678,-0.656 8.214,-0.732 z"
     id="path105" />
  <path
     fill="#27282d"
     d="m 548.296,412.936 q -11.663,0.976 -23.361,0.631 -10.954,-0.357 -21.829,-1.716 c -3.526,-0.429 -7.42,-1.511 -10.941,-1.503 -1.278,0.003 -2.588,0.357 -3.795,0.754 -0.764,0.251 -1.04,0.318 -1.82,0.232 l -0.344,-1.111 -0.879,-0.072 -0.485,1.106 c -1.458,0.958 -4.235,0.444 -6.046,0.596 -0.18,0.015 -0.358,0.039 -0.537,0.059 l -0.094,-0.628 c 0.522,-0.958 0.908,-1.603 1.775,-2.288 0.232,-0.184 0.419,-0.463 0.705,-0.542 1.124,-0.312 6.913,0.482 8.625,0.496 l 34.743,-0.002 c 7.012,-0.01 14.257,-0.326 21.231,0.436 1.245,0.533 2.295,0.623 2.754,2.029 0.121,0.371 0.232,1.12 0.298,1.523 z"
     id="path106" />
  <path
     fill="#fefefd"
     d="m 548.606,211.087 c 0.269,0.113 0.534,0.236 0.807,0.337 2.695,0.994 6.923,0.464 9.837,0.478 6.833,0.032 13.667,0.289 20.497,0.285 6.901,-0.005 25.093,-2.935 29.206,4.423 0.925,1.653 0.823,3.532 0.272,5.296 -0.431,1.377 -1.079,2.27 -2.344,3.013 -3.611,2.122 -7.344,-0.594 -9.281,4.638 -1.953,5.278 -2.369,14.241 -0.611,19.57 0.857,0.998 1.536,1.251 2.723,1.731 l -0.602,1.44 c -0.291,1.109 -0.474,1.592 -1.324,2.373 -4.741,1.347 -39.292,-0.038 -47.063,0.073 l -71.042,0.802 c -12.72,0.224 -26.294,1.981 -38.909,0.326 -1.782,-1.247 -3.26,-2.753 -4.682,-4.389 -3.443,-3.96 -6.867,-8.786 -6.29,-14.327 0.392,-3.758 1.969,-5.388 4.767,-7.738 10.276,0.725 10.404,-0.297 19.575,-1.333 3.395,-0.384 7.384,-0.227 10.626,-1.224 -0.398,-0.281 -0.555,-0.425 -1.071,-0.598 -5.287,-1.769 -28.965,-4.032 -33.484,-2.232 -3.342,1.332 -5.615,4.545 -6.927,7.787 -3.071,7.595 0.53,15.917 5.806,21.598 1.547,1.667 3.922,3.348 4.813,5.448 l -0.596,0.699 c -0.91,0.096 -1.681,0.157 -2.586,-0.029 -4.353,-0.899 -6.952,-4.324 -9.216,-7.893 q -0.327,-0.51 -0.627,-1.036 -0.301,-0.527 -0.574,-1.067 -0.273,-0.541 -0.518,-1.095 -0.245,-0.555 -0.461,-1.121 -0.217,-0.566 -0.404,-1.142 -0.187,-0.576 -0.345,-1.161 -0.157,-0.585 -0.285,-1.178 -0.127,-0.592 -0.224,-1.19 -0.097,-0.598 -0.163,-1.201 -0.066,-0.602 -0.101,-1.207 -0.036,-0.605 -0.04,-1.211 -0.004,-0.606 0.022,-1.211 0.027,-0.605 0.085,-1.208 0.057,-0.604 0.146,-1.203 0.088,-0.599 0.207,-1.194 0.119,-0.594 0.268,-1.181 c 0.876,-3.587 4.649,-13.117 8.268,-14.471 1.9,-0.71 5.468,1.13 7.257,1.839 3.385,-0.636 6.575,-1.83 10.046,-2.037 12.713,-0.756 88.464,2.779 93.555,-0.938 0.392,-0.688 0.81,-1.398 1.352,-1.98 1.447,-1.555 5.478,-3.509 7.622,-3.68 0.972,-0.077 1.224,-0.133 2.013,-0.681 z"
     id="path107" />
  <path
     fill="#cbcbca"
     d="m 513.882,222.216 c 1.06,-0.431 0.525,-0.4 1.604,-0.121 l -0.217,0.583 c -3.528,2.009 -13.629,2.516 -18.164,3.326 l -0.556,-0.117 0.022,-0.511 3.124,-2.565 c 4.7,0.396 9.482,-0.349 14.187,-0.595 z"
     id="path108" />
  <path
     fill="#27282d"
     d="m 442.103,246.203 c 2.727,-0.361 5.543,-0.376 8.293,-0.448 2.637,-0.07 6.228,-0.365 8.218,1.533 -0.18,1.392 -0.627,1.729 -1.493,2.803 -2.847,0.601 -6.007,0.544 -8.912,0.6 -2.603,0.05 -5.343,0.199 -7.296,-1.689 -0.068,-1.497 0.26,-1.592 1.19,-2.799 z"
     id="path109" />
  <path
     fill="#27282d"
     d="m 510.615,240.511 c 4.234,-0.539 10.247,-0.534 14.4,0.465 1.572,0.378 2.291,0.808 3.121,2.184 0.003,1.302 -0.182,1.969 -0.764,3.132 -3.388,0.183 -7.134,0.221 -10.521,0.047 -2.374,-0.122 -4.56,-0.308 -6.236,-2.155 -0.624,-1.417 -0.354,-2.249 0,-3.673 z"
     id="path110" />
  <path
     fill="#050609"
     d="m 470.981,240.523 c 5.584,-0.113 15.443,-0.389 20.548,1.297 1.341,0.444 1.672,0.845 2.3,2.068 -0.189,1.03 -0.376,1.622 -0.976,2.483 -5.841,-0.209 -11.938,0.347 -17.726,-0.379 -1.934,-0.242 -3.499,-0.535 -4.762,-2.15 -0.16,-1.546 -0.005,-1.874 0.616,-3.319 z"
     id="path111" />
  <path
     fill="#050609"
     d="m 472.276,225.728 c 4.969,-0.009 18.171,-1.424 22,1.721 0.048,0.828 0.227,1.05 -0.303,1.769 -1.399,1.9 -3.766,1.805 -5.911,2.036 -5.135,0.365 -18.344,1.237 -22.29,-1.934 -0.176,-1.45 0.185,-1.458 0.978,-2.612 1.61,-1.087 3.648,-0.917 5.526,-0.98 z"
     id="path112" />
  <path
     fill="#191a21"
     d="m 556.789,238.167 c 9.341,-0.324 18.889,-0.582 28.165,0.686 0.882,1.465 2.01,2.966 2.166,4.7 l -1.021,0.505 c -7.351,-0.009 -21.633,0.473 -28.404,-0.925 -1.56,-0.322 -2.224,-0.852 -3.104,-2.138 0.433,-1.486 1.005,-1.884 2.198,-2.828 z"
     id="path113" />
  <defs
     id="defs114">
    <linearGradient
       id="gradient_3"
       gradientUnits="userSpaceOnUse"
       x1="573.76489"
       y1="206.6003"
       x2="565.27136"
       y2="243.40958">
      <stop
         offset="0"
         stop-color="#080A15"
         id="stop113" />
      <stop
         offset="1"
         stop-color="#333536"
         id="stop114" />
    </linearGradient>
  </defs>
  <path
     fill="url(#gradient_3)"
     d="m 548.606,211.087 c 0.269,0.113 0.534,0.236 0.807,0.337 2.695,0.994 6.923,0.464 9.837,0.478 6.833,0.032 13.667,0.289 20.497,0.285 6.901,-0.005 25.093,-2.935 29.206,4.423 0.925,1.653 0.823,3.532 0.272,5.296 -0.431,1.377 -1.079,2.27 -2.344,3.013 -3.611,2.122 -7.344,-0.594 -9.281,4.638 -1.953,5.278 -2.369,14.241 -0.611,19.57 0.857,0.998 1.536,1.251 2.723,1.731 l -0.602,1.44 c -0.419,-0.042 -0.839,-0.078 -1.254,-0.15 -2.155,-0.373 -5.228,-1.223 -6.442,-3.202 -0.586,-0.955 -0.44,-0.768 -1.372,-1.195 l -1.346,1.309 -0.969,-0.08 c -0.037,-0.162 -0.099,-0.319 -0.11,-0.485 -0.02,-0.293 0.012,-0.588 0.018,-0.882 -2.587,-0.875 -6.408,-0.258 -8.991,0.414 l 0.64,0.028 c -2.292,0.873 -6.719,-0.091 -9.191,-0.412 l 0.048,-0.003 -0.557,-0.493 c 4.18,-2.079 14.465,-1.113 19.567,-1.132 l 0.605,-1.856 c 1.544,-4.633 1.343,-8.798 1.166,-13.608 -14.558,1.779 -29.534,-0.167 -44.122,-0.52 -3.865,-0.093 -9.539,0.937 -13.097,-0.036 -1.109,-0.304 -1.802,-1.386 -2.232,-2.39 -0.53,-1.236 -0.371,-2.33 0.119,-3.54 0.906,-0.682 1.076,-0.923 2.24,-0.91 4.81,0.051 9.88,1.251 14.706,1.634 7.559,0.601 43.195,2.318 48.998,-0.351 1.316,-0.605 1.908,-1.195 2.383,-2.544 -0.645,-0.967 -1.136,-1.193 -2.242,-1.464 -4.075,-0.997 -9.436,-0.443 -13.66,-0.495 -5.774,-0.072 -42.294,-0.095 -45.221,-1.574 -0.446,-0.225 -0.783,-0.622 -1.175,-0.933 0.392,-0.688 0.81,-1.398 1.352,-1.98 1.447,-1.555 5.478,-3.509 7.622,-3.68 0.972,-0.077 1.224,-0.133 2.013,-0.681 z"
     id="path114"
     style="fill:url(#gradient_3)" />
  <path
     fill="#fefefd"
     d="m 517.995,521.759 c 0.117,0.106 0.232,0.216 0.351,0.32 5.125,4.456 15.192,8.294 21.311,12.432 q 1.037,0.712 2.054,1.452 1.018,0.74 2.014,1.507 0.996,0.768 1.972,1.562 0.975,0.795 1.928,1.616 0.953,0.821 1.883,1.668 0.93,0.846 1.837,1.718 0.906,0.872 1.788,1.769 0.883,0.896 1.74,1.816 0.858,0.921 1.69,1.864 0.832,0.944 1.637,1.909 0.806,0.966 1.585,1.954 0.779,0.987 1.531,1.996 0.751,1.009 1.475,2.037 0.724,1.029 1.419,2.077 0.695,1.049 1.362,2.116 0.666,1.066 1.303,2.151 0.636,1.085 1.243,2.187 0.607,1.101 1.184,2.219 0.576,1.118 1.122,2.252 0.545,1.133 1.059,2.281 0.515,1.148 0.997,2.309 0.483,1.162 0.934,2.336 0.45,1.175 0.869,2.361 0.418,1.186 0.804,2.383 0.385,1.198 0.738,2.405 0.353,1.207 0.672,2.424 0.32,1.217 0.606,2.442 0.286,1.224 0.538,2.457 0.252,1.232 0.471,2.471 0.218,1.238 0.403,2.483 0.184,1.244 0.335,2.493 0.15,1.249 0.266,2.501 c 1.593,18.512 0.756,37.307 -8.265,54.018 -2.187,4.051 -5.066,7.713 -7.644,11.517 -0.751,-0.444 -1.41,-0.815 -2.245,-1.09 -1.023,-0.336 -2.312,0.076 -3.28,0.519 -2.919,1.337 -9.299,7.135 -12.9,9.495 -17.472,11.449 -37.519,20.21 -58.734,20.893 -17.895,0.576 -38.505,-5.346 -53.779,-14.632 -7.289,-4.431 -14.293,-10.546 -20.542,-16.327 -3.01,-2.785 -6.048,-6.124 -9.378,-8.475 -1.162,-0.82 -2.255,-0.788 -3.606,-0.794 -12.912,-23.056 -14.677,-49.985 -7.473,-75.238 5.606,-19.654 21.791,-39.486 39.619,-49.372 6.45,-3.577 13.291,-6.402 19.539,-10.344 14.57,3.392 51.903,1.826 67.567,-0.138 z"
     id="path115" />
  <path
     fill="#27282d"
     d="m 566.229,644.596 c 1.057,0.089 1.941,0.299 2.954,0.613 1.082,1.044 1.429,1.441 1.719,2.987 -0.545,1.265 -0.582,1.334 -1.759,2.042 -1.574,-1.442 -4.134,-2.189 -5.174,-3.905 0.739,-1.125 1.012,-1.176 2.26,-1.737 z"
     id="path116" />
  <path
     fill="#191a21"
     d="m 549.054,656.426 c 1.953,0.013 3.375,-0.139 4.88,1.244 0.524,1.695 0.019,3.352 -0.297,5.05 -1.172,-0.069 -2.443,-0.183 -3.349,-1.02 -1.452,-1.341 -1.257,-3.481 -1.234,-5.274 z"
     id="path117" />
  <path
     fill="#050609"
     d="m 557.791,654.486 c 1.764,0.518 3.991,0.861 5.25,2.274 0.133,1.654 -0.403,2.065 -1.267,3.444 -0.791,0.665 -1.312,0.93 -2.31,1.198 -0.627,-0.3 -1.097,-0.358 -1.438,-1.013 -0.954,-1.835 -0.701,-3.979 -0.235,-5.903 z"
     id="path118" />
  <path
     fill="#191a21"
     d="m 553.256,641.229 c 0.874,0.201 1.788,0.436 2.599,0.823 0.983,0.468 1.795,1.422 2.067,2.485 0.499,1.952 -0.546,3.574 -1.622,5.086 -1.201,-0.291 -2.462,-0.605 -3.512,-1.287 -0.662,-0.43 -1.27,-1.321 -1.408,-2.074 -0.371,-2.015 0.781,-3.478 1.876,-5.033 z"
     id="path119" />
  <path
     fill="#cbcbca"
     d="m 553.158,585.025 c 1.393,-0.038 2.719,0.119 4.044,0.566 2.847,0.96 5.332,2.946 6.521,5.739 1.071,2.514 1.19,5.385 0.131,7.921 -1.694,4.053 -5.051,5.972 -8.879,7.633 -1.137,0.106 -2.517,0.317 -3.639,0.082 -2.728,-0.571 -5.692,-2.896 -6.954,-5.369 q -0.253,-0.485 -0.453,-0.994 -0.201,-0.51 -0.347,-1.037 -0.146,-0.527 -0.236,-1.067 -0.09,-0.54 -0.122,-1.086 -0.033,-0.547 -0.008,-1.093 0.025,-0.547 0.107,-1.088 0.082,-0.541 0.22,-1.071 0.139,-0.529 0.332,-1.041 c 1.682,-4.388 5.222,-6.346 9.283,-8.095 z"
     id="path120" />
  <path
     fill="#cbcbca"
     d="m 413.162,585.629 c 1.335,-0.017 2.657,-0.009 3.922,0.471 3.217,1.222 6.066,3.593 7.328,6.84 0.996,2.566 0.811,5.373 -0.391,7.836 -1.852,3.793 -4.937,5.481 -8.776,6.779 -2.061,-0.061 -3.704,-0.309 -5.532,-1.336 -3.085,-1.733 -5.414,-4.423 -6.215,-7.922 q -0.114,-0.477 -0.179,-0.964 -0.064,-0.486 -0.079,-0.976 -0.015,-0.491 0.021,-0.98 0.035,-0.49 0.12,-0.973 0.085,-0.483 0.219,-0.955 0.135,-0.472 0.316,-0.928 0.182,-0.456 0.409,-0.891 0.227,-0.435 0.497,-0.844 c 1.924,-2.94 5.009,-4.439 8.34,-5.157 z"
     id="path121" />
  <path
     fill="#191a21"
     d="m 429.516,560.079 c 1.487,-0.153 3.034,-0.358 4.524,-0.162 2.584,0.341 5.108,1.851 6.626,3.97 1.8,2.513 2.337,5.847 1.852,8.858 -0.779,4.828 -3.78,7.75 -7.646,10.409 -1.595,0.458 -3.356,0.448 -4.976,0.122 -2.639,-0.531 -4.775,-1.824 -6.211,-4.137 -1.905,-3.068 -2.284,-7.168 -1.329,-10.614 1.186,-4.281 3.443,-6.268 7.16,-8.446 z"
     id="path122" />
  <path
     fill="#191a21"
     d="m 531.521,560.112 c 1.848,-0.113 3.898,-0.349 5.715,0.065 3.286,0.747 6.288,3.082 8,5.952 1.54,2.58 2.162,5.779 1.389,8.711 -1.064,4.032 -4.093,6.116 -7.523,8.085 -2.32,0.756 -4.679,1.102 -7.027,0.239 -2.998,-1.101 -5.288,-3.4 -6.609,-6.285 -1.466,-3.204 -1.693,-6.925 -0.426,-10.235 1.292,-3.377 3.293,-5.031 6.481,-6.532 z"
     id="path123" />
  <path
     fill="#050609"
     d="m 480.736,562.123 c 2.603,-0.162 5.114,0.033 7.644,0.704 4.159,1.103 8.263,3.313 10.313,7.268 1.421,2.741 1.523,5.836 0.492,8.722 -2.007,5.617 -6.513,8.081 -11.546,10.493 0.633,0.883 1.279,1.744 1.979,2.577 2.783,3.315 6.288,5.126 10.649,5.412 3.352,0.22 6.409,-1.176 8.805,-3.476 3.695,-3.547 1.668,-6.128 1.863,-10.503 0.072,-1.612 0.852,-2.464 2.015,-3.458 1.439,-0.271 2.194,-0.311 3.534,0.372 2.188,1.116 3.899,3.785 4.478,6.109 0.757,3.042 -1.19,7.039 -2.744,9.626 -3.278,5.462 -8.127,8.038 -14.083,9.588 -0.611,5.97 -0.936,12.251 -4.114,17.525 -3.016,5.005 -7.368,7.084 -12.803,8.463 -4.701,0.082 -9.104,-0.521 -12.956,-3.456 -7.294,-5.556 -8.208,-14.546 -9.233,-22.932 -4.105,-0.772 -7.283,-1.764 -10.536,-4.583 -3.738,-3.239 -6.223,-7.618 -6.561,-12.593 -0.15,-2.204 0.059,-5.033 1.813,-6.63 1.217,-1.109 2.884,-1.312 4.452,-1.181 1.496,0.125 2.27,0.483 3.195,1.648 0.29,1.897 -0.69,4.073 -1.251,5.88 1.017,2.36 1.914,4.515 3.896,6.244 2.585,2.254 6.066,3.106 9.434,2.777 5.183,-0.507 8.608,-3.011 11.707,-6.977 -2.587,-0.984 -5.459,-1.897 -7.778,-3.421 -3.502,-2.304 -6.364,-5.77 -7.038,-10.002 -0.439,-2.761 0.101,-5.458 1.753,-7.732 2.983,-4.109 7.875,-5.594 12.621,-6.464 z"
     id="path124" />
  <path
     fill="#fefefd"
     d="m 480.839,600.956 c 0.841,0.888 0.071,9.487 0.488,11.558 0.314,1.561 0.962,3.066 2.468,3.814 1.1,0.546 2.04,0.422 3.123,0.021 2.281,-3.316 1.15,-10.725 1.085,-14.678 2.425,1.576 5.098,2.724 7.709,3.958 0.06,3.503 -0.195,6.819 -0.833,10.259 -0.284,0.859 -0.563,1.669 -1.025,2.451 -1.369,2.321 -3.955,5.193 -6.721,5.696 -2.278,0.414 -4.614,-0.521 -6.455,-1.809 -5.55,-3.882 -6.599,-10.079 -7.723,-16.258 2.437,-1.927 5.218,-3.424 7.884,-5.012 z"
     id="path125" />
  <path
     fill="#fefefd"
     d="m 562.181,682.82 c 5.696,-6.595 10.792,-13.267 15.232,-20.781 7.996,-13.531 6.05,-19.119 19.501,-30.835 2.807,-2.446 6.032,-5.112 9.893,-5.452 2.038,-0.18 4.001,0.401 5.563,1.733 2.697,2.299 3.623,5.921 3.773,9.323 1.035,23.538 -25.933,70.613 -39.39,89.728 -2.098,2.98 -4.127,6.318 -6.567,9.006 -4.002,4.41 -7.836,4.431 -7.739,11.552 0.237,17.532 0.953,35.008 0.581,52.551 -0.064,3.001 0.278,6.678 -0.223,9.59 -0.272,1.578 -1.82,3.804 -1.745,5.307 0.073,1.448 1.482,3.414 2.458,4.393 6.911,6.939 18.06,0.673 26.425,11.671 q 0.379,0.49 0.72,1.006 0.341,0.516 0.643,1.057 0.301,0.54 0.562,1.102 0.261,0.561 0.479,1.14 0.218,0.579 0.393,1.173 0.174,0.594 0.304,1.199 0.13,0.605 0.214,1.218 0.085,0.613 0.123,1.231 c 0.263,4.679 -1.198,9.124 -4.373,12.562 -2.58,2.793 -7.096,7.026 -10.971,7.267 -1.647,-0.868 -2.003,-2.099 -2.53,-3.824 q -0.456,-1.521 -0.877,-3.052 c 0.128,-0.212 0.249,-0.43 0.386,-0.637 2.038,-3.072 11.349,-4.107 10.952,-7.897 -0.196,-1.871 -2.056,-3.412 -3.537,-4.385 -1.012,-0.666 -2.286,-1.087 -3.489,-0.738 -2.149,0.623 -3.481,3.17 -4.281,5.073 -1.527,3.63 -1.106,7.537 -2.741,10.928 -8.332,7.009 -21.208,8.664 -31.779,7.762 -5.623,-0.479 -10.933,-2.045 -16.232,-3.911 0.778,-1.545 1.553,-2.764 1.382,-4.557 -0.806,-1.09 -0.926,-1.184 -2.193,-1.665 -4.824,0.92 -9.426,2.514 -14.168,3.744 -5.662,1.469 -11.689,2.511 -17.499,3.239 -8.052,1.008 -18.132,-0.232 -25.598,2.88 -5.34,2.226 -9.724,6.851 -12.905,11.591 -9.967,14.851 -6.213,51.247 -24.711,55.923 -2.155,0.545 -4.672,-0.618 -6.436,-1.794 -0.704,-0.47 -1.232,-0.976 -1.8,-1.596 l 0.039,-0.667 0.492,-0.356 -2.454,-0.767 c -0.038,-0.038 -0.078,-0.075 -0.115,-0.114 -18.47,-19.296 -14.037,-149.681 -13.998,-180.923 -2.722,-3.875 -6.64,-7.322 -9.666,-11.038 -4.657,-5.718 -8.65,-12.126 -12.694,-18.285 -10.427,-15.876 -34.529,-61.291 -30.197,-79.597 0.679,-2.866 2.334,-5.463 4.937,-6.925 2.373,-1.333 5.089,-1.514 7.667,-0.684 2.911,0.938 5.382,2.933 7.641,4.936 9.535,8.451 12.362,18.274 18.136,29.18 l 0.259,0.348 c 4.495,6.12 7.935,12.806 13.019,18.527 14.447,16.26 41.234,29.715 62.649,33.001 31.082,4.77 61.32,-2.733 86.46,-21.487 q 1.515,-1.131 2.957,-2.354 c 2.465,-2.041 4.666,-4.483 7.068,-6.62 z"
     id="path126" />
  <path
     fill="#4c707a"
     d="m 409.193,818.759 c 1.963,-0.035 4.142,-0.304 5.987,0.448 0.726,1.497 0.246,2.119 -0.171,3.692 -0.221,0.155 -0.423,0.345 -0.664,0.466 -1.076,0.542 -2.267,0.461 -3.321,0.065 -1.275,-1.361 -1.446,-2.894 -1.831,-4.671 z"
     id="path127" />
  <path
     fill="#050609"
     d="m 418.058,924.855 c 0.871,-2.187 1.605,-4.855 3.824,-6.046 1.163,-0.624 2.373,-0.668 3.557,-0.111 0.823,0.387 0.995,0.945 1.469,1.678 0.046,1.313 0.143,1.964 -0.753,3.06 -1.172,1.433 -3.927,1.834 -5.643,2.186 z"
     id="path128" />
  <path
     fill="#e3e2e0"
     d="m 562.181,682.82 c 0.507,0.143 0.926,0.242 1.382,0.511 0.239,2.52 -0.715,4.041 -2.291,5.97 -2.37,2.903 -5.476,5.576 -8.556,7.694 0.937,-2.505 1.82,-4.934 2.397,-7.555 2.465,-2.041 4.666,-4.483 7.068,-6.62 z"
     id="path129" />
  <path
     fill="#050609"
     d="m 412.285,805.771 c 1.219,0.029 2.65,-0.02 3.81,0.392 1.028,0.364 2.269,1.071 2.674,2.148 0.698,1.852 -0.146,3.546 -0.945,5.195 -1.52,0.14 -3.442,0.429 -4.898,-0.177 -0.75,-0.312 -1.351,-0.787 -1.653,-1.54 -0.81,-2.02 0.269,-4.136 1.012,-6.018 z"
     id="path130" />
  <path
     fill="#050609"
     d="m 424.228,816.467 c 1.096,0.261 1.802,0.685 2.421,1.646 0.555,0.86 0.636,2.049 0.353,3.031 -0.718,2.491 -2.08,3.384 -4.261,4.53 -1.438,-0.49 -2.566,-0.983 -3.166,-2.494 -0.609,-1.533 -0.284,-2.999 0.51,-4.374 1.018,-1.762 2.324,-1.886 4.143,-2.339 z"
     id="path131" />
  <path
     fill="#050609"
     d="m 360.435,632.035 c 2.266,-0.135 3.55,-0.226 5.383,1.346 0.421,0.805 0.774,1.418 0.698,2.367 -0.175,2.18 -1.581,3.607 -3.053,5.061 -0.201,-0.009 -0.403,-0.005 -0.603,-0.026 -1.569,-0.168 -3.726,-1.005 -4.649,-2.372 -0.7,-1.036 -0.992,-2.125 -0.628,-3.35 0.445,-1.5 1.633,-2.216 2.852,-3.026 z"
     id="path132" />
  <path
     fill="#050609"
     d="m 605.251,630.874 c 0.239,0.027 0.479,0.04 0.716,0.079 1.57,0.263 3.164,1.031 3.94,2.501 0.543,1.03 0.492,2.221 0.164,3.306 -0.762,2.522 -2.516,3.732 -4.717,4.952 -1.337,-0.463 -3.231,-0.993 -4.299,-1.951 -1.046,-0.938 -1.087,-1.816 -1.204,-3.132 0.949,-2.738 3.06,-4.214 5.4,-5.755 z"
     id="path133" />
  <path
     fill="#cbcbca"
     d="m 389.769,661.405 0.259,0.348 c 4.495,6.12 7.935,12.806 13.019,18.527 14.447,16.26 41.234,29.715 62.649,33.001 31.082,4.77 61.32,-2.733 86.46,-21.487 q 1.515,-1.131 2.957,-2.354 c -0.577,2.621 -1.46,5.05 -2.397,7.555 -2.017,1.12 -3.985,3.167 -5.864,4.576 -2.82,2.113 -5.961,3.714 -9.12,5.252 -27.735,13.505 -61.973,18.17 -91.601,7.82 -19.608,-6.849 -33.882,-17.1 -47.014,-33.033 -2.807,-3.406 -6.046,-6.879 -7.985,-10.869 l 0.756,0.142 c 1.219,2.73 4.159,5.563 6.157,7.814 0.885,-3.739 -7.386,-12.688 -8.276,-17.292 z"
     id="path134" />
</svg>
