<?xml version="1.0" encoding="UTF-8" standalone="no"?>
<svg
   width="1024"
   height="1024"
   version="1.1"
   id="svg87"
   xmlns="http://www.w3.org/2000/svg"
   xmlns:svg="http://www.w3.org/2000/svg">
  <path
     d="m 941.76,492.843 c 1.062,0.027 2.129,-0.013 3.119,0.444 q 0.207,0.097 0.402,0.217 0.195,0.119 0.375,0.259 0.181,0.14 0.345,0.299 0.165,0.159 0.31,0.335 0.146,0.176 0.272,0.366 0.126,0.191 0.23,0.395 0.104,0.203 0.185,0.417 0.081,0.214 0.138,0.435 c 0.806,3.248 -1.164,6.319 -2.997,8.771 -1.254,-0.273 -3.137,-0.498 -4.074,-1.426 -0.917,-0.907 -1.495,-2.362 -1.552,-3.652 -0.116,-2.591 1.481,-5.127 3.247,-6.86 z"
     id="path1" />
  <path
     d="m 895.387,827.576 c 1.369,-0.057 2.929,-0.225 4.276,0.045 1.507,0.302 4.054,2.21 4.682,3.665 0.559,1.298 0.389,1.816 0.072,3.113 -0.976,1.118 -1.579,1.852 -3.058,2.307 -0.769,0.18 -1.565,0.385 -2.35,0.472 -1.71,0.189 -3.998,-0.237 -5.347,-1.415 -0.954,-0.832 -1.523,-1.738 -1.462,-3.048 0.101,-2.159 1.767,-3.71 3.187,-5.139 z"
     id="path2" />
  <path
     d="m 878.61,808.339 c 1.036,0.228 2.115,0.421 3.108,0.8 1.768,0.675 3.282,2.295 3.958,4.046 0.484,1.252 0.486,2.455 -0.179,3.659 -1.123,2.032 -2.936,2.468 -5.047,2.967 -2.239,-0.282 -4.3,-1.555 -6.305,-2.545 -0.339,-1.291 -0.954,-2.98 -0.698,-4.312 0.433,-2.247 3.394,-3.545 5.163,-4.615 z"
     id="path3" />
  <path
     fill="#0e1c15"
     d="m 531.178,837.616 c 2.557,-0.162 5.136,-0.048 7.696,-0.007 0.752,0.581 1.599,1.172 2.258,1.855 0.897,0.929 1.355,1.914 1.256,3.23 -0.169,2.236 -2.74,3.928 -4.401,5.068 -2.684,-0.316 -7.371,-0.419 -9.467,-2.229 -1.126,-0.972 -1.07,-1.376 -1.226,-2.772 0.909,-2.398 1.471,-4.017 3.884,-5.145 z"
     id="path4" />
  <path
     fill="#0e1c15"
     d="m 938.559,526.493 c 0.655,-0.067 1.315,-0.138 1.973,-0.168 1.739,-0.077 2.433,0.355 3.689,1.511 0.466,1.16 0.773,2.037 0.6,3.326 -0.68,5.067 -4.507,10.55 -8.447,13.703 -0.551,0.116 -1.55,0.409 -2.146,0.353 -1.343,-0.127 -1.719,-0.469 -2.593,-1.367 -0.959,-3.775 4.952,-13.814 6.924,-17.358 z"
     id="path5" />
  <path
     fill="#0e1c15"
     d="m 910.322,525.945 c 1.215,-0.131 2.009,0.013 3.184,0.339 1.328,1.212 1.73,2.354 1.785,4.133 0.157,5.089 -3.244,10.68 -6.756,14.182 -1.406,1.403 -3.383,3.438 -5.438,3.423 -0.233,-0.001 -0.464,-0.038 -0.696,-0.057 -1.479,-1.159 -2.751,-2 -3.004,-3.988 -0.681,-5.371 7.464,-14.363 10.925,-18.032 z"
     id="path6" />
  <path
     fill="#0e1c15"
     d="m 853.649,394.395 c 10.864,3.778 13.715,8.555 18.478,18.468 0.885,1.843 1.59,3.789 2.726,5.494 -1.461,0.459 -2.546,0.409 -4.036,0.288 l -1.753,0.97 c -2.462,-2.585 -4.648,-5.4 -7.206,-7.904 -3.513,-3.437 -9.162,-6.613 -11.588,-10.845 0.808,-2.322 2.13,-4.365 3.379,-6.471 z"
     id="path7" />
  <path
     fill="#0e1c15"
     d="m 915.372,488.788 c 1.325,-0.768 2.878,-1.499 4.458,-1.061 1.329,0.369 1.939,0.885 2.63,2.068 2.362,4.043 -0.795,13.165 -2.47,17.207 -1.2,2.894 -3.645,8.466 -6.625,9.693 -1.353,0.557 -3.356,0.461 -4.805,0.53 -0.087,-0.178 -0.197,-0.346 -0.26,-0.532 -1.576,-4.653 5.149,-22.741 7.072,-27.905 z"
     id="path8" />
  <path
     fill="#0e1c15"
     d="m 898.386,556.644 c 1.98,1.061 4.091,2.1 4.956,4.331 0.603,1.554 0.13,3.26 -0.732,4.611 -3.092,4.849 -10.258,7.836 -15.227,10.308 0.914,1.976 1.881,3.942 2.738,5.943 q -0.385,2.31 -0.846,4.606 c -8.043,7.742 -13.469,7.066 -23.899,7.221 0.304,-0.608 0.611,-1.203 0.937,-1.799 3.416,-6.259 9.181,-13.588 16.375,-15.569 0.971,-0.268 1.23,-0.213 1.977,-0.919 -0.233,-1.206 -0.557,-2.407 -0.246,-3.626 1.483,-5.815 9.073,-12.011 13.967,-15.107 z"
     id="path9" />
  <path
     fill="#0e1c15"
     d="m 882.896,424.13 c 0.953,-1.563 1.646,-2.619 3.172,-3.658 1.562,-0.261 2.451,-0.313 3.747,0.709 7.339,5.788 10.972,21.358 12.018,30.171 1.7,-1.206 3.238,-2.491 5.303,-2.969 2.771,0.543 4.119,2.725 5.876,4.783 0.395,10.598 1.659,21.843 -3.97,31.36 -1.06,-0.054 -2.184,-0.063 -3.228,-0.254 -2.842,-0.52 -3.097,-2.917 -3.268,-5.36 -0.281,-3.986 -0.135,-8.284 -1.144,-12.174 -0.989,-3.814 -2.928,-7.496 -4.361,-11.17 -4.162,-10.67 -7.708,-21.364 -13.966,-31.088 z"
     id="path10" />
  <path
     fill="#0e1c15"
     d="m 511.027,182.753 c 12.449,5.053 23.824,15.491 34.728,23.231 8.633,6.129 18.016,11.575 26.275,18.205 -0.282,0.393 -0.073,0.175 -0.768,0.487 -2.182,-1.29 -4.048,-2.573 -5.978,-4.228 l -2.489,2.697 c -1.681,0.491 -2.65,-0.017 -4.321,-0.459 -5.909,-2.073 -21.701,-17.214 -25.045,-17.71 -1.197,1.877 -2.489,4.073 -4.38,5.311 -2.883,1.886 -6.508,1.146 -9.657,0.49 -2.542,-1.236 -5.028,-2.589 -7.527,-3.911 -1.392,-1.186 -2.746,-2.504 -3.93,-3.902 -2.142,-2.531 -4.168,-5.411 -3.774,-8.889 0.462,-4.079 4.63,-4.993 7.441,-6.812 l -0.578,-1.089 c -0.664,-1.001 -1.035,-1.402 -1.237,-2.597 z"
     id="path11" />
  <defs
     id="defs12">
    <linearGradient
       id="gradient_0"
       gradientUnits="userSpaceOnUse"
       x1="551.0343"
       y1="360.36435"
       x2="699.57697"
       y2="372.30936">
      <stop
         offset="0"
         stop-color="#1C1C16"
         id="stop11" />
      <stop
         offset="1"
         stop-color="#10271E"
         id="stop12" />
    </linearGradient>
  </defs>
  <path
     fill="url(#gradient_0)"
     d="m 572.03,224.189 c 0.126,0.034 0.255,0.059 0.379,0.101 4.187,1.409 11.309,7.567 15.21,10.325 7.476,5.287 15.626,11.664 17.975,20.943 2.861,11.303 -5.052,29.077 -8.202,40.146 -2.566,9.014 -5.061,18.533 -6.665,27.779 -1.351,7.781 -0.817,16.032 -0.76,23.907 0.068,9.454 0.445,18.479 4.65,27.159 6.01,12.405 14.202,21.91 25.439,29.863 2.716,1.922 5.854,4.194 9.059,5.185 1.621,0.502 2.531,0.35 4.03,-0.377 1.924,-2.235 9.944,-29.796 13.925,-36.713 3.999,-6.949 9.088,-13.159 13.624,-19.738 11.633,-16.871 22.879,-34.459 31.82,-52.903 1.873,-3.863 4.1,-7.856 5.306,-11.989 1.224,-4.19 0.821,-7.218 -1.563,-10.892 -3.646,-5.62 -9.679,-9.617 -14.814,-13.778 -8.845,-7.168 -24.994,-20.164 -32.198,-28.458 -2.818,-3.245 -5.468,-7.553 -7.47,-11.361 -3.55,-6.753 -4.57,-15.767 -2.072,-23.007 2.691,-7.796 9.169,-14.847 16.63,-18.315 12.225,-5.682 25.527,-2.634 37.615,1.754 -1.147,0.456 -2.282,1.001 -3.497,1.227 l -1.253,0.353 -0.26,0.792 c -1.792,0.114 -6.614,-1.464 -8.428,-2.194 -2.803,-1.845 -7.413,-0.843 -10.641,-0.174 -5.509,1.143 -9.47,2.98 -12.692,7.827 -6.617,9.955 -0.87,24.189 -2.886,27.128 -1.153,0.023 -1.588,-0.36 -2.364,-1.173 -2.534,-2.656 -6.005,-8.382 -5.84,-12.08 0.08,-1.788 0.339,-3.618 0.612,-5.383 l -0.486,0.272 0.593,-1.423 c -0.888,3.02 -2.104,6.129 -1.535,9.285 0.762,4.225 1.733,7.945 3.863,11.716 7.66,13.564 28.911,29.256 41.164,39.676 6.801,5.783 13.736,11.614 18.063,19.547 -0.164,1.164 -0.342,2.323 -0.467,3.491 -0.026,0.242 -0.05,0.484 -0.082,0.725 -2.164,16.046 -26.768,53.825 -36.643,68.145 -5.529,8.018 -12.14,15.967 -16.653,24.602 -8.473,16.213 -14.148,34.469 -17.206,52.489 -0.586,3.45 -1.758,17.736 -2.407,19.212 -1.387,3.156 -0.732,7.935 -0.704,11.383 0.169,20.551 2.94,39.039 10.771,58.147 5.613,13.695 12.7,26.178 19.395,39.288 -0.351,2.115 -0.456,3.902 -1.938,5.54 -3.327,-1.988 -5.612,-4.153 -7.964,-7.203 -7.311,-9.48 -11.509,-18.983 -15.955,-29.947 -3.19,-7.865 -6.467,-15.766 -8.647,-23.991 -6.456,-24.361 -4.959,-51.2 -1.757,-75.887 0.312,-2.682 0.818,-5.374 1.233,-8.044 -9.479,-3.159 -19.008,-9.704 -26.09,-16.706 -24.844,-24.561 -24.635,-53.116 -18.689,-85.212 1.356,-7.321 2.279,-14.902 4.406,-22.046 2.432,-8.167 9.173,-25.454 8.898,-33.298 -0.145,-4.143 -2.802,-8.07 -5.546,-11.006 -2.888,-3.091 -6.61,-5.542 -9.997,-8.058 -7.754,-5.76 -16.308,-11.446 -23.505,-17.846 l -0.34,-0.308 c 1.671,0.442 2.64,0.95 4.321,0.459 l 2.489,-2.697 c 1.93,1.655 3.796,2.938 5.978,4.228 0.695,-0.312 0.486,-0.094 0.768,-0.487 z"
     id="path12"
     style="fill:url(#gradient_0)" />
  <path
     fill="#e2e1dc"
     d="m 708.361,279.216 c -4.327,-7.933 -11.262,-13.764 -18.063,-19.547 -12.253,-10.42 -33.504,-26.112 -41.164,-39.676 -2.13,-3.771 -3.101,-7.491 -3.863,-11.716 -0.569,-3.156 0.647,-6.265 1.535,-9.285 l -0.593,1.423 0.486,-0.272 c -0.273,1.765 -0.532,3.595 -0.612,5.383 -0.165,3.698 3.306,9.424 5.84,12.08 0.776,0.813 1.211,1.196 2.364,1.173 2.016,-2.939 -3.731,-17.173 2.886,-27.128 3.222,-4.847 7.183,-6.684 12.692,-7.827 3.228,-0.669 7.838,-1.671 10.641,0.174 1.814,0.73 6.636,2.308 8.428,2.194 l 0.26,-0.792 1.253,-0.353 c 1.215,-0.226 2.35,-0.771 3.497,-1.227 6.204,2.809 10.996,8.298 17.123,10.771 l -1.846,0.745 c -3.203,1.241 -5.022,2.555 -6.483,5.733 q -0.478,1.059 -0.906,2.139 c 1.644,4.417 3.839,7.648 7.062,11.101 l -0.998,0.366 c -1.74,-1.096 -1.877,-3.779 -3.822,-3.792 -1.028,0.998 -1.968,1.817 -2.052,3.363 -0.065,1.176 0.133,1.605 0.777,2.492 l 1.026,0.082 0.302,-0.768 c 0.406,-1.01 0.21,-0.618 0.704,-1.436 0.59,0.536 0.708,0.385 0.69,1.078 -0.034,1.277 -0.853,2.663 -1.774,3.497 l 0.312,0.48 c 2.243,3.407 4.653,4.036 3.798,8.356 13.558,12.312 29.707,23.791 35.82,41.839 0.933,2.755 1.88,5.484 2.068,8.408 0.497,7.727 -5.401,18.101 -8.461,25.134 -9.558,21.965 -17.826,40.14 -31.162,60.287 -6.085,9.192 -13.823,16.623 -20.84,25.021 -15.144,18.126 -26.56,42.114 -28.116,65.891 -1.494,22.838 1.321,47.246 7.833,69.157 2.856,9.608 6.852,18.948 8.844,28.793 -1.278,2.714 -3.521,6.398 -6.569,7.36 -0.818,0.257 -1.23,0.018 -2.025,-0.178 -0.764,-0.939 -0.746,-1.879 -0.888,-3.041 -6.695,-13.11 -13.782,-25.593 -19.395,-39.288 -7.831,-19.108 -10.602,-37.596 -10.771,-58.147 -0.028,-3.448 -0.683,-8.227 0.704,-11.383 0.649,-1.476 1.821,-15.762 2.407,-19.212 3.058,-18.02 8.733,-36.276 17.206,-52.489 4.513,-8.635 11.124,-16.584 16.653,-24.602 9.875,-14.32 34.479,-52.099 36.643,-68.145 0.032,-0.241 0.056,-0.483 0.082,-0.725 0.125,-1.168 0.303,-2.327 0.467,-3.491 z"
     id="path13" />
  <path
     fill="#30362e"
     d="m 693.948,183.82 c 6.204,2.809 10.996,8.298 17.123,10.771 l -1.846,0.745 c -6.315,-3.112 -12.656,-6.79 -18.774,-10.289 1.215,-0.226 2.35,-0.771 3.497,-1.227 z"
     id="path14" />
  <path
     fill="#0e1c15"
     d="m 666.928,190.737 c 1.034,-1.297 2.079,-2.561 3.321,-3.668 3.214,-2.863 6.104,-3.3 10.261,-3.071 1.814,0.73 6.636,2.308 8.428,2.194 2.821,1.538 5.559,3.758 6.641,6.858 -0.1,0.837 -0.026,1.405 -0.553,2.106 -1.371,1.825 -3.846,2.201 -5.984,2.334 -8.276,0.516 -15.904,-1.105 -22.114,-6.753 z"
     id="path15" />
  <path
     fill="#0e1c15"
     d="m 668.537,201.933 c 3.024,0.224 5.357,0.728 8.026,-1.029 2.109,-1.388 3.48,-1.79 5.99,-1.412 9.7,1.46 16.042,12.51 21.198,19.699 l 0.312,0.48 c 2.243,3.407 4.653,4.036 3.798,8.356 -2.747,-1.895 -6.006,-3.392 -8.54,-5.55 -7.135,-6.075 -12.489,-14.233 -22.003,-17.049 -1.614,-0.477 -2.52,-0.341 -3.993,0.41 -6.178,8.153 7.777,17.709 7.096,23.402 l -1.075,0.767 c -1.881,0.131 -3.24,-0.19 -4.897,-1.123 -4.456,-2.508 -7.803,-7.691 -8.951,-12.598 -1.312,-5.611 0.216,-9.641 3.039,-14.353 z"
     id="path16" />
  <path
     fill="#0e1c15"
     d="m 273.476,160.759 c 0.477,-0.183 0.645,-0.303 1.162,-0.294 3.653,0.063 8.856,4 11.438,6.439 5.487,5.184 7.282,13.075 5.747,20.351 -0.597,2.831 -1.793,5.738 -1.705,8.644 2.319,1.393 4.674,2.774 6.815,4.432 4.819,3.734 8.977,8.488 9.72,14.691 q 0.085,0.683 0.136,1.37 0.052,0.686 0.068,1.374 0.017,0.688 -0.001,1.377 -0.018,0.688 -0.07,1.374 -0.053,0.686 -0.139,1.369 -0.087,0.683 -0.208,1.361 -0.12,0.678 -0.275,1.349 -0.154,0.67 -0.342,1.333 -0.188,0.662 -0.409,1.314 -0.221,0.652 -0.474,1.292 -0.254,0.64 -0.539,1.267 -0.285,0.626 -0.601,1.238 -0.316,0.611 -0.662,1.206 -0.346,0.595 -0.722,1.172 -0.375,0.577 -0.78,1.134 -0.404,0.558 -0.835,1.094 -0.41,0.497 -0.844,0.973 -0.434,0.476 -0.892,0.93 -0.457,0.454 -0.936,0.885 -0.479,0.431 -0.979,0.838 -0.499,0.407 -1.019,0.788 -0.519,0.382 -1.056,0.737 -0.538,0.356 -1.092,0.684 -0.554,0.329 -1.124,0.629 -0.57,0.301 -1.154,0.573 -0.584,0.272 -1.181,0.515 -0.597,0.243 -1.205,0.456 -0.608,0.213 -1.226,0.396 -0.618,0.183 -1.244,0.335 -0.626,0.152 -1.259,0.273 -0.633,0.121 -1.271,0.211 -0.638,0.089 -1.28,0.147 c -8.857,0.794 -16.594,-1.894 -23.347,-7.578 -10.376,2.88 -25.321,11.839 -34.551,17.591 -2.506,1.561 -4.725,3.666 -7.31,5.082 -3.68,2.015 -7.666,3.633 -11.395,5.632 -9.031,4.843 -17.884,10.077 -27.028,14.706 -6.356,3.217 -13.084,5.487 -18.891,9.73 0.026,1.932 0.094,3.91 -0.034,5.837 -0.474,7.143 -4.604,13.924 -9.956,18.491 -7.556,6.449 -15.622,8.066 -25.307,7.362 -3.985,-1.57 -7.332,-3.14 -10.45,-6.126 -1.28,-1.226 -2.592,-2.357 -3.961,-3.482 -0.987,-3.688 -2.773,-9.669 -2.016,-13.452 0.623,-3.109 1.883,-6.032 2.424,-9.184 -1.184,-1.755 -6.915,-3.402 -9.046,-4.846 -4.8263,-3.271 -8.5271,-8.248 -9.4799,-14.068 -1.1701,-7.147 0.0783,-15.517 4.5537,-21.317 4.5082,-5.841 11.7172,-9.413 18.9772,-10.241 9.666,-1.102 18.498,2.201 25.904,8.227 8.839,-5.467 18.944,-9.732 28.176,-14.622 9.537,-5.051 18.705,-10.917 28.305,-15.834 7.544,-3.864 32.492,-15.772 37.344,-20.543 2.778,-2.731 0.424,-16.685 9.159,-25.751 7.774,-8.069 17.624,-9.614 28.367,-9.871 z"
     id="path17" />
  <path
     fill="#e2e1dc"
     d="m 264.941,168.599 c 5.257,-0.629 9.679,1.104 14.552,2.818 2.813,4.504 4.422,8.097 5.142,13.403 -2.289,7.221 -5.597,8.946 -9.777,14.658 1.463,4.919 17.315,4.565 22.607,13.006 1.842,2.939 2.135,6.34 1.342,9.674 -1.14,4.794 -4.174,9.452 -8.443,11.97 -9.465,5.583 -17.211,3.217 -25.392,-3.033 -1.576,-1.204 -3.605,-3.101 -5.59,-3.445 -1.819,-0.316 -18.785,9.38 -21.536,10.906 -9.387,5.208 -18.501,10.914 -27.884,16.109 -10.061,5.571 -20.4,10.756 -30.536,16.212 -8.945,4.815 -18.592,8.628 -27.132,14.139 -0.257,4.092 -0.035,8.075 0.352,12.151 -4.922,9.431 -7.251,12.127 -17.292,16.233 -2.369,0.46 -4.796,0.594 -7.053,-0.394 -0.842,-0.369 -1.307,-0.491 -2.238,-0.37 -0.305,0.04 -0.607,0.096 -0.91,0.143 -2.753,-1.386 -5.255,-3.173 -6.706,-5.977 -4.685,-9.049 2.935,-15.503 5.443,-23.264 -0.316,-0.969 -0.531,-1.767 -1.317,-2.483 -2.242,-2.044 -6.932,-0.853 -9.718,-0.543 l 0.119,0.133 c -0.543,-0.191 -0.665,-0.22 -1.257,-0.508 -2.944,-1.434 -7.743,-4.169 -8.745,-7.378 -0.77,-2.465 -2.857,-5.02 -2.933,-7.563 2.047,-3.816 1.587,-8.81 4.679,-11.969 6.338,-6.476 16.449,-7.838 24.459,-3.836 3.846,1.921 8.387,6.686 12.833,6.466 5.305,-0.263 93.236,-48.839 102.168,-54.98 1.176,-0.809 2.161,-1.832 3.116,-2.882 -0.873,-3.932 -1.422,-10.098 -0.41,-14.055 0.291,-1.139 0.467,-2.162 0.578,-3.335 l 0.042,-0.468 c 2.545,-2.582 5.106,-5.439 8.089,-7.515 0.234,-0.163 0.475,-0.316 0.712,-0.476 2.635,-1.786 5.628,-2.599 8.636,-3.547 z"
     id="path18" />
  <path
     fill="#0e1c15"
     d="m 696.008,735.53 c 15.283,0.201 30.689,-0.574 45.948,0.087 25.2,1.092 68.195,5.648 87.465,22.867 4.099,3.663 6.796,7.876 9.125,12.809 6.056,12.831 10.827,31.852 15.234,45.886 1.726,5.495 4.32,10.772 5.784,16.331 q 0.973,3.769 1.157,7.657 c 0.354,7.769 -2.333,14.175 -7.583,19.811 -21.189,22.746 -75.823,33.119 -106.513,34.419 -11.335,0.157 -22.796,0.693 -34.123,0.428 -35.927,-0.842 -79.833,-8.115 -110.708,-27.133 -8.401,-5.175 -18.084,-12.237 -20.252,-22.538 -0.523,-2.483 -0.22,-5.014 0.328,-7.463 1.389,-6.208 4.374,-12.292 6.353,-18.353 5.079,-15.563 10.467,-39.896 19.379,-53.217 12.699,-18.98 49.831,-25.758 70.806,-29.128 5.858,-0.941 11.791,-1.281 17.6,-2.463 z"
     id="path19" />
  <path
     fill="#30362e"
     d="m 802.411,756.506 c 2.273,-0.564 4.119,-0.997 6.252,0.29 1.416,0.854 1.675,2.072 2.015,3.553 l -0.769,1.906 c -2.225,-2.437 -4.703,-4.066 -7.498,-5.749 z"
     id="path20" />
  <path
     fill="#e6d8c6"
     d="m 824.36,771.023 -1.684,-0.484 c -2.746,-5.237 -6.107,-9.207 -10.847,-12.725 5.97,2.587 9.72,5.034 13.859,10.154 -0.724,1.075 -1.099,1.775 -1.328,3.055 z"
     id="path21" />
  <path
     fill="#e2e1dc"
     d="m 632.118,758.374 0.302,0.091 0.28,0.547 c -1.749,1.848 -4.173,2.337 -5.968,4.045 -3.865,3.675 -7.112,9.563 -10.25,13.94 l -0.334,-0.357 c 0.423,-1.449 0.261,-2.935 0.555,-4.407 0.691,-3.461 2.946,-6.393 5.096,-9.077 4.156,-1.08 7.036,-1.833 10.319,-4.782 z"
     id="path22" />
  <path
     fill="#e2e1dc"
     d="m 590.376,839.369 c 4.137,1.859 7.855,6.959 11.47,9.802 10.465,8.231 24.253,14.61 36.955,18.546 8.84,2.739 18.136,4.289 27.248,5.8 29.414,4.875 59.817,7.053 89.524,3.521 28.402,-3.377 68.488,-10.346 90.157,-29.815 2.442,-2.194 4.479,-4.994 6.509,-7.571 0.236,4.314 0.681,7.268 -1.51,11.211 -3.93,5.02 -9.18,9.154 -14.643,12.403 -27.624,16.426 -65.329,21.881 -97.086,23.439 -5.854,0.287 -12.991,1.388 -18.622,-0.144 -3.482,-0.947 -5.616,1.325 -8.913,0.9 -2.704,-0.348 -5.319,-1.261 -8.012,-1.572 -3.002,-0.346 -6.171,0.256 -9.215,0.009 -15.98,-1.296 -33.13,-4.19 -48.643,-8.126 -15.994,-4.058 -46.822,-15.803 -55.57,-30.469 -0.064,-2.691 -0.193,-5.279 0.351,-7.934 z"
     id="path23" />
  <path
     fill="#e2e1dc"
     d="m 643.175,787.371 c -5.34,-2.47 -14.433,-5.55 -16.401,-11.601 -0.859,-2.643 -0.098,-5.242 1.201,-7.601 5.171,-9.393 14.783,-13.524 24.588,-16.438 8.962,-2.664 18.499,-4.974 27.757,-6.269 32.634,-4.563 92.996,-4.688 122.091,11.044 2.795,1.683 5.273,3.312 7.498,5.749 2.753,4.018 4.068,7.677 5.152,12.367 -3.087,6.301 -7.639,7.736 -13.756,10.385 -4.77,-4.713 -20.109,-13.363 -26.711,-13.865 -7.202,-0.549 -12.007,2.896 -17.255,7.212 -0.63,-1.851 -1.181,-3.818 -1.977,-5.605 -1.948,-4.377 -5.122,-6.288 -9.468,-7.877 -11.203,2.161 -10.682,3.871 -19.136,9.968 -0.256,-2.472 -0.488,-5.213 -1.751,-7.405 -1.824,-3.165 -4.831,-5.172 -8.348,-5.988 q -0.554,-0.129 -1.114,-0.23 -0.56,-0.101 -1.125,-0.173 -0.564,-0.072 -1.132,-0.115 -0.567,-0.044 -1.136,-0.058 -0.569,-0.014 -1.138,0.002 -0.569,0.015 -1.136,0.059 -0.567,0.044 -1.132,0.117 -0.564,0.073 -1.124,0.175 -0.56,0.102 -1.114,0.233 -0.553,0.13 -1.1,0.289 -0.546,0.159 -1.084,0.345 -0.538,0.187 -1.065,0.4 -0.528,0.214 -1.043,0.454 -0.516,0.241 -1.019,0.507 -0.503,0.267 -0.991,0.559 -0.489,0.292 -0.962,0.608 c -3.588,2.408 -4.647,6.372 -5.432,10.404 l -0.126,0.674 c -1.426,0.886 -2.932,0.74 -4.577,0.84 q -1.223,-1.093 -2.505,-2.117 c -4.182,-3.299 -9.573,-4.431 -14.797,-3.725 -9.721,1.313 -22.801,8.804 -28.632,16.676 z"
     id="path24" />
  <path
     fill="#e2e1dc"
     d="m 825.688,767.968 c 2.045,1.906 3.316,3.472 4.471,6.023 2.077,4.589 2.886,9.765 4.481,14.545 4.753,14.248 10.161,28.787 13.864,43.329 -13.858,20.272 -48.881,30.478 -72.217,34.846 -45.729,8.56 -127.391,5.428 -166.863,-21.424 -4.581,-3.117 -13.785,-10.187 -14.524,-16.032 -0.239,-1.894 13.932,-43.774 15.563,-47.511 0.811,-1.857 2.069,-3.265 3.45,-4.72 6.877,5.858 13.602,11.57 21.873,15.401 27.822,12.883 84.187,14.482 114.754,12.065 18.722,-1.48 55.351,-5.56 68.219,-20.645 3.108,-3.644 4.04,-8.421 5.601,-12.822 0.229,-1.28 0.604,-1.98 1.328,-3.055 z"
     id="path25" />
  <defs
     id="defs26" />
  <path
     fill="#e2e1dc"
     d="m 769.176,826.874 c 3.643,0.121 6.604,1.114 9.325,3.61 1.97,1.807 3.51,4.272 3.57,7.01 0.066,3.016 -1.123,4.608 -3.093,6.748 -1.929,1.447 -4.745,3.829 -7.217,3.8 -2.231,-3.395 -2.335,-16.561 -2.585,-21.168 z"
     id="path32" />
  <path
     fill="#0e1c15"
     d="m 524.483,270.938 c -0.98,-1.643 -1.974,-3.455 -3.35,-4.799 -7.021,-6.867 -16.368,-11.955 -24.605,-17.181 -4.345,-2.757 -8.506,-5.766 -12.883,-8.483 -9.329,-5.789 -19.174,-11.215 -25.129,-20.762 -5.654,-9.065 -8.158,-17.016 -5.583,-27.571 1.379,-5.653 4.391,-10.105 9.473,-13.045 7.52,-4.35 18.778,-5.283 27.083,-3.108 7.207,1.025 15.448,2.459 21.538,6.764 l -1.24,0.824 c 0.202,1.195 0.573,1.596 1.237,2.597 l 0.578,1.089 c -2.811,1.819 -6.979,2.733 -7.441,6.812 -0.394,3.478 1.632,6.358 3.774,8.889 1.184,1.398 2.538,2.716 3.93,3.902 2.499,1.322 4.985,2.675 7.527,3.911 3.149,0.656 6.774,1.396 9.657,-0.49 1.891,-1.238 3.183,-3.434 4.38,-5.311 3.344,0.496 19.136,15.637 25.045,17.71 l 0.34,0.308 c 7.197,6.4 15.751,12.086 23.505,17.846 3.387,2.516 7.109,4.967 9.997,8.058 2.744,2.936 5.401,6.863 5.546,11.006 0.275,7.844 -6.466,25.131 -8.898,33.298 -2.127,7.144 -3.05,14.725 -4.406,22.046 -5.946,32.096 -6.155,60.651 18.689,85.212 7.082,7.002 16.611,13.547 26.09,16.706 -0.415,2.67 -0.921,5.362 -1.233,8.044 -3.202,24.687 -4.699,51.526 1.757,75.887 2.18,8.225 5.457,16.126 8.647,23.991 4.446,10.964 8.644,20.467 15.955,29.947 2.352,3.05 4.637,5.215 7.964,7.203 1.482,-1.638 1.587,-3.425 1.938,-5.54 0.142,1.162 0.124,2.102 0.888,3.041 0.795,0.196 1.207,0.435 2.025,0.178 3.048,-0.962 5.291,-4.646 6.569,-7.36 -1.992,-9.845 -5.988,-19.185 -8.844,-28.793 -6.512,-21.911 -9.327,-46.319 -7.833,-69.157 1.556,-23.777 12.972,-47.765 28.116,-65.891 7.017,-8.398 14.755,-15.829 20.84,-25.021 13.336,-20.147 21.604,-38.322 31.162,-60.287 3.06,-7.033 8.958,-17.407 8.461,-25.134 -0.188,-2.924 -1.135,-5.653 -2.068,-8.408 -6.113,-18.048 -22.262,-29.527 -35.82,-41.839 0.855,-4.32 -1.555,-4.949 -3.798,-8.356 l -0.312,-0.48 c 0.921,-0.834 1.74,-2.22 1.774,-3.497 0.018,-0.693 -0.1,-0.542 -0.69,-1.078 -0.494,0.818 -0.298,0.426 -0.704,1.436 l -0.302,0.768 -1.026,-0.082 c -0.644,-0.887 -0.842,-1.316 -0.777,-2.492 0.084,-1.546 1.024,-2.365 2.052,-3.363 1.945,0.013 2.082,2.696 3.822,3.792 l 0.998,-0.366 c -3.223,-3.453 -5.418,-6.684 -7.062,-11.101 q 0.428,-1.08 0.906,-2.139 c 1.461,-3.178 3.28,-4.492 6.483,-5.733 l 1.846,-0.745 c 8.512,5.905 15.384,12.926 22.746,20.116 5.756,5.622 11.82,11.036 17.391,16.832 5.418,5.637 10.467,11.639 15.76,17.396 4.711,5.125 10.343,9.871 14.151,15.749 2.194,3.386 3.961,8.229 4.743,12.173 0.207,1.042 0.137,1.833 0.013,2.874 -1.743,14.598 -7.622,29.404 -12.073,43.393 -2.756,8.663 -4.851,17.492 -7.104,26.294 -1.475,5.766 -3.247,11.573 -4.407,17.404 -2.882,14.492 -4.812,43.545 -2.178,57.979 2.114,11.58 7.439,23.02 11.393,34.049 5.234,14.6 10.011,30.008 13.901,45.024 2.178,8.408 3.553,17.972 4.052,26.648 0.268,4.671 -0.125,9.712 0.776,14.292 2.56,0.762 5.19,-0.814 7.437,-2.039 10.847,-5.911 15.455,-12.621 20.697,-23.544 1.811,-3.773 3.777,-7.531 4.942,-11.567 4.508,-15.617 1.809,-38.451 -3.445,-53.784 -0.979,-2.855 -2.724,-5.367 -3.682,-8.238 -2.648,-7.932 -4.929,-15.96 -7.966,-23.762 -2.301,-5.914 -7.656,-19.479 -7.612,-25.217 0.024,-3.012 2.261,-5.444 4.736,-6.865 6.338,-3.636 15.33,-2.192 22.049,-0.2 8.736,2.589 15.235,6.33 22.2,12.074 l 0.679,-0.806 c 2.426,4.232 8.075,7.408 11.588,10.845 2.558,2.504 4.744,5.319 7.206,7.904 l 1.753,-0.97 c 1.49,0.121 2.575,0.171 4.036,-0.288 l 0.449,0.602 c 2.427,1.891 4.776,3.886 7.594,5.171 l 0.179,0.35 c 6.258,9.724 9.804,20.418 13.966,31.088 1.433,3.674 3.372,7.356 4.361,11.17 1.009,3.89 0.863,8.188 1.144,12.174 0.171,2.443 0.426,4.84 3.268,5.36 1.044,0.191 2.168,0.2 3.228,0.254 0.009,1.812 0.157,3.079 0.795,4.781 1.014,0.953 1.116,0.973 2.498,1.177 q 1.532,-0.825 3.037,-1.696 c -1.923,5.164 -8.648,23.252 -7.072,27.905 0.063,0.186 0.173,0.354 0.26,0.532 -0.023,0.184 -0.044,0.368 -0.069,0.552 -0.304,2.265 -1.882,4.864 -1.619,6.985 1.085,1.056 1.979,0.947 3.45,1.183 -3.461,3.669 -11.606,12.661 -10.925,18.032 0.253,1.988 1.525,2.829 3.004,3.988 -2.062,2.734 -3.754,5.161 -4.015,8.679 -4.894,3.096 -12.484,9.292 -13.967,15.107 -0.311,1.219 0.013,2.42 0.246,3.626 -0.747,0.706 -1.006,0.651 -1.977,0.919 -7.194,1.981 -12.959,9.31 -16.375,15.569 -0.326,0.596 -0.633,1.191 -0.937,1.799 -1.358,1.151 -2.413,2.326 -3.521,3.718 0.472,1.213 0.947,2.351 1.564,3.498 0.444,0.826 0.766,1.445 0.498,2.419 -0.263,0.953 -0.877,1.969 -1.329,2.853 -6.732,4.455 -14.076,6.784 -21.415,9.966 -32.059,13.901 -43.541,16.478 -78.558,16.899 -27.782,38.061 -58.937,59.712 -102.158,77.315 -8.516,3.468 -17.101,7.056 -25.833,9.927 -3.864,1.27 -7.88,1.919 -11.782,3.044 -7.782,2.243 -15.452,4.678 -23.282,6.784 -6.058,1.63 -12.027,3.729 -18.136,5.151 -9.086,2.114 -18.302,3.442 -27.416,5.344 -5.288,1.103 -10.485,2.942 -15.815,3.752 -3.692,0.561 -7.449,0.592 -11.133,1.193 -3.971,0.649 -7.859,1.84 -11.858,2.288 -5.054,0.566 -10.12,0.496 -15.211,1.132 -15.314,1.914 -30.854,4.263 -46.239,5.367 -4.483,0.322 -8.999,0.126 -13.488,0.393 -8.549,0.509 -17.068,1.451 -25.627,1.87 -5.115,0.25 -10.778,-0.195 -15.789,0.566 -0.895,0.136 -1.655,0.479 -2.432,0.924 -3.764,0.079 -7.64,0.345 -11.37,-0.224 -2.618,-1.12 -5.357,-0.777 -8.142,-0.7 -4.206,-0.726 -8.676,-0.859 -12.937,-1.364 -3.336,-0.668 -6.724,-0.977 -10.058,-1.644 -3.564,-0.712 -8.325,-2.478 -11.917,-2.451 -2.372,0.019 -10.361,5.29 -15.405,5.774 -4.613,0.443 -9.764,0.419 -14.37,-0.108 -4.177,-0.477 -8.927,-2.282 -13.077,-1.598 -3.822,0.629 -7.261,3.073 -11.03,3.964 -6.24,1.475 -16.009,1.728 -22.506,1.803 1.799,7.658 0.067,15.345 -4.07,22.012 -4.986,8.033 -14.749,13.381 -23.805,15.374 -8.794,1.934 -30.481,2.103 -39.296,0.013 -0.588,0.027 -1.092,0.049 -1.677,-0.048 -20.528,-3.408 -37.402,-17.226 -49.993,-33.027 -3.076,-3.859 -5.534,-8.041 -8.484,-11.974 -1.332,-2.503 -3.194,-7.924 -6.195,-8.592 -2.384,-0.531 -5.365,1.407 -7.44,2.431 -8.007,1.822 -15.6,6.074 -24.094,4.671 -21.0683,-3.479 -24.7066,-26.107 -35.0995,-40.884 -0.0836,-0.119 -0.1703,-0.236 -0.2555,-0.354 -0.988,-2.817 -2.3675,-5.467 -3.308,-8.322 -2.8662,-8.699 -4.776,-20.62 -2.6731,-29.669 3.0147,-12.974 13.794,-20.21 24.4147,-26.747 -0.5218,-11.467 -0.8633,-23.511 -0.3462,-34.959 0.9121,-20.191 8.9255,-41.292 23.8716,-55.125 3.081,-2.852 7.377,-4.363 10.974,-6.534 2.229,-6.106 -4.604,-28.877 -6.079,-36.305 -1.008,-5.076 -1.672,-10.336 -2.102,-15.499 -0.962,-11.564 -1.192,-25.923 6.812,-35.26 11.959,-13.95 28.448,-19.247 46.239,-20.429 -0.018,-1.663 -0.111,-3.441 0.158,-5.085 0.927,-5.674 6.918,-10.797 11.384,-13.995 8.618,-6.17 19.746,-5.232 29.18,-1.634 3.399,1.297 6.957,3.373 10.534,3.97 5.254,-1.529 9.805,-7.018 13.885,-10.578 -1.769,-1.736 -3.628,-3.464 -5.181,-5.399 -5.508,-6.863 -6.208,-16.26 -5.168,-24.703 1.223,-9.921 7.666,-18.304 15.38,-24.268 q 0.663,-0.519 1.351,-1.005 0.688,-0.486 1.399,-0.936 0.711,-0.451 1.444,-0.866 0.733,-0.415 1.485,-0.793 0.753,-0.378 1.523,-0.718 0.771,-0.34 1.557,-0.641 0.786,-0.302 1.587,-0.563 0.8,-0.262 1.612,-0.484 0.813,-0.222 1.635,-0.403 0.823,-0.181 1.653,-0.32 0.83,-0.14 1.667,-0.239 0.836,-0.098 1.676,-0.155 0.84,-0.056 1.682,-0.071 0.842,-0.015 1.684,0.012 0.842,0.027 1.681,0.096 0.839,0.069 1.674,0.18 c 9.212,1.215 15.569,5.037 21.165,12.465 2.89,-1.803 5.513,-4.748 8.033,-7.054 1.864,-1.705 7.007,-5.732 7.52,-8.261 0.313,-1.545 -1.105,-4.848 -1.349,-6.566 -0.765,-5.394 -1.037,-13.241 0.363,-18.457 1.793,-6.679 7.088,-13.706 13.2,-16.949 7.766,-4.121 19.433,-5.54 27.849,-2.923 5.852,1.819 10.217,6.049 13.043,11.407 3.716,7.045 4.226,15.27 1.78,22.791 1.224,0.185 2.446,0.391 3.672,0.566 5.819,0.831 10.848,3.312 15.112,7.388 5.053,4.831 9.222,12.04 9.181,19.143 -0.038,6.669 -2.829,13.96 -7.694,18.592 -5.452,5.193 -14.635,8.355 -22.111,8.151 -7.382,-0.202 -14.075,-2.952 -19.196,-8.231 -4.086,5.797 -10.843,9.25 -14.934,15.31 l 5.213,2.616 c 3.519,1.374 8.639,2.552 10.961,5.749 7.157,6.259 19.821,12.316 28.111,17.88 16.802,11.276 32.796,23.643 49.042,35.688 4.038,2.994 18.903,15.685 23.067,16.058 2.503,0.224 10.25,-5.995 12.575,-7.633 2.194,-1.546 4.361,-3.233 6.703,-4.554 10.863,-6.129 24.457,-9.545 34.121,-17.478 1.102,-3.122 -4.707,-18.146 -5.331,-22.722 -0.671,-4.925 -0.096,-9.843 0.032,-14.782 0.124,-4.815 -0.166,-9.693 0.123,-14.488 0.406,-6.747 1.77,-13.613 3.173,-20.214 2.74,-12.896 7.299,-21.08 12.884,-32.68 1.988,-4.131 3.61,-8.428 5.724,-12.504 2.286,-4.408 4.979,-8.574 7.189,-13.034 3.653,-7.373 6.291,-14.876 9.426,-22.449 3.914,-9.452 7.721,-15.213 7.356,-25.581 z"
     id="path33" />
  <path
     fill="#ddd0b8"
     d="m 320.294,420.481 c -1.887,-3.783 -3.232,-7.861 -3.014,-12.133 2.019,2.425 3.577,4.507 6.537,5.848 l 0.854,0.542 c -1.047,2.404 -2.224,4.207 -4.377,5.743 z"
     id="path34" />
  <path
     fill="#e6d8c6"
     d="m 279.948,390.719 c 1.394,-0.352 2.136,-0.543 3.577,-0.2 0.743,0.921 1.092,1.585 0.932,2.824 -0.086,0.666 -0.36,1.35 -0.564,1.988 -0.24,0.747 -0.158,0.396 -0.247,1.238 l 2.062,-1.834 0.477,0.222 c -0.211,1.555 -1.692,2.972 -1.127,4.322 l 1.612,0.016 c -0.271,1.015 -0.513,1.527 -1.208,2.315 -1.534,-0.61 -2.612,-1.011 -4.274,-0.924 -1.376,0.648 -2.395,1.384 -3.584,2.33 -0.624,0.497 -0.337,0.3 -1.005,0.678 l -0.047,-0.561 c 1.427,-3.977 2.352,-8.314 3.396,-12.414 z"
     id="path35" />
  <path
     fill="#11302a"
     d="m 271.318,395.73 0.543,-1.174 c 0.824,-0.515 2.187,-1.202 2.701,-2.038 1.672,-2.718 2.071,-10.578 5.05,-15.435 1.285,-2.096 3.037,-5.032 5.428,-5.553 -1.977,3.913 -5.373,8.862 -4.8,13.37 -0.241,1.873 -0.737,3.631 -0.817,5.532 q -2.018,1.664 -4.062,3.297 c -1.309,0.683 -2.658,1.506 -4.043,2.001 z"
     id="path36" />
  <path
     fill="#e2e1dc"
     d="m 121.759,467.994 c 1.402,0.06 2.25,-0.131 3.439,0.685 0.155,0.622 0.29,1.194 0.345,1.832 0.24,2.799 -1.848,7.401 -3.693,9.442 l -4.415,-0.554 c -0.423,-0.621 -0.712,-0.812 -0.702,-1.611 0.046,-3.651 2.624,-7.241 5.026,-9.794 z"
     id="path37" />
  <path
     d="m 319.327,403.682 c 3.519,1.374 8.639,2.552 10.961,5.749 -0.243,1.47 -0.29,2.802 -1.398,3.905 -1.72,0.668 -3.316,0.526 -5.073,0.86 -2.96,-1.341 -4.518,-3.423 -6.537,-5.848 0.547,-1.72 1.07,-3.143 2.047,-4.666 z"
     id="path38" />
  <path
     fill="#e6d8c6"
     d="m 204.777,494.973 c 5.766,-0.818 9.218,-3.879 13.872,-7.064 -2.131,5.117 -4.249,10.207 -6.037,15.458 -0.055,3.343 0.212,7.122 -0.551,10.367 l -0.541,0.235 c -1.973,-3.533 1.28,-4.485 -2.89,-8.554 0.298,-0.938 0.663,-1.753 1.113,-2.628 -0.953,-2.96 -4.078,-4.204 -4.966,-7.814 z"
     id="path39" />
  <path
     fill="#e2e1dc"
     d="m 156.6,450.188 q 1.374,-0.12 2.751,-0.189 c 9.5,-0.461 18.08,1.914 25.19,8.321 -5.491,6.004 -10.223,6.58 -17.921,6.965 -0.106,0.02 -0.211,0.055 -0.32,0.06 -4.002,0.165 -7.553,0.489 -11.496,1.298 -0.495,-1.406 -0.981,-2.845 -1.678,-4.166 -2.89,-5.478 -7.206,-5.47 -12.431,-7.213 l -0.07,-0.605 c 3.651,-3.055 11.346,-3.929 15.975,-4.471 z"
     id="path40" />
  <path
     fill="#e2e1dc"
     d="m 84.2399,654.584 1.1075,5.823 -4.5537,3.446 c -1.2564,12.921 -7.1805,26.013 -4.7611,39.051 0.7625,4.109 5.9118,12.593 2.8237,16.137 -1.6902,-2.834 -3.3378,-5.683 -4.8162,-8.634 -5.9473,-11.874 -10.3706,-25.273 -5.9053,-38.41 2.6676,-7.847 8.8188,-13.77 16.1051,-17.413 z"
     id="path41" />
  <path
     fill="#c5884e"
     d="m 92.1136,689.635 c 0.6614,0.171 0.6793,0.147 1.3872,0.491 4.7116,2.293 16.3542,20.127 21.2102,25.23 4.365,4.588 10.459,8.05 14.249,13.079 1.302,1.729 1.897,4.599 2.544,6.664 -2.551,1.501 -5.189,2.691 -7.888,3.892 -4.913,1.96 -11.344,4.166 -16.654,3.982 -0.676,-0.793 -0.715,-0.879 -0.629,-1.9 0.212,-2.51 2.131,-5.102 2.015,-7.596 -0.307,-6.571 -14.6351,-24.47 -17.1404,-33.776 -1.0443,-3.879 -1.0893,-6.593 0.906,-10.066 z"
     id="path42" />
  <path
     fill="#d5b789"
     d="m 85.3474,660.407 c 1.8175,7.886 4.9292,14.869 7.618,22.427 -4.1062,1.811 -7.0952,3.644 -8.7904,8.092 -2.2857,5.996 0.1105,13.021 2.8118,18.506 3.3929,6.889 7.3781,13.821 11.4541,20.327 1.9861,3.171 4.5071,6.258 6.2111,9.572 0.581,1.129 0.831,2.028 0.688,3.311 -1.808,1.056 -4.353,1.101 -6.4105,1.339 -9.8713,-5.395 -15.4287,-15.024 -20.0732,-24.94 3.0881,-3.544 -2.0612,-12.028 -2.8237,-16.137 -2.4194,-13.038 3.5047,-26.13 4.7611,-39.051 z"
     id="path43" />
  <path
     fill="#e2e1dc"
     d="m 228.903,403.909 c -3.063,-4.605 -4.683,-9.117 -4.695,-14.687 -0.015,-7.49 3.863,-13.899 9.014,-19.045 5.963,-5.959 13.97,-9.985 22.528,-9.839 5.841,0.1 11.068,1.696 15.094,6.1 1.948,2.132 3.992,5.652 3.679,8.654 -0.093,0.891 -0.104,0.645 -0.846,1.296 -1.483,-0.653 -2.57,-2.182 -3.791,-3.258 -3.393,-2.989 -8.418,-5.53 -12.967,-6.001 -1.658,-0.171 -2.509,0.097 -3.809,1.103 -0.11,0.509 -0.425,1.016 -0.329,1.528 0.21,1.111 11.506,8.578 13.316,10.269 1.485,1.386 2.475,3.23 3.461,4.982 -1.625,2.727 -3.48,4.731 -5.813,6.827 -5.935,-4.558 -11.408,-8.495 -18.451,-11.146 -0.814,1.383 -1.479,2.847 -2.177,4.29 4.67,4.482 9.327,7.762 12.804,13.367 -1.153,1.692 -2.357,3.127 -3.797,4.581 -1.473,0.902 -2.408,1.722 -4.253,1.39 -0.546,-0.098 -0.751,-0.209 -1.224,-0.407 l -0.75,0.669 c 0.296,0.755 0.229,0.329 0.075,1.292 -2.199,1.279 -4.823,1.61 -7.29,2.132 -3.395,-1.148 -6.582,-2.48 -9.779,-4.097 z"
     id="path44" />
  <path
     fill="#e6d8c6"
     d="m 245.897,404.582 c -3.828,-2.78 -8.4,-4.988 -13.206,-5.233 -0.166,-0.008 -0.331,-0.01 -0.496,-0.016 l -0.243,-0.182 -0.451,-0.061 c 1.65,-0.157 3.258,-0.339 4.879,-0.692 1.307,-0.285 2.692,-0.682 4.037,-0.686 4.168,-0.011 8.919,2.294 11.707,5.218 -1.473,0.902 -2.408,1.722 -4.253,1.39 -0.546,-0.098 -0.751,-0.209 -1.224,-0.407 z"
     id="path45" />
  <path
     fill="#d5b789"
     d="m 324.671,414.738 c 5.507,2.469 10.765,6.888 15.833,10.238 22.864,15.116 45.698,30.432 67.318,47.323 4.609,3.601 10.49,7.341 14.293,11.73 -5.283,6.38 -13.434,9.669 -18.092,16.454 -8.145,-6.28 -15.692,-13.03 -23.641,-19.494 -11.988,-9.748 -23.272,-19.545 -34.567,-30.111 -5.263,-4.924 -10.831,-9.828 -15.51,-15.314 -4.074,-4.776 -7.135,-9.512 -10.011,-15.083 2.153,-1.536 3.33,-3.339 4.377,-5.743 z"
     id="path46" />
  <path
     fill="#e2e1dc"
     d="m 214.662,435.438 c 7.182,-4.85 17.544,-14.918 24.71,-18.121 3.296,-1.473 7.279,-1.551 10.744,-2.878 -0.611,10.801 -1.045,21.464 5.01,31.08 -9.298,6.192 -48.283,35.657 -50.067,44.481 -0.322,1.591 -0.261,3.353 -0.282,4.973 -4.821,-11.69 -11.415,-18.149 -22.048,-24.811 3.53,-2.201 8.231,-4.24 9.106,-8.744 0.664,-3.419 -1.131,-7.091 -3.051,-9.799 -1.685,-2.377 -4.003,-4.744 -6.56,-6.18 -2.97,-1.668 -11.95,-2.05 -11.08,-6.534 0.726,-3.738 4.486,-7.266 7.623,-9.111 5.318,-3.127 12.572,-3.995 18.521,-2.321 3.968,1.117 6.216,3.068 8.87,6.113 -1.551,2.531 -3.303,4.495 -5.346,6.624 5.423,-0.633 9.314,-1.474 13.85,-4.772 z"
     id="path47" />
  <path
     fill="#e2e1dc"
     d="m 257.834,452.849 c 1.04,0.496 28.67,36.055 32.362,40.58 6.481,7.943 13.335,15.572 19.778,23.549 5.435,6.731 10.36,13.877 15.992,20.444 -7.317,9.701 -15.552,18.815 -22.955,28.481 -2.149,4.051 -4.594,6.631 -9.007,8.336 -1.408,0.544 -3.168,0.878 -4.554,0.077 -6.778,-3.916 -9.838,-39.495 -11.421,-48.284 -4.711,-26.162 -13.586,-43.844 -35.757,-59.243 0.104,-0.123 0.206,-0.247 0.311,-0.369 0.176,-0.202 0.357,-0.399 0.53,-0.603 4.145,-4.88 10.047,-8.497 14.721,-12.968 z"
     id="path48" />
  <path
     fill="#e2e1dc"
     d="m 307.784,351.466 c -5.008,-6.713 -7.134,-11.911 -5.887,-20.457 0.404,-2.766 0.529,-6.33 2.476,-8.464 0.19,-0.208 0.374,-0.422 0.566,-0.629 4.98,-5.371 10.096,-8.923 17.632,-9.272 5.248,-0.243 11.661,1.096 15.518,4.896 3.633,3.581 5.167,9.381 4.958,14.365 -0.223,5.306 -3.416,9.668 -3.993,14.738 1.62,1.821 3.71,1.88 5.995,2.027 7.313,0.47 14.541,-0.305 19.939,5.902 3.655,4.204 4.534,10.57 3.979,15.923 -0.461,4.452 -2.342,7.848 -5.935,10.558 -4.624,3.487 -10.899,5.071 -16.618,4.193 -6.137,-0.942 -10.503,-4.823 -14.91,-8.837 -8.029,3.696 -13.252,11.5 -20.626,16.093 -2.432,-4.508 -5.212,-8.838 -10.413,-10.402 -5.676,-1.706 -14.704,0.806 -20.225,2.8 -0.573,-4.508 2.823,-9.457 4.8,-13.37 3.429,-2.842 6.431,-6.06 9.788,-8.957 4.306,-3.716 8.968,-7.039 12.956,-11.107 z"
     id="path49" />
  <path
     fill="#fd684b"
     d="m 296.035,580.896 c 4.307,0.493 8.696,0.533 12.979,1.188 7.856,1.202 12.103,5.12 16.582,11.269 23.614,32.422 26.802,80.703 20.685,119.091 -1.451,9.104 -6.197,29.828 -13.757,35.333 -1.494,0.646 -2.993,1.008 -4.618,1.133 -3.79,0.291 -15.445,1.727 -18.037,-0.495 4.309,-9.756 7.476,-19.215 9.543,-29.731 5.865,-29.834 6.505,-57.714 -0.643,-87.466 -2.576,-10.718 -5.747,-20.912 -10.666,-30.827 -3.417,-6.889 -7.776,-13.136 -12.068,-19.495 z"
     id="path50" />
  <path
     fill="#e2e1dc"
     d="m 489.489,175.989 c 7.207,1.025 15.448,2.459 21.538,6.764 l -1.24,0.824 c 0.202,1.195 0.573,1.596 1.237,2.597 l 0.578,1.089 c -2.811,1.819 -6.979,2.733 -7.441,6.812 -0.394,3.478 1.632,6.358 3.774,8.889 1.184,1.398 2.538,2.716 3.93,3.902 2.499,1.322 4.985,2.675 7.527,3.911 l -0.696,0.638 c -0.215,-0.104 -0.429,-0.211 -0.645,-0.312 -0.687,-0.323 -1.346,-0.571 -2.064,-0.807 l 1.974,1.62 -0.009,0.499 c -3.828,0.634 -7.856,0.173 -11.613,0.894 6.265,3.571 11.945,7.916 17.987,11.826 11.674,7.552 36.705,21.439 40.585,35.496 1.616,5.855 0.479,12.556 -1.547,18.202 -2.036,5.672 -5.852,10.751 -8.363,16.258 -14.609,32.043 -32.851,62.531 -45.888,95.287 -3.655,9.186 -7.741,19.868 -9.059,29.654 -0.758,5.633 1.012,18.813 -0.99,22.715 -2.446,0.862 -4.756,2.108 -7.082,3.25 -9.861,-27.249 -7.034,-59.468 4.285,-85.797 5.204,-12.104 12.146,-23.533 17.903,-35.391 5.469,-11.265 9.729,-22.98 14.327,-34.602 2.326,-5.88 6.388,-13.368 5.146,-19.884 -0.491,-2.574 -1.951,-4.864 -3.678,-6.789 -3.365,-3.753 -7.682,-6.692 -11.704,-9.686 -12.955,-9.644 -26.802,-17.751 -39.996,-27.001 -7.476,-5.241 -15.819,-12.135 -17.277,-21.694 -0.915,-5.995 0.346,-13.609 4.051,-18.51 3.523,-4.66 8.053,-7.162 13.748,-7.926 3.434,-1.557 7.365,-0.839 10.702,-2.728 z"
     id="path51" />
  <path
     fill="#11302a"
     d="m 468.348,208.401 c -0.308,-2.699 0.044,-5.153 0.925,-7.736 1.471,-4.312 4.116,-6.602 8.101,-8.485 -0.761,2.327 -1.116,3.682 -0.15,6.029 -2.759,1.227 -2.632,2.739 -4.338,4.775 -2.737,1.257 -2.817,3.219 -4.538,5.417 z"
     id="path52" />
  <path
     d="m 468.348,208.401 c 1.721,-2.198 1.801,-4.16 4.538,-5.417 0.024,0.141 0.044,0.282 0.072,0.421 1.113,5.513 8.589,12.902 8.915,15.217 -1.194,0.614 -2.371,0.355 -3.614,-0.076 -3.543,-1.227 -7.095,-3.842 -8.748,-7.28 -0.446,-0.927 -0.805,-1.901 -1.163,-2.865 z"
     id="path53" />
  <path
     fill="#0e1c15"
     d="m 477.374,192.18 c 4.675,-0.474 8.788,2.596 12.712,4.806 4.303,3.706 7.298,7.33 10.366,12.104 0.566,1.462 1.602,3.229 0.925,4.78 -5.122,-2.505 -8.751,-6.066 -12.837,-9.908 -2.957,-2.377 -6.201,-3.941 -9.715,-5.298 l -1.601,-0.455 c -0.966,-2.347 -0.611,-3.702 0.15,-6.029 z"
     id="path54" />
  <path
     fill="#11302a"
     d="m 478.825,198.664 c 2.775,-0.454 6.043,-0.698 8.434,1.108 0.944,0.712 1.479,1.746 1.489,2.925 0.003,0.375 -0.126,0.89 -0.208,1.265 -2.957,-2.377 -6.201,-3.941 -9.715,-5.298 z"
     id="path55" />
  <path
     fill="#e6d8c6"
     d="m 489.489,175.989 c 7.207,1.025 15.448,2.459 21.538,6.764 l -1.24,0.824 c 0.202,1.195 0.573,1.596 1.237,2.597 l 0.578,1.089 c -2.811,1.819 -6.979,2.733 -7.441,6.812 -0.394,3.478 1.632,6.358 3.774,8.889 1.184,1.398 2.538,2.716 3.93,3.902 2.499,1.322 4.985,2.675 7.527,3.911 l -0.696,0.638 c -0.215,-0.104 -0.429,-0.211 -0.645,-0.312 -0.687,-0.323 -1.346,-0.571 -2.064,-0.807 l 1.974,1.62 -0.009,0.499 c -3.828,0.634 -7.856,0.173 -11.613,0.894 l -1.477,-0.425 -1.59,1.323 -1.895,-0.337 c 0.677,-1.551 -0.359,-3.318 -0.925,-4.78 -3.068,-4.774 -6.063,-8.398 -10.366,-12.104 l 0.103,-0.724 c -1.297,-1.596 -3.718,-2.419 -5.529,-3.383 l 1.55,-0.361 c 1.625,0.718 2.601,0.52 4.333,0.208 0.212,-0.039 0.423,-0.081 0.634,-0.122 -4.285,-0.858 -12.723,-0.995 -15.597,-4.72 -0.046,-0.061 -0.831,-1.166 -0.835,-1.407 -0.002,-0.145 0.553,-0.879 0.564,-1.046 0.057,-0.8 -0.536,-1.344 -0.276,-2.231 0.503,-1.722 2.545,-2.859 3.971,-3.76 l -0.217,-0.723 c 3.434,-1.557 7.365,-0.839 10.702,-2.728 z"
     id="path56" />
  <path
     fill="#ddd0b8"
     d="m 511.865,206.866 c 2.499,1.322 4.985,2.675 7.527,3.911 l -0.696,0.638 c -0.215,-0.104 -0.429,-0.211 -0.645,-0.312 -0.687,-0.323 -1.346,-0.571 -2.064,-0.807 l 1.974,1.62 -0.009,0.499 c -3.828,0.634 -7.856,0.173 -11.613,0.894 l -1.477,-0.425 -1.59,1.323 -1.895,-0.337 c 0.677,-1.551 -0.359,-3.318 -0.925,-4.78 l 2.255,-0.26 c 1.468,1.102 2.894,2.081 4.838,1.821 0.855,-0.114 1.113,-0.862 1.609,-1.504 2.063,-0.536 2.925,0.02 4.922,0.667 l -0.179,0.096 0.827,-0.437 -2.773,-1.497 z"
     id="path57" />
  <path
     fill="#30362e"
     d="m 489.489,175.989 c 7.207,1.025 15.448,2.459 21.538,6.764 l -1.24,0.824 c 0.202,1.195 0.573,1.596 1.237,2.597 -5.66,-3.287 -14.324,-9.013 -21.167,-7.725 -3.671,0.058 -7.257,0.186 -10.853,0.991 l -0.217,-0.723 c 3.434,-1.557 7.365,-0.839 10.702,-2.728 z"
     id="path58" />
  <path
     fill="#0e1c15"
     d="m 479.004,179.44 c 3.596,-0.805 7.182,-0.933 10.853,-0.991 3.43,0.94 5.96,1.687 7.81,4.98 0.877,1.561 1.226,3.36 0.584,5.077 -0.53,1.423 -1.808,2.815 -3.262,3.295 -1.22,0.403 -2.549,0.575 -3.812,0.803 -4.285,-0.858 -12.723,-0.995 -15.597,-4.72 -0.046,-0.061 -0.831,-1.166 -0.835,-1.407 -0.002,-0.145 0.553,-0.879 0.564,-1.046 0.057,-0.8 -0.536,-1.344 -0.276,-2.231 0.503,-1.722 2.545,-2.859 3.971,-3.76 z"
     id="path59" />
  <path
     fill="#d5b789"
     d="m 519.392,210.777 c 3.149,0.656 6.774,1.396 9.657,-0.49 1.891,-1.238 3.183,-3.434 4.38,-5.311 3.344,0.496 19.136,15.637 25.045,17.71 l 0.34,0.308 c 7.197,6.4 15.751,12.086 23.505,17.846 3.387,2.516 7.109,4.967 9.997,8.058 2.744,2.936 5.401,6.863 5.546,11.006 0.275,7.844 -6.466,25.131 -8.898,33.298 -2.127,7.144 -3.05,14.725 -4.406,22.046 -5.946,32.096 -6.155,60.651 18.689,85.212 7.082,7.002 16.611,13.547 26.09,16.706 -0.415,2.67 -0.921,5.362 -1.233,8.044 -4.833,-1.097 -9.873,-1.558 -14.786,-2.184 -17.886,-2.281 -34.618,-2.446 -51.854,3.88 -2.796,1.027 -6.504,2.143 -8.969,3.846 -0.472,0.326 -0.536,0.435 -0.868,0.812 0.626,0.634 1.102,0.351 1.802,0.749 l -0.605,1.448 c -1.048,0.315 -1.618,0.187 -2.662,0.036 -6.941,-1.003 -43.49,6.501 -51.098,8.95 2.002,-3.902 0.232,-17.082 0.99,-22.715 1.318,-9.786 5.404,-20.468 9.059,-29.654 13.037,-32.756 31.279,-63.244 45.888,-95.287 2.511,-5.507 6.327,-10.586 8.363,-16.258 2.026,-5.646 3.163,-12.347 1.547,-18.202 -3.88,-14.057 -28.911,-27.944 -40.585,-35.496 -6.042,-3.91 -11.722,-8.255 -17.987,-11.826 3.757,-0.721 7.785,-0.26 11.613,-0.894 l 0.009,-0.499 -1.974,-1.62 c 0.718,0.236 1.377,0.484 2.064,0.807 0.216,0.101 0.43,0.208 0.645,0.312 z"
     id="path60" />
  <path
     fill="#e2e1dc"
     d="m 289.746,394.695 -0.527,-1.68 c 0.65,-1.09 1.608,-1.535 2.787,-1.882 1.797,-0.53 3.718,-0.84 5.556,-1.208 1.429,1.272 2.937,2.54 3.875,4.236 1.95,3.522 2.963,7.738 4.17,11.563 2.849,9.032 5.701,18.642 10.908,26.634 14.067,21.587 39.064,40.541 59.179,56.399 3.5,2.758 6.763,5.802 10.282,8.537 -4.15,-0.351 -9.064,-6.745 -12.666,-9.205 -8.495,2.919 -17.86,3.748 -22.429,12.806 -2.128,4.219 -1.335,10.162 0.268,14.473 1.415,3.807 5.867,9.726 9.611,11.533 0.18,0.087 0.376,0.137 0.564,0.205 1.266,-2.546 -0.986,-5.608 -1.302,-8.249 4.142,4.037 9.264,21.728 12.173,27.74 2.195,4.536 4.536,9.661 7.718,13.577 3.584,4.41 8.848,8.336 11.521,13.331 2.543,4.752 3.175,11.234 4.696,16.459 2.034,6.992 4.866,13.67 6.217,20.859 0.984,5.231 1.012,10.683 2.143,15.853 1.374,6.279 3.627,11.939 3.687,18.487 0.123,13.556 -6.007,13.404 -11.019,23.596 -1.554,3.16 -2.525,6.761 -3.657,10.094 -3.468,10.211 -7.415,19.002 -15.11,26.757 -2.255,2.273 -4.672,4.394 -7.061,6.524 -4.456,0.26 -8.647,0.438 -13.094,-0.188 3.206,-0.669 13.167,-0.495 15.344,-2.819 -0.994,-2.299 -4.959,-3.56 -7.227,-4.47 -2.377,-0.955 -4.642,-1.787 -7.205,-2.067 -2.204,1.628 -1.169,8.092 -3.244,10.448 q 0.463,-2.98 0.857,-5.97 c 5.402,-40.154 -1.333,-88.887 -26.589,-121.588 -8.308,-10.757 -11.926,-10.4 -24.498,-12.048 4.15,-5.921 9.237,-12.195 14.314,-17.339 3.706,-3.755 7.739,-7.087 11.368,-10.954 4.255,5.234 7.977,10.998 11.831,16.538 9.719,13.969 18.923,27.917 26.937,42.969 q 5.603,10.464 11.006,21.033 c 2.433,4.843 4.653,9.882 7.381,14.563 1.271,2.183 3.48,6.229 5.84,7.212 1.35,0.563 1.641,0.455 2.939,-0.004 1.442,-1.622 1.723,-3.379 2.17,-5.435 -6.902,-13.199 -12.986,-26.756 -20.272,-39.796 Q 366.499,579.99 352.236,558.736 337.974,537.483 322.213,517.315 c -10.862,-13.999 -22.134,-27.967 -33.479,-41.584 -7.19,-8.63 -15.206,-16.707 -21.185,-26.271 -5.55,-8.876 -8.559,-17.234 -8.944,-27.736 -0.405,-11.047 5.599,-18.405 12.713,-25.994 1.385,-0.495 2.734,-1.318 4.043,-2.001 q 2.044,-1.633 4.062,-3.297 l 0.525,0.287 c -1.044,4.1 -1.969,8.437 -3.396,12.414 l 0.047,0.561 c 0.668,-0.378 0.381,-0.181 1.005,-0.678 1.189,-0.946 2.208,-1.682 3.584,-2.33 1.662,-0.087 2.74,0.314 4.274,0.924 0.695,-0.788 0.937,-1.3 1.208,-2.315 0.668,-1.801 1.793,-3.201 3.076,-4.6 z"
     id="path61" />
  <path
     fill="#a39b85"
     d="m 279.423,390.432 0.525,0.287 c -1.044,4.1 -1.969,8.437 -3.396,12.414 l 0.047,0.561 c -1.938,5.167 -1.917,11.626 -2.945,17.089 -0.929,-6.306 -3.073,-14.465 -0.26,-20.376 1.018,-1.98 1.622,-4.491 1.967,-6.678 q 2.044,-1.633 4.062,-3.297 z"
     id="path62" />
  <path
     d="m 289.746,394.695 c 0.538,5.227 3.245,22.521 0.355,26.456 -3.67,-3.383 -4.544,-13.446 -4.785,-18.221 -0.034,-0.687 -0.012,-0.495 0.146,-1.32 0.695,-0.788 0.937,-1.3 1.208,-2.315 0.668,-1.801 1.793,-3.201 3.076,-4.6 z"
     id="path63" />
  <path
     fill="#d5b789"
     d="m 797.549,552.227 c 10.091,-5.735 19.803,-14.124 25.134,-24.582 2.142,-4.203 3.667,-8.675 5.645,-12.952 0.832,-0.583 1.817,-1.212 2.529,-1.942 2.087,-2.136 1.949,-9.244 2.355,-12.358 3.039,-23.268 -3,-45.045 -11.07,-66.679 -1.694,-4.541 -3.141,-9.282 -5.058,-13.717 -2.167,-5.013 -8.454,-14.987 -8.277,-20.034 0.085,-2.411 1.322,-3.635 2.84,-5.351 3.221,0.706 7.223,1.152 10.161,2.593 0.581,-0.021 1.163,-0.024 1.744,-0.049 0.249,-0.011 0.496,-0.062 0.745,-0.055 1.541,0.047 3.459,1.054 4.905,1.632 3.63,1.452 7.338,2.873 10.678,4.927 3.287,2.021 6.427,4.91 10.004,6.341 1.361,0.545 1.874,0.607 3.08,-0.079 0.481,-2.154 -1.166,-5.238 -2.352,-6.983 -0.477,-0.703 -0.53,-0.73 -1.021,-1.267 l 0.679,-0.806 c 2.426,4.232 8.075,7.408 11.588,10.845 2.558,2.504 4.744,5.319 7.206,7.904 l 1.753,-0.97 c 1.49,0.121 2.575,0.171 4.036,-0.288 l 0.449,0.602 c 2.427,1.891 4.776,3.886 7.594,5.171 l 0.179,0.35 c 6.258,9.724 9.804,20.418 13.966,31.088 1.433,3.674 3.372,7.356 4.361,11.17 1.009,3.89 0.863,8.188 1.144,12.174 0.171,2.443 0.426,4.84 3.268,5.36 1.044,0.191 2.168,0.2 3.228,0.254 0.009,1.812 0.157,3.079 0.795,4.781 1.014,0.953 1.116,0.973 2.498,1.177 q 1.532,-0.825 3.037,-1.696 c -1.923,5.164 -8.648,23.252 -7.072,27.905 0.063,0.186 0.173,0.354 0.26,0.532 -0.023,0.184 -0.044,0.368 -0.069,0.552 -0.304,2.265 -1.882,4.864 -1.619,6.985 1.085,1.056 1.979,0.947 3.45,1.183 -3.461,3.669 -11.606,12.661 -10.925,18.032 0.253,1.988 1.525,2.829 3.004,3.988 -2.062,2.734 -3.754,5.161 -4.015,8.679 -4.894,3.096 -12.484,9.292 -13.967,15.107 -0.311,1.219 0.013,2.42 0.246,3.626 -0.747,0.706 -1.006,0.651 -1.977,0.919 -7.194,1.981 -12.959,9.31 -16.375,15.569 -0.326,0.596 -0.633,1.191 -0.937,1.799 -1.358,1.151 -2.413,2.326 -3.521,3.718 -6.767,-0.398 -8.76,3.082 -13.971,6.394 -14.378,9.139 -61.19,23.689 -77.42,20.111 -0.094,-0.186 -0.306,-0.352 -0.283,-0.559 0.035,-0.313 8.002,-14.666 8.922,-16.895 4.878,-11.816 8.67,-24.411 10.395,-37.098 0.591,-4.342 0.023,-8.773 0.839,-13.104 1.912,-1.914 4.724,-3.011 7.212,-4.004 z"
     id="path64" />
  <path
     fill="#4e5035"
     d="m 874.853,418.357 0.449,0.602 -0.565,2.58 c -0.463,0.507 -0.885,0.674 -1.493,0.974 -1.823,-0.306 -2.903,-1.67 -4.18,-2.898 l 1.753,-0.97 c 1.49,0.121 2.575,0.171 4.036,-0.288 z"
     id="path65" />
  <path
     fill="#ddd0b8"
     d="m 875.302,418.959 c 2.427,1.891 4.776,3.886 7.594,5.171 l 0.179,0.35 c -0.745,0.44 -1.492,0.883 -2.265,1.271 -1.113,0.558 -2.138,0.794 -3.328,0.199 -1.519,-0.76 -2.21,-2.927 -2.745,-4.411 z"
     id="path66" />
  <path
     fill="#e2e1dc"
     d="m 797.549,552.227 c 10.091,-5.735 19.803,-14.124 25.134,-24.582 2.142,-4.203 3.667,-8.675 5.645,-12.952 0.832,-0.583 1.817,-1.212 2.529,-1.942 2.087,-2.136 1.949,-9.244 2.355,-12.358 3.039,-23.268 -3,-45.045 -11.07,-66.679 -1.694,-4.541 -3.141,-9.282 -5.058,-13.717 -2.167,-5.013 -8.454,-14.987 -8.277,-20.034 0.085,-2.411 1.322,-3.635 2.84,-5.351 3.221,0.706 7.223,1.152 10.161,2.593 13.298,20.206 20.456,36.551 26.572,59.889 4.943,18.867 7.394,30.659 3.368,50.11 -3.542,17.109 -10.271,38.439 -25.686,48.617 -3.741,2.47 -11.362,5.821 -15.872,4.998 -1.86,-0.339 -3.229,-1.787 -4.148,-3.337 q -0.451,-0.753 -0.839,-1.541 c -0.292,-0.033 -0.584,-0.06 -0.876,-0.098 -0.826,-0.109 -1.246,-0.188 -1.954,-0.56 1.041,-1.097 1.62,-1.41 1.85,-2.934 -0.442,-0.977 -0.436,-1.556 -1.416,-2.062 -0.926,0.402 -1.683,0.791 -2.528,1.34 -0.993,0.645 -1.569,0.636 -2.73,0.6 z"
     id="path67" />
  <path
     fill="#d5b789"
     d="m 125.242,712.095 c 1.86,0.156 2.384,1.503 4.01,2.013 0.713,0.224 0.52,0.1 1.286,-0.359 0.071,-3.056 -5.925,-9.332 -7.745,-12.116 -14.428,-22.061 -7.047,-38.794 -1.875,-62.226 17.193,9.084 33.643,9.588 52.367,5.155 8.593,-2.034 15.956,-5.189 24.837,-2.027 10.937,3.895 26.242,22.599 36.505,30.743 6.648,5.276 13.71,8.79 20.943,13.063 8.183,4.834 15.982,10.139 24.827,13.747 5.094,2.079 10.672,-0.429 15.876,0.763 3.657,0.839 6.322,4.188 9.925,5.412 l 0.089,-0.61 c -7.99,-10.112 -20.628,-3.378 -26.183,-6.566 l 0.095,-0.476 c 4.635,-1.151 11.539,-1.325 16.321,-0.804 3.472,0.378 13.203,0.752 15.035,3.709 1.414,2.28 0.376,6.043 -0.003,8.543 l 0.741,0.317 c -2.221,13.553 -7.255,25.632 -11.263,38.624 -2.45,-0.128 -5.049,-0.314 -7.457,0.226 -1.994,0.446 -5.516,2.323 -7.326,2.278 -0.726,-0.018 -1.086,-0.519 -1.532,-0.984 -5.362,0.637 -11.89,0.026 -16.988,1.518 -2.824,-21.178 -16.438,-35.442 -32.796,-47.98 -19.255,-14.757 -42.667,-27.575 -67.672,-24.168 -5.97,0.814 -10.833,2.813 -15.543,6.618 0.6,2.212 1.133,4.445 2.006,6.568 1.163,-0.673 2.339,-1.324 3.487,-2.021 7.949,-4.827 23.566,-4.095 32.286,-1.899 21.807,5.491 51.005,26.014 62.277,45.192 5.873,9.992 10.284,24.377 7.115,35.918 q -0.168,0.634 -0.368,1.259 -0.199,0.625 -0.429,1.24 -0.23,0.614 -0.489,1.217 -0.26,0.602 -0.549,1.191 -0.289,0.589 -0.607,1.163 -0.317,0.575 -0.663,1.132 -0.345,0.558 -0.717,1.098 -0.373,0.541 -0.771,1.062 -0.399,0.521 -0.822,1.022 -0.424,0.501 -0.872,0.981 -0.447,0.479 -0.918,0.936 -0.471,0.457 -0.963,0.891 -0.493,0.433 -1.006,0.842 -0.513,0.408 -1.046,0.791 -0.533,0.383 -1.083,0.74 -0.551,0.356 -1.119,0.685 c -9.711,5.554 -21.574,5.967 -32.462,5.094 -2.832,-0.228 -6.174,-1.119 -8.963,-0.701 -1.822,0.273 -4.154,-0.439 -5.966,-0.805 -9.874,-1.995 -18.369,-5.13 -26.441,-11.274 -5.704,-4.341 -18.941,-16.451 -21.885,-22.806 -9.233,-12.103 -11.547,-22.11 -11.136,-37.083 0.086,-3.13 0.701,-6.457 0.541,-9.54 -0.017,-0.324 -0.044,-0.647 -0.065,-0.971 l 0.685,-1.722 c -0.086,-0.198 -0.19,-0.389 -0.258,-0.593 -0.366,-1.106 -0.17,-2.043 -0.005,-3.161 -1.179,-0.956 -1.237,-1.041 -2.741,-1.119 -2.777,1.229 -4.005,3.146 -5.724,5.519 -0.458,0.633 -0.471,1.338 -0.57,2.086 0.015,2.303 -0.262,4.466 -0.6,6.734 -2.172,-1.159 -3.97,-2.243 -5.633,-4.079 z"
     id="path68" />
  <path
     fill="#e6d8c6"
     d="m 140.773,706.708 c 1.196,-1.824 1.858,-2.814 3.821,-3.877 1.313,-0.017 1.34,0.117 2.397,0.93 0.607,3.57 -0.244,8.101 -0.402,11.764 -0.175,4.083 0.044,8.3 0.492,12.359 0.916,8.305 5.515,17.524 4.854,25.859 -0.049,0.616 -0.192,1.2 -0.6,1.684 -0.179,0.214 -0.391,0.398 -0.587,0.597 -9.233,-12.103 -11.547,-22.11 -11.136,-37.083 0.086,-3.13 0.701,-6.457 0.541,-9.54 -0.017,-0.324 -0.044,-0.647 -0.065,-0.971 z"
     id="path69" />
  <path
     fill="#e2e1dc"
     d="m 553.429,432.313 c -0.7,-0.398 -1.176,-0.115 -1.802,-0.749 0.332,-0.377 0.396,-0.486 0.868,-0.812 2.465,-1.703 6.173,-2.819 8.969,-3.846 17.236,-6.326 33.968,-6.161 51.854,-3.88 4.913,0.626 9.953,1.087 14.786,2.184 -3.202,24.687 -4.699,51.526 1.757,75.887 2.18,8.225 5.457,16.126 8.647,23.991 4.446,10.964 8.644,20.467 15.955,29.947 2.352,3.05 4.637,5.215 7.964,7.203 -0.47,1.467 -1.002,2.928 -1.278,4.446 1.749,0.856 3.253,1.409 4.307,3.108 l 0.104,1.277 c -1.026,1.203 -1.909,1.631 -3.506,1.762 -3.5,0.288 -6.366,-0.986 -8.883,-3.323 -2.825,-2.623 -4.817,-5.829 -8.042,-8.06 -7.166,14.562 -14.869,23.489 -28.696,32.048 -6.111,3.783 -12.681,7.12 -19.511,9.399 -22.259,7.429 -45.494,3 -67.659,-2.038 -6.524,-1.483 -13.463,-3.828 -20.181,-3.992 -4.2,-0.102 -8.018,1.55 -12.113,2.056 -6.729,-7.27 -12.548,-15.546 -19.06,-23.069 -12.089,-13.964 -24.707,-27.248 -37.223,-40.814 -9.441,-10.234 -17.481,-20.733 -29.526,-28.193 2.207,-3.268 4.182,-5.799 7.238,-8.373 6.048,-5.094 13.78,-9.158 20.488,-13.428 9.288,-5.914 18.561,-12.245 28.296,-17.384 5.129,-2.708 10.682,-4.834 16.021,-7.104 19.713,-8.381 39.379,-14.854 60.762,-17.346 3.963,-0.462 8.432,-1.865 12.344,-1.465 2.456,0.25 4.707,-0.466 7.153,-0.56 6.848,-0.261 14.888,0.618 21.544,-0.782 1.562,-0.328 4.048,-1.229 5.325,-2.123 l -0.738,-3.35 c -4.074,-2.762 -29.487,-2.198 -36.164,-2.617 z"
     id="path70" />
  <path
     fill="#0e1c15"
     d="m 586.283,458.15 c 1.626,-0.118 3.041,-0.03 4.63,0.38 2.781,0.717 5.514,2.963 7.004,5.369 0.156,1.396 0.078,1.41 -0.676,2.612 -3.883,2.431 -7.807,1.497 -12.111,2.254 -0.169,0.03 -0.338,0.063 -0.507,0.095 -2.464,0.394 -5.71,1.332 -8.156,0.734 -1.592,-0.39 -2.56,-0.914 -3.42,-2.35 -0.177,-1.383 0.06,-2.307 0.858,-3.444 2.877,-4.095 7.823,-4.88 12.378,-5.65 z"
     id="path71" />
  <path
     fill="#e2e1dc"
     d="m 155.306,474.071 c 6.077,-1 12.321,-1.919 18.237,0.387 10.819,4.218 19.555,15.445 24.163,25.731 7.884,17.596 9.862,43.931 2.866,62.157 -2.607,6.794 -5.06,12.133 -11.939,15.185 -0.782,-3.06 -1.544,-6.149 -3.593,-8.648 -1.008,-1.23 -1.806,-1.763 -3.381,-1.902 -1.507,0.942 -2,2.269 -2.405,3.945 -1.291,5.344 0.446,14.388 3.487,19.006 0.912,1.385 1.816,2.072 3.471,2.411 1.675,-0.385 1.876,-0.743 2.772,-2.184 2.591,-4.174 7.516,-5.215 10.811,-8.726 2.689,-2.864 4.945,-6.45 7.299,-9.613 9.455,-12.707 18.081,-25.446 23.149,-40.639 6.348,-19.029 8.92,-36.163 -0.254,-54.568 2.048,-1.034 4.258,-1.759 6.407,-2.558 1.506,1.609 3.194,2.327 5.062,3.387 24.997,14.185 27.129,47.255 31.892,72.651 1.928,10.278 4.564,20.384 7.343,30.46 3.8,3.465 2.859,3.238 8.125,3.376 0.551,0.469 0.571,0.452 1.108,1.115 2.621,3.231 4.788,8.175 6.895,11.843 6.898,12.013 10.988,23.836 14.084,37.273 6.096,26.459 5.456,49.543 1.388,76.216 l -0.741,-0.317 c 0.379,-2.5 1.417,-6.263 0.003,-8.543 -1.832,-2.957 -11.563,-3.331 -15.035,-3.709 -4.782,-0.521 -11.686,-0.347 -16.321,0.804 l -0.095,0.476 c 5.555,3.188 18.193,-3.546 26.183,6.566 l -0.089,0.61 c -3.603,-1.224 -6.268,-4.573 -9.925,-5.412 -5.204,-1.192 -10.782,1.316 -15.876,-0.763 -8.845,-3.608 -16.644,-8.913 -24.827,-13.747 -7.233,-4.273 -14.295,-7.787 -20.943,-13.063 -10.263,-8.144 -25.568,-26.848 -36.505,-30.743 -8.881,-3.162 -16.244,-0.007 -24.837,2.027 -18.724,4.433 -35.174,3.929 -52.367,-5.155 -5.172,23.432 -12.553,40.165 1.875,62.226 1.82,2.784 7.816,9.06 7.745,12.116 -0.766,0.459 -0.573,0.583 -1.286,0.359 -1.626,-0.51 -2.15,-1.857 -4.01,-2.013 -12.251,-9.549 -24.002,-32.631 -28.8488,-47.305 -9.481,-28.707 -8.2451,-61.558 5.5138,-88.671 2.654,-5.231 9.169,-14.488 14.867,-16.32 0.877,0.234 1.016,0.134 1.64,0.877 1.862,2.218 2.359,5.263 2.016,8.042 -0.868,7.033 -5.863,10.143 -11.031,14.152 -1.512,1.173 -3.362,2.475 -3.249,4.632 0.038,0.724 0.397,1.571 1.088,1.887 0.935,0.427 2.398,0.124 3.346,-0.128 5.389,-1.431 12.5,-6.648 15.094,-11.51 4.259,-7.981 2.567,-11.977 2.206,-20.393 -0.159,-3.707 -0.041,-7.346 -0.467,-11.055 -1.35,-11.745 -4.976,-23.933 -8.57,-35.179 3.632,0.26 7.527,1.845 11.116,1.33 7.859,-1.129 14.787,-5.194 19.47,-11.62 5.686,-7.805 7.276,-17.359 5.873,-26.763 z"
     id="path72" />
  <path
     d="m 173.509,496.293 c 1.002,0.067 2.632,0.237 3.519,0.747 1.225,0.704 1.362,1.138 1.773,2.385 -0.224,1.632 -0.957,2.435 -1.96,3.657 -1.478,0.333 -2.656,0.616 -4.184,0.368 -0.578,-0.476 -1.064,-0.634 -1.194,-1.427 -0.325,-1.99 1.066,-4.101 2.046,-5.73 z"
     id="path73" />
  <path
     d="m 159.18,502.939 c 1.592,-0.055 3.673,-0.177 5.079,0.738 1.215,0.79 1.276,1.175 1.643,2.488 -0.211,1.697 -1.049,2.607 -2.069,3.896 -1.016,0.2 -1.937,0.461 -2.96,0.13 -1.197,-0.387 -2.081,-1.279 -2.502,-2.454 -0.694,-1.931 -0.144,-3.171 0.809,-4.798 z"
     id="path74" />
  <path
     d="m 162.525,521.462 c 1.326,0.127 3.08,0.31 4.117,1.274 1.114,1.035 1.011,1.422 1.014,2.838 -0.758,1.598 -1.898,2.179 -3.338,3.074 -1.84,0.058 -3.338,-0.379 -4.788,-1.52 -0.586,-1.198 -0.9,-1.662 -0.404,-3.026 0.484,-1.335 2.224,-2.035 3.399,-2.64 z"
     id="path75" />
  <path
     d="m 175.036,529.015 c 1.519,-0.125 3.081,-0.315 4.379,0.687 0.908,0.7 1.343,1.674 1.261,2.819 -0.149,2.109 -1.524,3.478 -3.005,4.807 -0.188,0.071 -0.371,0.157 -0.563,0.214 -1.452,0.429 -1.554,0.157 -2.821,-0.597 -0.596,-0.96 -0.996,-1.655 -1.093,-2.801 -0.194,-2.289 0.431,-3.443 1.842,-5.129 z"
     id="path76" />
  <path
     d="m 177.148,510.853 c 1.393,0.268 3.421,0.798 4.481,1.801 0.891,0.842 1.514,1.895 1.434,3.164 -0.131,2.073 -1.702,3.315 -3.166,4.533 -2.108,-0.393 -4.861,-1.075 -6.008,-3.111 -0.403,-0.715 -0.598,-1.546 -0.425,-2.346 0.461,-2.133 1.956,-2.981 3.684,-4.041 z"
     id="path77" />
  <defs
     id="defs78">
    <linearGradient
       id="gradient_2"
       gradientUnits="userSpaceOnUse"
       x1="139.66739"
       y1="598.54486"
       x2="161.89499"
       y2="623.90045">
      <stop
         offset="0"
         stop-color="black"
         id="stop77" />
      <stop
         offset="1"
         stop-color="#0C160D"
         id="stop78" />
    </linearGradient>
  </defs>
  <path
     fill="url(#gradient_2)"
     d="m 142.375,595.061 c 3.953,-0.424 7.425,0.256 11.049,1.84 5.316,2.323 10.15,6.556 12.225,12.079 1.672,4.452 1.239,9.423 -0.91,13.649 -1.475,2.901 -6.57,6.335 -9.876,6.696 -0.303,0.033 -0.608,-0.02 -0.912,-0.029 l -0.61,0.456 c -0.54,0.113 -1.28,0.318 -1.848,0.278 -2.037,-0.145 -4.439,-1.334 -5.802,-2.812 0.406,-4.283 10.47,-4.929 11.961,-10.318 2.967,-10.72 -13.215,-12.655 -16.698,-18.476 0.064,-1.631 0.524,-2.036 1.421,-3.363 z"
     id="path78"
     style="fill:url(#gradient_2)" />
  <path
     fill="#d5b789"
     d="m 703.751,219.191 c 0.921,-0.834 1.74,-2.22 1.774,-3.497 0.018,-0.693 -0.1,-0.542 -0.69,-1.078 -0.494,0.818 -0.298,0.426 -0.704,1.436 l -0.302,0.768 -1.026,-0.082 c -0.644,-0.887 -0.842,-1.316 -0.777,-2.492 0.084,-1.546 1.024,-2.365 2.052,-3.363 1.945,0.013 2.082,2.696 3.822,3.792 l 0.998,-0.366 c 4.252,2.982 8.735,6.487 13.637,8.312 4.436,1.65 10.06,1.025 14.007,3.704 7.037,4.777 13.207,15.589 18.922,22.184 5.685,6.559 12.674,12.867 17.689,19.901 1.804,2.53 3.044,4.851 3.589,7.923 0.336,1.899 0.769,4.101 0.369,5.999 -2.049,9.736 -6.219,19.35 -9.193,28.848 -8.263,26.39 -16.11,54.073 -17.709,81.79 -0.38,6.591 -0.893,13.276 -0.287,19.867 1.943,21.156 13.319,46.85 20.065,67.305 3.422,10.374 6.823,21.459 8.832,32.182 7.831,41.793 1.193,84.222 -23.827,119.191 -29.066,40.626 -75.844,65.027 -122.308,80.042 -8.961,2.896 -18.316,5.659 -27.448,7.94 -1.977,0.493 -4.025,0.707 -5.985,1.265 q -16.742,4.83 -33.753,8.605 -17.011,3.774 -34.224,6.479 c -12.051,1.937 -24.163,3.318 -36.259,4.903 -8.064,1.057 -16.09,2.486 -24.19,3.243 q -14.712,1.352 -29.458,2.256 c -3.909,0.205 -8.089,-0.207 -11.919,0.204 -1.378,0.148 -2.557,0.787 -3.944,0.937 -2.226,0.241 -4.736,-0.152 -7.005,-0.171 -4.522,-0.036 -9.069,0.201 -13.591,0.336 -19.211,0.57 -39.54,1.789 -58.438,-2.353 2.65,-7.148 5.089,-14.291 7.065,-21.657 0.884,-3.295 1.176,-7.43 2.369,-10.506 2.075,-2.356 1.04,-8.82 3.244,-10.448 2.563,0.28 4.828,1.112 7.205,2.067 2.268,0.91 6.233,2.171 7.227,4.47 -2.177,2.324 -12.138,2.15 -15.344,2.819 4.447,0.626 8.638,0.448 13.094,0.188 2.389,-2.13 4.806,-4.251 7.061,-6.524 7.695,-7.755 11.642,-16.546 15.11,-26.757 1.132,-3.333 2.103,-6.934 3.657,-10.094 5.012,-10.192 11.142,-10.04 11.019,-23.596 -0.06,-6.548 -2.313,-12.208 -3.687,-18.487 -1.131,-5.17 -1.159,-10.622 -2.143,-15.853 -1.351,-7.189 -4.183,-13.867 -6.217,-20.859 -1.521,-5.225 -2.153,-11.707 -4.696,-16.459 -2.673,-4.995 -7.937,-8.921 -11.521,-13.331 -3.182,-3.916 -5.523,-9.041 -7.718,-13.577 -2.909,-6.012 -8.031,-23.703 -12.173,-27.74 0.316,2.641 2.568,5.703 1.302,8.249 -0.188,-0.068 -0.384,-0.118 -0.564,-0.205 -3.744,-1.807 -8.196,-7.726 -9.611,-11.533 -1.603,-4.311 -2.396,-10.254 -0.268,-14.473 4.569,-9.058 13.934,-9.887 22.429,-12.806 3.602,2.46 8.516,8.854 12.666,9.205 5.57,3.248 10.586,7.898 15.609,11.941 6.326,5.092 12.715,9.708 18.534,15.443 6.635,6.539 12.678,13.658 18.977,20.513 q 18.014,19.294 35.281,39.259 c 6.245,7.251 12.109,14.964 18.666,21.931 1.615,1.717 4.066,4.821 6.39,5.054 0.929,-0.498 1.359,-0.667 1.535,-1.843 0.499,-3.331 -2.216,-7.981 -3.999,-10.671 4.095,-0.506 7.913,-2.158 12.113,-2.056 6.718,0.164 13.657,2.509 20.181,3.992 22.165,5.038 45.4,9.467 67.659,2.038 6.83,-2.279 13.4,-5.616 19.511,-9.399 13.827,-8.559 21.53,-17.486 28.696,-32.048 3.225,2.231 5.217,5.437 8.042,8.06 2.517,2.337 5.383,3.611 8.883,3.323 1.597,-0.131 2.48,-0.559 3.506,-1.762 l -0.104,-1.277 c -1.054,-1.699 -2.558,-2.252 -4.307,-3.108 0.276,-1.518 0.808,-2.979 1.278,-4.446 1.482,-1.638 1.587,-3.425 1.938,-5.54 0.142,1.162 0.124,2.102 0.888,3.041 0.795,0.196 1.207,0.435 2.025,0.178 3.048,-0.962 5.291,-4.646 6.569,-7.36 -1.992,-9.845 -5.988,-19.185 -8.844,-28.793 -6.512,-21.911 -9.327,-46.319 -7.833,-69.157 1.556,-23.777 12.972,-47.765 28.116,-65.891 7.017,-8.398 14.755,-15.829 20.84,-25.021 13.336,-20.147 21.604,-38.322 31.162,-60.287 3.06,-7.033 8.958,-17.407 8.461,-25.134 -0.188,-2.924 -1.135,-5.653 -2.068,-8.408 -6.113,-18.048 -22.262,-29.527 -35.82,-41.839 0.855,-4.32 -1.555,-4.949 -3.798,-8.356 z"
     id="path79" />
  <path
     fill="#e6d8c6"
     d="m 706.572,428.429 c 1.117,0.008 1.989,-0.055 3.027,0.413 0.502,0.743 0.813,1.354 1.015,2.243 0.419,1.849 -0.476,5.343 -1.528,6.888 -0.68,-0.099 -1.788,-0.131 -2.347,-0.566 -1.156,-0.897 -1.836,-3.728 -1.837,-5.137 0,-1.909 0.287,-2.52 1.67,-3.841 z"
     id="path80" />
  <path
     fill="#ddd0b8"
     d="m 586.716,679.305 c 0.175,2.344 0.467,4.201 1.297,6.399 0.048,0.126 0.091,0.254 0.136,0.382 -2.809,0.3 -8.979,3.025 -11.279,2.347 -0.376,-1.37 -0.191,-2.69 0.498,-3.939 1.758,-3.186 6.099,-4.278 9.348,-5.189 z"
     id="path81" />
  <path
     fill="#e2e1dc"
     d="m 586.716,679.305 c 3.265,-0.696 7.536,-2.122 10.616,-0.295 0.78,0.462 0.765,0.787 1.112,1.566 -0.233,1.575 -1.208,2.54 -2.479,3.42 -2.379,1.649 -5.014,1.82 -7.816,2.09 -0.045,-0.128 -0.088,-0.256 -0.136,-0.382 -0.83,-2.198 -1.122,-4.055 -1.297,-6.399 z"
     id="path82" />
  <path
     fill="#e2e1dc"
     d="m 532.758,620.457 0.845,0.428 c 0.987,-0.175 1.982,-0.346 2.987,-0.369 2.208,-0.051 3.872,0.154 5.487,1.671 0.647,1.999 -0.162,3.897 -1.058,5.683 -1.666,0.869 -4.441,2.117 -6.366,1.808 -0.804,-0.128 -1.397,-0.439 -1.836,-1.112 -1.508,-2.315 -0.492,-5.566 -0.059,-8.109 z"
     id="path83" />
  <path
     fill="#e2e1dc"
     d="m 727.158,418.778 c 0.769,0.234 1.443,0.588 2.164,0.937 2.452,3.029 3.963,9.109 4.118,12.904 0.067,1.644 -0.03,2.897 -1.199,4.16 -1.468,0.632 -2.137,0.686 -3.726,0.517 -0.515,-1.297 -0.91,-1.98 -0.544,-3.388 0.704,-0.512 1.325,-0.941 1.866,-1.636 0.442,-0.569 0.327,-0.328 0.204,-1.089 l -2.277,1.118 c -0.702,-0.556 -0.952,-1.045 -1.184,-1.889 -1.098,-3.99 -1.429,-7.961 0.578,-11.634 z"
     id="path84" />
  <path
     fill="#e6d8c6"
     d="m 718.629,425.177 c 0.801,0.491 1.115,0.814 1.556,1.645 1.935,3.647 3.092,9.253 1.829,13.193 -1.026,1.074 -1.176,1.105 -2.635,1.43 -0.924,-0.133 -2.33,-0.218 -3.107,-0.757 -3.069,-2.132 -2.242,-10.64 -2.236,-14.07 z"
     id="path85" />
  <path
     fill="#c5884e"
     d="m 604.538,699.849 c 0.355,1.166 0.39,2.093 -0.191,3.223 -1.403,2.726 -5.631,3.726 -8.38,4.263 -3.875,0.757 -7.956,1.114 -11.894,1.335 -1.681,-1.023 -3.68,-2.001 -5.074,-3.394 6.035,-3.209 11.411,-4.263 18.133,-5.152 2.461,-0.079 4.953,-0.077 7.406,-0.275 z"
     id="path86" />
  <path
     fill="#ddd0b8"
     d="m 593.829,692.035 q 4.57,-1.562 9.178,-3.005 c 1.574,1.33 2.942,2.378 3.849,4.276 0.236,3.218 -1.463,3.922 -2.318,6.543 -2.453,0.198 -4.945,0.196 -7.406,0.275 -6.722,0.889 -12.098,1.943 -18.133,5.152 -0.857,-0.485 -1.485,-1.073 -2.198,-1.748 -0.892,-1.993 -0.719,-5.76 0.179,-7.768 0.56,-1.255 1.119,-1.54 2.352,-1.998 4.886,1.297 9.676,-0.594 14.497,-1.727 z"
     id="path87" />
</svg>
