<svg width="60" height="60" viewBox="0 0 60 60" xmlns="http://www.w3.org/2000/svg">
  <g fill="currentColor" fill-opacity="0.1">
    <path d="M14,6 C14,9.31 11.31,12 8,12 C4.69,12 2,9.31 2,6 C2,2.69 4.69,0 8,0 C11.31,0 14,2.69 14,6 Z"/>
    <path d="M27,6 C27,9.31 24.31,12 21,12 C17.69,12 15,9.31 15,6 C15,2.69 17.69,0 21,0 C24.31,0 27,2.69 27,6 Z"/>
    <path d="M20.5,17 C20.5,20.31 17.81,23 14.5,23 C11.19,23 8.5,20.31 8.5,17 C8.5,13.69 11.19,11 14.5,11 C17.81,11 20.5,13.69 20.5,17 Z"/>
    <path d="M25.5,26.5 C23.01,26.5 21,24.49 21,22 C21,19.51 23.01,17.5 25.5,17.5 C27.99,17.5 30,19.51 30,22 C30,24.49 27.99,26.5 25.5,26.5 Z"/>
  </g>
</svg> 